<svg xmlns="http://www.w3.org/2000/svg" viewBox="0 0 104.61 104.95"><defs><style>.cls-1{fill:#feded1;}.cls-2{fill:#9569a3;}.cls-3{fill:#f1a683;}.cls-4{fill:#f3a786;}.cls-5{fill:#8e5f9f;}.cls-6{fill:#f4a682;}.cls-7{fill:#3b2645;}.cls-8{fill:#e0875e;}.cls-9{fill:#c98c92;}.cls-10{fill:#fba87e;}.cls-11{fill:#8d63aa;}.cls-12{fill:#e79671;}.cls-13{fill:#e4906c;}.cls-14{fill:#e99770;}.cls-15{fill:#664054;}.cls-16{fill:#412c48;}</style></defs><g id="Layer_2" data-name="Layer 2"><g id="Layer_1-2" data-name="Layer 1"><path class="cls-1" d="M19.38,93.06c-22-17.37-25.16-49.6-10-70.74,19.25-26.87,55.91-29.43,79-8,21.89,20.35,22.39,58.1-3,78.62-1.52-2.7-3-5.39-6.39-6.19a33.51,33.51,0,0,0-6.8-2c-2.4-.66-4.86-1.09-7.2-1.91-6.22-2.18-8.7-9-5.07-14.52,2.43-3.69,4.53-7.65,8.52-10.19S72,51.92,70.55,48.1c1.28-8,1.29-15.61-5.68-21.45a4.83,4.83,0,0,1-1.43-5.44,13.67,13.67,0,0,0,.25-7.37c-1.13-4.46-4.94-7.59-8.86-7.29a10,10,0,0,0-9,8.58A15.5,15.5,0,0,0,46,19.59a5.32,5.32,0,0,1-2.11,5.7c-7.62,5.58-10.42,13-8.61,22.25-2.94,6.48-2.69,7,2.65,12.18a45.67,45.67,0,0,1,8.44,11.46,7.2,7.2,0,0,1-.1,3c-.83,8.18-7.27,9.22-13.46,10.61a35.31,35.31,0,0,0-6.92,2C22.45,87.56,21.09,90.5,19.38,93.06Z"/><path class="cls-2" d="M25.43,85.92a13.25,13.25,0,0,1,7-2.14c3.38,2.83,1.69,7.27,3.39,10.63.51,1.27,1.68,1.58,2.82,2,9.77.42,19.53.46,29.27,0a3.18,3.18,0,0,0,1-1c.13-.48.27-.94.4-1.42,1.16-3.29.67-7.11,3.17-10a13.11,13.11,0,0,1,7,2c1.65,4.16.79,8-1.24,11.81-5.86,3.41-12,5.85-18.89,6.24-.8-.7-1.78-.41-2.69-.45a1.49,1.49,0,0,0-1.11.14,1,1,0,0,1,1.12.52,12.08,12.08,0,0,1-8.58,0,3.26,3.26,0,0,1,3.41-.44,17,17,0,0,0-7.07.16,37.25,37.25,0,0,1-17.23-5.81C24.3,94.38,24.67,90.18,25.43,85.92Z"/><path class="cls-3" d="M25.43,85.92c1.67,3.9.68,8.19,1.84,12.16-3.13-.88-5.29-3.31-7.89-5C19,88.66,21.56,86.73,25.43,85.92Z"/><path class="cls-4" d="M78.31,97.72q.61-5.89,1.24-11.81c3.64,1,6.39,2.65,5.85,7.07C83.1,94.65,81,96.66,78.31,97.72Z"/><path class="cls-5" d="M44.5,103.88c2.56-1.67,5.26-.66,8-.14l-4.29.42Z"/><path class="cls-5" d="M56.74,104.17c-.42-.18-1.1-.27-1.2-.56-.23-.68.47-.56.84-.57,1.11,0,2.27-.19,3,.92Z"/><path class="cls-6" d="M34.49,96q-1-6.11-2-12.2a18.75,18.75,0,0,1,3.26-1c5.38-.64,8.74-3.37,9.53-8.89,2.92-.19,5.81-.56,8.6-.9-2.85.07-5.84.17-8.31-1.93-4-3.82-6.13-9.15-10.89-12.56C30.6,55.6,31,51.75,34.52,48.05c1.61-1.68,1.41-4,2-6,.93-2.95,2.67-4.52,5.84-4.06a68.21,68.21,0,0,0,19.25,0c3.27-.46,5.42,1.14,6.35,4.23a12.19,12.19,0,0,0,3.42,5.91c2.76,6,1.71,8.39-3.55,12.34-4,3-7.39,7.2-8.25,12.26s1.89,8,6.82,9.3c2,.55,4,1.25,6.06,1.88L70.37,95c-1.76,1.66-4,1.37-6.1,1.38-8.74.06-17.49,0-26.23.06C36.85,96.36,35.58,96.84,34.49,96Z"/><path class="cls-7" d="M71.42,48.13c-2,.33-3.55.91-4-2.3-1.12-7.21-1.37-7.09-8.24-6.12-5.08.72-10.34,1.21-15.26-.16-4.69-1.31-5.77.75-6.44,4.52-.3,1.66.46,4.43-2.91,4-2.51-10.62,0-17.68,8.71-23.77C45,23,45.51,22.21,44.75,20a10.45,10.45,0,0,1,2.3-11.11c3.4-3.63,8.79-4.83,12.72-2.84C64,8.16,66.83,15,65.14,20.41c-.87,2.81-.49,4.14,1.63,6.15C73.09,32.57,73.84,40.08,71.42,48.13Z"/><path class="cls-8" d="M45.55,71.07c3.59-.28,7.11,2.11,10.76.2a1.11,1.11,0,0,1,1.62.58c.1.48-.46,1.56-.75,1.57-4,.17-7.85,3.13-11.92.48C45.36,73,45.45,72,45.55,71.07Z"/><path class="cls-9" d="M34.49,96l3,0a237,237,0,0,1,33,.06c0,.35,0,.69,0,1a255.13,255.13,0,0,1-32.95,0C36.41,96.92,35.15,97.27,34.49,96Z"/><path class="cls-10" d="M70.45,96l-33-.06c1.66-1.66,3.76-.89,5.65-.91,9.08-.08,18.16,0,27.23,0C70.4,95.35,70.43,95.69,70.45,96Z"/><path class="cls-11" d="M37.49,97.07H70.44c-1.65,1.64-3.74.9-5.63.92-7.56.08-15.12.06-22.68,0C40.55,98,38.8,98.53,37.49,97.07Z"/><path class="cls-12" d="M50.8,47.41c1.66,3.59-.53,6.47.24,9.39.22.8-.6,1.07-1.3,1-.86-.1-1-.77-.87-1.46C49.43,53.62,50,50.91,50.8,47.41Z"/><path class="cls-13" d="M54.58,61.72c-1.82,1.69-3.7,1.61-6.73.31C50.79,61.25,52.76,62.42,54.58,61.72Z"/><path class="cls-14" d="M70.34,52.69c-.16,1-.57,1.84-1.69,1.92-.26,0-.82-.58-.79-.82a2.35,2.35,0,0,1,1.76-2C70.19,51.65,70.35,52.18,70.34,52.69Z"/><path class="cls-15" d="M59.45,49.05c-.1.78-.24,1.51-1,1.56-1.21.09-1.05-.92-1.06-1.66s.17-1.38.93-1.43C59.49,47.45,59.39,48.41,59.45,49.05Z"/><path class="cls-16" d="M45.26,50.51c-.75.28-.82-.36-.91-.77-.17-.8-.22-1.66.64-2.08.18-.09.87.41,1,.77A1.65,1.65,0,0,1,45.26,50.51Z"/></g></g></svg>