<svg xmlns="http://www.w3.org/2000/svg" viewBox="0 0 104.61 104.86"><defs><style>.cls-1{fill:#feded1;}.cls-2{fill:#976ba2;}.cls-3{fill:#f3a682;}.cls-4{fill:#f4a682;}.cls-5{fill:#3b2645;}.cls-6{fill:#3c2745;}.cls-7{fill:#b67f99;}.cls-8{fill:#eb236d;}.cls-9{fill:#f4296d;}.cls-10{fill:#292037;}.cls-11{fill:#e1885f;}.cls-12{fill:#e5936d;}.cls-13{fill:#a36a5b;}.cls-14{fill:#ec9870;}.cls-15{fill:#e3906d;}.cls-16{fill:#ea9370;}.cls-17{fill:#281d40;}.cls-18{fill:#51334a;}.cls-19{fill:#f5af93;}.cls-20{fill:#291b39;}</style></defs><g id="Layer_2" data-name="Layer 2"><g id="Layer_1-2" data-name="Layer 1"><path class="cls-1" d="M20.11,93.88C8.45,84.52,1.39,72.65.2,57.56A55.45,55.45,0,0,1,6.47,26.25C15.91,8.65,39.59-2.62,59.21.53c16.92,2.72,30.1,11,38.38,25.65,9.82,17.36,9.74,38.6-2.8,56.54a44.21,44.21,0,0,1-9.52,10.12c-2.33-5.4-7.5-6.41-12.32-8-.44-.12-.88-.27-1.31-.42-1.54-.55-3.19-.5-4.76-.92-6.26-1.81-8.63-4.56-8.77-10.18-.12-4.48,4.16-9.71,9.21-11.28a1.11,1.11,0,0,0,.64-.72c.1-.42.22-.84.32-1.27,1.92-3.74,4.63-7.33,2.06-11.85,0-2,.5-4,.56-6C71.3,29,62.23,21.1,49.08,23.39c-3.6.63-6.62,2.21-8.36,5.63a8.42,8.42,0,0,1-2,2.85c-5.06,4.15-4.36,9.66-3.62,15.18-1.75,3.88-3.18,7.75.52,11.39.74,1.89.4,4,1.3,5.87a6,6,0,0,1,0,2.19C35,71.8,36.89,78,33.23,82.87a8.72,8.72,0,0,1-2.32,1.87,12.51,12.51,0,0,1-3.59,1.44C23.06,87.05,20.4,89.33,20.11,93.88Z"/><path class="cls-2" d="M71.2,100.84c-13.54,5.59-27,5.39-40.24-.87-1.57-2.52-1.2-5.31-1.19-8.06.42-1.64-.11-3.83,2.45-4.23a4.34,4.34,0,0,1,1.25,2.63c1.16,6,1.16,6,7.05,6,7.15,0,14.29,0,21.44,0,5.7,0,6-.38,6.65-6.18.24-2.12-.06-4.36,1.26-6.28a1.64,1.64,0,0,1,2.35,0l-.08,0C72.9,89.57,73.78,95.3,71.2,100.84Z"/><path class="cls-3" d="M71.2,100.84c.29-5.67-.9-11.42.94-17,3.2,0,6.08,1.33,8.91,2.57,2.64,1.16,4.72,3,4.22,6.43C81,96.18,76.6,99.42,71.2,100.84Z"/><path class="cls-3" d="M31.14,91.89,31,100c-4.06-1.24-7.45-3.68-10.85-6.1-2-3.73-.36-6,3.07-7.45,2.3-1,4.7-1.65,7.06-2.46C32.65,86.36,29.49,89.4,31.14,91.89Z"/><path class="cls-4" d="M70.32,83.86c-.21,3.45-.67,7-.65,10.35,0,3.66-1.57,3.67-4.15,3.66C56.25,97.82,47,97.6,37.7,98c-4.47.17-6-1.26-5.45-5.58a26.74,26.74,0,0,0-.14-4.46c-1.63-2.36-.51-4,1.44-5.39,3.82-1.79,8.39-2.52,10.24-7.15,3-2.9,7-1.18,10.9-2.6-3.82.44-7,.46-9.82-1.71-3.25-2-5.26-5.15-7.31-8.25-1.19-1.06-1.12-2.84-2.23-4-4.63-3.78-4.89-6.45-1-10.89,1.48-1.33,1.44-3.25,2-5C38.3,36.12,42,30.73,49.48,28.91a11.76,11.76,0,0,1,5.44,0c7.4,1.83,11.25,7,13,14,.59,2.28,1.12,4.48,3.26,5.84,4.38,5-.66,8.21-2.32,12.06-.34.05-.61.24-.55.53.1.5.58.48,1,.55.93,1.19.39,1.69-.88,1.9-7.6,1.22-10.72,7-8.14,14.21,1.29,3.58,4.61,3.19,6.92,4.72C68,83.86,69.53,82.82,70.32,83.86Z"/><path class="cls-5" d="M49.26,30.07C42,32.44,38.32,37.7,37.12,45c-.28,1.66-.31,3.5-2.85,3-1.57-6.86-1-12.24,4.38-18.43,4.27-4.93,8-7.73,14-8s11.45,1.71,15.4,6.54c5.1,6.23,5.14,13.33,3.17,20.69-2.39.13-3.73-.38-4.11-3.36-1-7.4-4.68-13-12.19-15.34C52.49,29,52.12,29,49.26,30.07Z"/><path class="cls-6" d="M44.53,75.78c-.93,6-6,6.08-10.36,7.23a2,2,0,0,1-2.2-.17c2.84-3.61,1.91-8.11,2.9-12.16.43-1.71,0-3.62,1.2-5.15.65.43.76.92.15,1.48.5-.27.51-.75.55-1.23.06-.8.41-1.56.46-2.37a2.12,2.12,0,0,1,1.2-1.51c2,2.85,3.41,6.19,6.69,8C47.18,72.06,45.4,73.88,44.53,75.78Z"/><path class="cls-7" d="M32,82.84l2.2.17c-2.08,1.06-2,3-2.06,4.91-1.36,1.07-.65,2.64-1,4-1.63-2.49-.61-5.29-.9-7.93Z"/><path class="cls-8" d="M38.43,61.9l-.27,1.65c-.56,1-1.26.83-2,.22-3-1.17-.14-3.34-.83-4.9C37.72,58.49,37,61.25,38.43,61.9Z"/><path class="cls-9" d="M69.33,61.88c-.93,1.27-2,1.75-2.93.13A2,2,0,0,1,67,59.4c1.39-.82,1.18,1.09,2,1.4Z"/><path class="cls-10" d="M36.16,63.77l2-.22c-.51,1.1-1,2.2-1.54,3.3l-.55-1.32Z"/><path class="cls-3" d="M70.32,83.86c-1.13-.11-2.41.17-3.09-1.15,1.68.31,3.62-.49,5,1.16Z"/><path class="cls-11" d="M44.53,75.78c.2-2,.4-4,.59-5.92,3,2.38,6.42,2.36,9.93,1.51,1-.23,2.19-.9,2.62.24.55,1.49-1,1.7-2,2.25C52.16,75.78,48,73.67,44.53,75.78Z"/><path class="cls-12" d="M50.57,48.91c1.09,2,.45,3.93,0,5.84-.26,1,1.5,3.2-1.08,2.7-2.08-.41-.32-2.22-.11-3.28C49.68,52.42,50.47,50.76,50.57,48.91Z"/><path class="cls-13" d="M47.2,43a2.76,2.76,0,0,1-3.63,2.34c-1.18-.29-.8-1.6-.34-2.55C44.59,42.2,45.93,41.86,47.2,43Z"/><path class="cls-14" d="M70.17,53.69c-.06.82-.11,1.69-1.13,1.88-1.34.26-1.69-.64-1.78-1.7s.27-1.5,1.37-1.46C69.53,52.44,70.25,52.54,70.17,53.69Z"/><path class="cls-15" d="M54.58,61.23c-1.67,2-3.52,1.66-6.76,1.12Z"/><path class="cls-16" d="M37,53.53c-.33,1.19-1.13,1.66-1.88,1.59-1-.1-.46-1-.36-1.54s-.18-1.87,1.17-1.29C36.4,52.5,36.69,53.19,37,53.53Z"/><path class="cls-17" d="M49.26,30.07c1.75-2,3.88-1.35,6-.83a.78.78,0,0,1,0,.43,1.48,1.48,0,0,1-.3.37Z"/><path class="cls-18" d="M58.16,50.59c-.95-.21-1-.88-.92-1.48s.16-1.36,1.06-1.25.89.8.84,1.43S58.84,50.52,58.16,50.59Z"/><path class="cls-19" d="M47.2,43l-4-.21C44.65,41.05,45.94,41.61,47.2,43Z"/><path class="cls-20" d="M45.85,49c-.28.74-.41,1.53-1.24,1.39-.23,0-.5-.79-.49-1.21,0-.59.06-1.45,1-1.18C45.46,48.08,45.65,48.69,45.85,49Z"/></g></g></svg>