<svg xmlns="http://www.w3.org/2000/svg" viewBox="0 0 104.75 104.69"><defs><style>.cls-1{fill:#feded1;}.cls-2{fill:#3b2645;}.cls-3{fill:#b7c2e1;}.cls-4{fill:#f4a682;}.cls-5{fill:#f4a683;}.cls-6{fill:#df875e;}.cls-7{fill:#3c233e;}.cls-8{fill:#e6ab90;}.cls-9{fill:#e4c7c1;}.cls-10{fill:#faf8f4;}.cls-11{fill:#e6c6bc;}.cls-12{fill:#e5c3b7;}.cls-13{fill:#ea9573;}.cls-14{fill:#2e1d3f;}.cls-15{fill:#dec5ca;}.cls-16{fill:#f2a07c;}.cls-17{fill:#e3936e;}.cls-18{fill:#e48e62;}.cls-19{fill:#3d2340;}.cls-20{fill:#eba07e;}.cls-21{fill:#eca181;}.cls-22{fill:#23113f;}.cls-23{fill:#271d3a;}</style></defs><g id="Layer_2" data-name="Layer 2"><g id="Layer_1-2" data-name="Layer 1"><path class="cls-1" d="M12.21,86.45C3.92,75.38-.55,63.18.05,49.09,1.09,24.83,21,3.47,45.13.45,71.78-2.89,92.07,13,99.55,29.62c8.53,18.89,6.41,37.05-5.26,54.11A10.52,10.52,0,0,1,92,85.59c-2,1.22-3.86.12-5.68-.57-7-2.64-14.08-4.93-21.06-7.56-6.33-2.86-4.41-8.28-4.11-13.2,4-4.89,5-11.69,10.77-15.55,3-2,2.35-5.5-.73-10-.9-3.86-.23-7.79-.54-11.68-2-5.88,1.84-11.41,1-17.23-1.45,2-3.7,2-5.88,2.08-4.65.11-9.31.13-14,0C43.39,11.76,38,16.71,33.16,22.68c-1.63,2-1.59,4.66-1.64,7.17s.24,5.33-.46,7.94c-4.25,6.48-3.88,7,1.56,12.78,4,4.28,6.18,9.89,8.67,15.2A12.53,12.53,0,0,1,41,69.63c-.31,4.72-2.22,8.09-7.35,8.76C26.52,81,19.25,83.45,12.21,86.45Z"/><path class="cls-2" d="M66.2,76.67,92,85.59c-6.61,9.4-15.91,14.6-26.87,17.2-4.08-2.13-2-5.91-2.41-9,.41-3.78,1-7.54,1.07-11.36C63.83,80.25,64.28,78.11,66.2,76.67Z"/><path class="cls-2" d="M12.21,86.45c-.3-2.6,2.06-2.29,3.35-2.78,5.88-2.27,11.85-4.31,17.78-6.43,2.7-.37,2.79,1.77,3.23,3.45A49.92,49.92,0,0,1,37.68,93c.61,3.18,1.92,6.42-.79,9.32C27.06,99.52,19.22,93.63,12.21,86.45Z"/><path class="cls-3" d="M36.89,102.32c-.07-3-.14-6.09-.2-9.14,3.07-2.3,5.79.64,8.72.58a12.48,12.48,0,0,0,4.43.39,34.93,34.93,0,0,0,9.16-1c1.71-.43,3.5-1,5.07.44.93,3-1.7,6.42,1.07,9.21C55.67,105.64,46.26,105.11,36.89,102.32Z"/><path class="cls-4" d="M72,39.46c3.92,2.09,4.74,8.21.67,10.62s-5.13,6-7,9.43c-.88,1.59-1.72,3.17-3.43,4-.84.76-.48,2-1.18,2.84-7.06,5-14.6,4.76-20.73-.78-4.18-5.3-5.53-12.32-11.21-16.86-4.13-3.31-3.14-7.63,1.37-10.31,2.78-2.84,3.09-6.88,4.92-10.21,3.52-6.4,3.65-6.62,10.71-5.12.82.17,1.66.18,2.48.29a16.28,16.28,0,0,0,9.55-.06c6.75.18,9.17,1.95,11.09,8.2.62,2,1.06,4.13,1.52,6.21A5.37,5.37,0,0,0,72,39.46Z"/><path class="cls-5" d="M61.05,65.68c.08-.86.21-1.7,1.12-2.13,0,2.28.12,4.56-.08,6.83-.28,3.25,1.11,5.26,4.11,6.29L64.07,93.58c-5,.7-9.8,2.66-15,1.85a6.9,6.9,0,0,0-4-.71l-8.38-1.54Q36,86.89,35.26,80.6c-.16-1.39.19-3.08-1.92-3.35,4.78-.46,6.26-3.68,6.62-7.86,5.65,1.42,11.17.38,16.71-.78A5.89,5.89,0,0,0,61.05,65.68Z"/><path class="cls-2" d="M48.13,24.54a1.7,1.7,0,0,1-.49.05c-2.5-.55-5.74-2.36-7.33-1.4-3,1.81-4,5.8-5.44,9.11A41.16,41.16,0,0,0,33,37.89c-.55,2.08-1.63.85-2.59.55a38.87,38.87,0,0,0-.39-5C27.56,21.36,40.17,10.92,50.14,10.65c4.15-.12,8.31-.18,12.45,0,3.36.16,6.64.28,10-1.79,1,2.86,1.5,5.86.16,7.82-2.32,3.39-1.32,6.54-.82,9.88-1.26,4.15,1,8.81-1.84,12.72-.76-2.64-1.52-5.3-2.3-7.94-1.44-4.82-4.11-7.9-9.71-6.83A75.54,75.54,0,0,0,48.13,24.54Z"/><path class="cls-6" d="M61.05,65.68c0,1,.21,2.3-.83,2.67C54,70.59,47.64,72.3,40.92,71c-.41-.08-.64-1.06-1-1.62l.3-3.78C47.18,69.06,54.11,69.91,61.05,65.68Z"/><path class="cls-7" d="M70.12,39.3c1.58-4.1.13-8.63,1.84-12.72a35.13,35.13,0,0,1,0,12.89Z"/><path class="cls-8" d="M45.07,94.72c1.75-2.06,2.8-.14,4,.71C47.71,95.47,46.25,95.9,45.07,94.72Z"/><path class="cls-9" d="M64.07,44.48a18.33,18.33,0,0,0-2,.06c-4.35.64-8.29.13-11-3.85-1.48.72-1,3.5-3.39,3.24a2.5,2.5,0,0,1-1.48-1.55c-.09-3.44-1.65-5.08-5.26-4.58a5.11,5.11,0,0,1-3.78-.94,1,1,0,0,1-.06-1.36,49.58,49.58,0,0,0,6.79,0c2.73-.38,4.16.91,5.22,3.07,1.49.15,2.19-1.05,3.15-1.82l1.85-1.13A6.44,6.44,0,0,1,55,36.75c.6,1.52.18,3.28,1.11,4.72,1.46,1.14,3.21.51,4.79.84C62.19,42.59,64,42.25,64.07,44.48Z"/><path class="cls-10" d="M45.89,55.79h9.7C52,60.82,49.5,60.78,45.89,55.79Z"/><path class="cls-11" d="M37.12,35.5c0,.34,0,.69,0,1,.24,3.31,1.77,5.08,5.33,4.73a5.83,5.83,0,0,1,4.62,1.19l1.1,1.11a.55.55,0,0,1-.11.88l-2,.05a18.16,18.16,0,0,0-8.94,0C32.93,42.3,32.92,38.41,37.12,35.5Z"/><path class="cls-12" d="M64.07,44.48c-2.9-2.53-7,.79-9.86-2.08a6,6,0,0,1,4.65-1.14c3.17.25,5-1.13,5.51-4.21a4.06,4.06,0,0,1,1.71-1.44C66.81,38.88,70,42.7,64.07,44.48Z"/><path class="cls-13" d="M48.07,44.44a8.46,8.46,0,0,0,.11-.88c1.16-.76.5-3.37,2.91-2.87.08,3.33-4.5,6.88.88,9.94C48.18,51.15,48.18,51.15,48.07,44.44Z"/><path class="cls-14" d="M48.13,24.54a11.36,11.36,0,0,1,10,0A18.1,18.1,0,0,1,48.13,24.54Z"/><path class="cls-15" d="M66.08,35.61l-1.07,1c-3.57,2.12-7.17,1.83-10.79.14l-.09-1.19Z"/><path class="cls-16" d="M52.28,36.7c.62,3.49-.92,3.24-3.15,1.82C50.08,37.74,49.68,34.64,52.28,36.7Z"/><path class="cls-9" d="M37.15,44.5a9.35,9.35,0,0,1,9,0Z"/><path class="cls-17" d="M72.77,42.62c-.08,2-.36,3.14-2,3.55C70.15,44.46,70.89,43.54,72.77,42.62Z"/><path class="cls-18" d="M30.64,42.84a5.85,5.85,0,0,1,1.05,1.26c.1.21-.36.68-.56,1a9.19,9.19,0,0,1-1.23-1.27C29.61,43.43,29.76,43,30.64,42.84Z"/><path class="cls-19" d="M59.47,34a3.11,3.11,0,0,1-3.65.25C57,32.9,58.21,33.61,59.47,34Z"/><path class="cls-20" d="M54.22,36.76,65,36.62c1.15,5-1.09,6.64-5.83,6a48.23,48.23,0,0,0-5-.21C54.21,40.52,54.21,38.64,54.22,36.76Z"/><path class="cls-21" d="M47.08,42.45c-2.16,0-4.31.16-6.47.14-4.93-.05-5.35-.8-3.48-6.06a25.81,25.81,0,0,0,4.48,0C46.52,35.75,47.78,38.15,47.08,42.45Z"/><path class="cls-22" d="M57.66,38.21c.86,0,1.08.63,1.11,1.25s.09,1.68-.91,1.91-1-.65-1-1.19C56.85,39.45,56.78,38.6,57.66,38.21Z"/><path class="cls-23" d="M42.7,41.68a2.51,2.51,0,0,1-.15-3.29,1.22,1.22,0,0,1,1.12.15C44.22,39.61,44.31,40.68,42.7,41.68Z"/></g></g></svg>