<svg xmlns="http://www.w3.org/2000/svg" viewBox="0 0 104.69 104.14"><defs><style>.cls-1{fill:#feded1;}.cls-2{fill:#3c2745;}.cls-3{fill:#594a63;}.cls-4{fill:#594963;}.cls-5{fill:#f2a682;}.cls-6{fill:#f4a682;}.cls-7{fill:#e26c28;}.cls-8{fill:#e0865d;}.cls-9{fill:#e26e2b;}.cls-10{fill:#e6926d;}.cls-11{fill:#f9f3ed;}.cls-12{fill:#e9936e;}.cls-13{fill:#e7946c;}.cls-14{fill:#fab092;}.cls-15{fill:#231838;}.cls-16{fill:#341c3c;}.cls-17{fill:#815559;}</style></defs><g id="Layer_2" data-name="Layer 2"><g id="Layer_1-2" data-name="Layer 1"><path class="cls-1" d="M70.29,78.05c-3.54-1-6.4-3.59-10.12-4.12,1.19-2.47,2.57-4.89,1.55-7.79a4.44,4.44,0,0,1,.21-1.4c3.73-5.32,5.87-11.63,11.13-16,3.68-3.09,1.6-6.85-.62-10.12-.88-3.62-.34-7.3-.51-10.95-.35-7.5-3.56-11.72-10.71-13.85a39.34,39.34,0,0,0-11.79-1.94c-9.06.15-16,7.21-16.7,16.71-.23,3,.18,6-.36,9-4.21,7.32-4,7.14,1.92,13.81,3.52,4,5,9.32,7.92,13.76a7.83,7.83,0,0,1,0,3.57c-.73,1.43.13,3.27-1.16,4.56-1.24,3-4.38,3.33-6.71,4.8a6.31,6.31,0,0,1-3.11,2c-6.49,1.54-12.28,5.31-19,6.11C-1,69.6-3.21,51.47,4.23,31.93,11,14.18,31.31.59,50.34,0c26.37-.78,48.77,17.79,53.23,41.81C106,55,104.65,68,97.2,79.68c-1.58,2.49-3.36,4.86-5,7.28C86.88,84.71,81.4,83,76.05,81,74.14,80,71.79,79.85,70.29,78.05Z"/><path class="cls-2" d="M12.22,86.09c5.94-3.5,12.52-5.28,19.09-7.11,1.1,3-.7,5.76-1.08,8.64-.32,2.46,0,4,2.68,4.9,6.27,2,6.48,3.75,1.37,8.76C25.25,98.65,18.32,93,12.22,86.09Z"/><path class="cls-2" d="M76.42,80Q83.23,82.39,90,84.76c1.07.37,2.35.57,2.12,2.2-6.4,6.1-12.92,12-21.81,14.36a5.91,5.91,0,0,1-2.64-2.88c-1.78-3.33-1.1-5.28,2.62-5.45,4.71-.22,5.12-2.35,3.88-6.06a12.92,12.92,0,0,1-.68-4.41C73.58,80.72,73.87,79,76.42,80Z"/><path class="cls-3" d="M76.42,80c-1.3.21-2.22.71-1.88,2.29.39,1.77.71,3.57,1.12,5.34,1.4,6.07,1.41,6.21-4.77,6.38-3.16.09-4.06,1-2.19,3.72.75,1.11,1.64,2.12,1.64,3.56a26,26,0,0,1-12,2.82L70.29,78.05A14,14,0,0,1,76.42,80Z"/><path class="cls-4" d="M34.28,101.28a5.22,5.22,0,0,1,.54-1.89c2.9-3.58,2.89-5.49-2.52-5.58-3,0-4.83-1.78-3.66-5.33,1-3.12,1.1-6.52,2.67-9.5a3.24,3.24,0,0,1,3-1L46.47,104A23.35,23.35,0,0,1,34.28,101.28Z"/><path class="cls-5" d="M62.36,66.06c1.56,3.26,2,6.22-2.19,7.87-6.35,4.44-12.54,1.25-18.76-.39-.14,0-.24-.22-.36-.33-.19-1.42-1.33-2.86.13-4.22C48.56,70.35,55.75,70.32,62.36,66.06Z"/><path class="cls-6" d="M41.49,65.24a30.32,30.32,0,0,1-6.17-10.65c-.6-1.94-2.1-2.77-3.58-3.87-4.92-3.64-5-8.75-.3-12.69,3.08-3.19,3.87-7.6,5.91-11.35s4.26-5.92,9-5.05a41,41,0,0,0,11.92.06c4.21-.49,6.32,1.49,8.25,4.85,2.37,4.14,3.12,9.15,6.77,12.57,3.6,3.09,4.57,7.26,1.06,10.06-4.64,3.71-6.56,8.95-9.75,13.45-.68.94-1.18,2-2.33,2.49C57.43,71.56,46.41,71.63,41.49,65.24Z"/><path class="cls-7" d="M73.3,39.11c-1.53.8-2.59,1-3.16-1.25-2.72-10.85-8-17.06-20.94-15-9.37,1.51-10.18.67-14.71,13.49-.61,1.74-.71,3.49-3.05,1.66-.19-5-.83-9.93.81-14.81A18.43,18.43,0,0,1,52.4,10.58C71,13,74.75,18.07,73.3,39.11Z"/><path class="cls-8" d="M41.49,65.24c7,4.24,13.89,5.43,20.79-.13,0,.32.06.63.08,1a2.78,2.78,0,0,1-.12,1c-2.4,4.27-17.78,5.68-21.06,1.95C41.28,67.74,41.39,66.49,41.49,65.24Z"/><path class="cls-9" d="M53.33,52c2.51.76,5,1.52,6.73,3.86-1.63,2.2-3.39.44-5,.49-2.54,1-5.06.39-7.58-.09-1.27-.68-3.42,1.18-3.88-.61-.53-2.08,1.81-2.34,3.31-2.91.77-.29,1.57-.49,2.36-.73A3.18,3.18,0,0,1,53.33,52Z"/><path class="cls-10" d="M53.33,52H49.27c-.06-4.83.2-9.61,2.66-14.88C53.14,42.63,47.61,47.89,53.33,52Z"/><path class="cls-11" d="M47.48,56.27a9.27,9.27,0,0,1,7.58.09C52.5,59.31,50,58.34,47.48,56.27Z"/><path class="cls-12" d="M73.58,44.46c-.39,1-.2,2.4-1.78,2.48-.75,0-1.29-.51-1.08-1.2A3,3,0,0,1,73,43.51C73.58,43.41,73.79,43.9,73.58,44.46Z"/><path class="cls-13" d="M31.42,41c.91,2,2,3.13,1,5C30.93,44.81,30.18,43.7,31.42,41Z"/><path class="cls-14" d="M61.22,33.14c-1.81,1.26-3,1.27-4.27-.38C58.34,31.82,59.55,31.86,61.22,33.14Z"/><path class="cls-15" d="M58.94,38c1.4,1.47,1.17,2.6.2,3.67a.81.81,0,0,1-.8,0C57.49,40.41,57.7,39.26,58.94,38Z"/><path class="cls-16" d="M44.12,42a2.35,2.35,0,0,1-.47-3.49,1.26,1.26,0,0,1,1.11.16C45.59,40,45.18,41,44.12,42Z"/><path class="cls-17" d="M44.29,33.07c.36.18,1.3.38,1.4.78C46,35,45,35.13,44.14,35.11c-.63,0-1.44,0-1.5-.84S43.35,33.29,44.29,33.07Z"/></g></g></svg>