<svg xmlns="http://www.w3.org/2000/svg" viewBox="0 0 104.99 104.72"><defs><style>.cls-1{fill:#feded1;}.cls-2{fill:#fd0166;}.cls-3{fill:#f4a682;}.cls-4{fill:#fdfdfd;}.cls-5{fill:#8c3d3e;}.cls-6{fill:#f1a481;}.cls-7{fill:#e08860;}.cls-8{fill:#8e3e3f;}.cls-9{fill:#e5916b;}.cls-10{fill:#853534;}.cls-11{fill:#833235;}.cls-12{fill:#e3936d;}.cls-13{fill:#2a143c;}.cls-14{fill:#452235;}.cls-15{fill:#e6946f;}.cls-16{fill:#3a2948;}.cls-17{fill:#491d35;}.cls-18{fill:#cccee3;}.cls-19{fill:#adbbd0;}.cls-20{fill:#f3a585;}.cls-21{fill:#e3936b;}</style></defs><g id="Layer_2" data-name="Layer 2"><g id="Layer_1-2" data-name="Layer 1"><path class="cls-1" d="M12.25,85.9C-10.77,59,.09,16.61,32.81,3.7A52.67,52.67,0,0,1,103.37,40c4.25,17.11,0,33-11.34,46.81-6.78-2.46-13.67-4.58-20.43-7.11C67.83,78.17,63,78,62.13,72.62A20.35,20.35,0,0,1,61.72,67c2.16-6.1,4.73-12,9.69-16.42,2.12-1.9,4.15-4.22,3.08-6.85-2.22-5.44-1.2-11.17-2.34-16.66-2.78-14.89-18.53-17.81-29-12.35C37,17.9,31.84,23,32.34,31.24a24.5,24.5,0,0,1-.28,6.45c-3.56,7.37-3.14,7,2.27,14,3.46,4.43,6.71,9.38,8,15.16a10.92,10.92,0,0,1-.48,4.4c-1.23.83-.14,2-.43,3-1.79,4.08-5.85,4.29-9.32,5.53C25.45,81.79,19.28,85.22,12.25,85.9Z"/><path class="cls-2" d="M12.25,85.9a107,107,0,0,1,19.78-7C33.91,80,34.4,82,35.36,83.73c3.7,6.63,8.87,11.52,16.76,11.62S65.29,90.66,69.06,84c1-1.7,1.28-3.84,3.17-4.94,6.89,1.85,14,3.17,19.8,7.73-18.85,20-43.38,21.53-61.83,12.94A49,49,0,0,1,12.25,85.9Z"/><path class="cls-3" d="M41.17,66.88c-2.48-5.77-4.79-11.71-9.61-16-4.51-4-4.69-8-.25-13.07,1.75-.73,2.25-2.3,2.72-3.94a35.12,35.12,0,0,1,3.3-7.25c3.73-6.62,21.21-8.65,26.51-3.2,3.58,3.68,5.21,8.51,7.86,12.68.31-3-.61-6,.93-8.73l.6-.43c1.51,2.28.7,4.84.82,7.27s.12,4.68,1.4,7.1A7.38,7.38,0,0,1,73,51.07c-5.56,4-7,10.33-10.16,15.72-2,0-2.27-1.64-2.81-3a7.8,7.8,0,0,1-.21-1.45c-.13-3.1.21-6.66-3.68-7.67s-7.84-1.32-10.56,2.68a13.07,13.07,0,0,0-.77,7.88C44.39,67.46,43,67.62,41.17,66.88Z"/><path class="cls-4" d="M72.23,79.1c-2,6.39-5.33,11.83-11.29,15.2-8.76,4.94-18.88,1.9-25-7.37A32.33,32.33,0,0,1,32,78.88c3-1.75,6.92-1.87,9.09-5.1,2.93-2,5.54-.38,7.85,1.06,2.53,1.57,4.37,1.42,6.73-.33,2-1.49,4.28-3.46,7.23-1.76C64.16,77.61,69.53,76.4,72.23,79.1Z"/><path class="cls-5" d="M72.79,38.83c-2.14.33-2.18.35-2.71-1.66a31.45,31.45,0,0,0-7.45-13.3c-4.07-4.39-21-2.15-24,3A40,40,0,0,0,34.28,37.4c-.75,3.09-1.76,2-3,.38-.09-1.66-.22-3.32-.25-5-.21-12,7.08-20.24,19.15-21.59,12.88-1.44,20.48,3.74,23,15.69l-.4,0A50.85,50.85,0,0,0,72.79,38.83Z"/><path class="cls-6" d="M62.93,72.75c-4.54,0-7.32,5.42-10.59,5.18-3.51-.25-6.79-4.27-11.22-4.15-.16-.64-1.16-1.26,0-1.92,4.29-2.56,9.53-.67,13.87-3,2.72-.9,3.22-4.38,6-5.2l1.91,3.1C62.9,68.78,62.91,70.77,62.93,72.75Z"/><path class="cls-7" d="M56,69.73C51.26,72,46.16,71.8,41.1,71.86c0-1.66,0-3.32.07-5l2.89-1a1.9,1.9,0,0,1,2,.33C49,68.55,53,67.82,56,69.73Z"/><path class="cls-8" d="M56,69.73c-3.88,0-7.81.24-10.82-2.93-.92-3.25-.38-6.65-1.08-9.92a10.92,10.92,0,0,1,12.74-3.67c5.4,1.93,4.32,6.37,4.14,10.48C59.88,66.17,58.63,68.52,56,69.73Z"/><path class="cls-9" d="M51.48,37.07c1.32,3.78-.38,6.35-.7,9.08-.11.94-.72,1.76-.46,2.85.22.92,2.21.34,1.38,1.73-.22.37-1.3.5-1.86.33-1.32-.4-.75-1.65-.75-2.52C49.05,44.87,50.59,41.53,51.48,37.07Z"/><path class="cls-10" d="M44.09,56.88a13.23,13.23,0,0,1,1.08,9.92l-1.11-.91C43,62.89,43.36,59.88,44.09,56.88Z"/><path class="cls-11" d="M72.79,38.83c-1.57-4-1-7.93,0-11.89A37.06,37.06,0,0,1,72.79,38.83Z"/><path class="cls-12" d="M71.75,47c-.58-2.21.1-3.08,1.5-3.88C74.2,44.85,73.08,45.61,71.75,47Z"/><path class="cls-13" d="M58.68,37.81c1.63,1.81,1.52,2.94,0,4.13C57.51,40.64,57.81,39.49,58.68,37.81Z"/><path class="cls-14" d="M44.18,41.81c-.9.13-1.2-.5-1.14-1.15a3.69,3.69,0,0,1,.7-2.19c.53-.51,1.19,0,1.29.78C45.14,40.22,45.3,41.23,44.18,41.81Z"/><path class="cls-15" d="M30.6,43.4c1.69-.35,2.27.63,2.69,1.61.24.55-.32.81-.84.74C31.05,45.56,31,44.46,30.6,43.4Z"/><path class="cls-16" d="M42,34.85c1.2-1.59,2.4-1.12,3.93-.68C44.69,35.36,43.51,35.05,42,34.85Z"/><path class="cls-17" d="M61.18,34.72c-2,.17-3.24.71-4.39-.31C58.15,33.46,59.43,33.46,61.18,34.72Z"/><path class="cls-18" d="M53.11,83c.37.56.79.92.81,1.29,0,.71-.43,1.27-1.19,1-.29-.09-.55-.78-.52-1.18S52.7,83.49,53.11,83Z"/><path class="cls-19" d="M52.81,90.32c.44.51.89.82.93,1.18s-.48.59-.75.88c-.29-.3-.74-.57-.81-.91S52.52,90.81,52.81,90.32Z"/><path class="cls-20" d="M49,56.78c.65-1.26,2-1.12,3-1.3,2.34-.4,4.74.16,4.83,2.8.12,3.49-3.25,2.71-5.24,2.91s-4.55-.31-3.71-3.58c.09-.36.71-.57,1.09-.86a3,3,0,0,0,2,1.13A3.31,3.31,0,0,1,49,56.78Z"/><path class="cls-21" d="M49,56.78l6.15.33c-2.85,2-4.74,3.14-6.15-.36Z"/></g></g></svg>