<svg xmlns="http://www.w3.org/2000/svg" viewBox="0 0 104.84 105.05"><defs><style>.cls-1{fill:#feded1;}.cls-2{fill:#9b4345;}.cls-3{fill:#fb0366;}.cls-4{fill:#3b2645;}.cls-5{fill:#773436;}.cls-6{fill:#2e1a3b;}.cls-7{fill:#2f193c;}.cls-8{fill:#9b4344;}.cls-9{fill:#853738;}.cls-10{fill:#863535;}.cls-11{fill:#502c40;}.cls-12{fill:#833939;}.cls-13{fill:#3f2146;}.cls-14{fill:#823738;}.cls-15{fill:#5a2a3c;}</style></defs><g id="Layer_2" data-name="Layer 2"><g id="Layer_1-2" data-name="Layer 1"><path class="cls-1" d="M19.17,93.19C4.92,81-1.55,65.34.31,46.79,1.9,31,9.53,18.26,22.91,9.33,39.29-1.6,56.55-2.85,74.44,5.18c11.81,5.31,20.66,14,25.68,25.82C108,49.65,106,67.54,94.18,84.14,91.42,88,87.7,91,84.32,94.23c-.86-2.47-.61-5.63-4.06-6.5-4.36-2.16-9.15-2.92-13.78-4.18-5.19-1.42-8-4.46-7.78-10a2.63,2.63,0,0,1,1.4-1.67c6.65.22,14.13-5.17,17.39-10.77C83.41,51,80.6,40.82,78,30.92,76.75,26.38,74,21.26,67.9,20.48,64.13,20,61.47,16.09,57.24,17a5.51,5.51,0,0,1-2.1-.08C43.23,15.23,27.6,22.12,27.93,36.34a5.5,5.5,0,0,1-.13,2.14,34,34,0,0,0,1,25c2.36,5.46,7,7.54,12.67,7.71,1.49,0,3-.15,4.17,1.08a5.09,5.09,0,0,1,.45,3.8c-.84,4.41-3.6,6.65-7.92,7.58a86.9,86.9,0,0,0-12.78,3.5C22,87.85,21,90.94,19.17,93.19Z"/><path class="cls-2" d="M59.22,73.23c.54,6.35,4.45,8.91,10.33,9.84,4,.65,8.14,1.53,11.76,3.72a2,2,0,0,1-.85,1.71c-7.62,4.48-14,10.68-21.19,15.69a25.9,25.9,0,0,1-12.94.06C39,99.75,33,93.32,25.57,88.84a2.66,2.66,0,0,1-1.49-2.42c4-2.18,8.37-3,12.69-3.81,4.08-.78,7-2.39,8.23-6.48C49.27,72.84,54.15,72.58,59.22,73.23Z"/><path class="cls-3" d="M24.08,86.42C31.85,91.92,40,97,46.33,104.25c-10.36-.48-19.06-5-27.16-11.06C19.09,89.69,20.69,87.4,24.08,86.42Z"/><path class="cls-3" d="M59.27,104.19c6.11-7.36,14-12.52,22-17.4,3.43,1.5,5.27,3.64,3,7.44C76.7,99.39,68.68,103.56,59.27,104.19Z"/><path class="cls-4" d="M56.85,16c.43-.24,1-.78,1.27-.66,5.83,2.22,13.11,3.13,17,7.23,3.53,3.71,5.49,10,6.35,16.14.82,5.81-.28,11.47.44,17.15a3.31,3.31,0,0,1-1.32,3c-.7.68-1.86,1.39-1.91,2.16-.5,6.73-6.34,7.53-10.75,10-2.51,1.4-4.66,4.37-7.83,1.19-1.5.12-1.45-.92-1.43-1.93,3.21-4.15,6-8.63,10.2-12s3.62-5.81-1-8.37a9.12,9.12,0,0,1-3.82-4.45c-2.11-4.65-6-7.33-10.33-9.45S46,35.34,43.49,39.44s-4,8.89-8.78,11.65c-2.5,1.44-1.47,4.9.73,6.37,5.2,3.48,7.31,9.25,11,13.81-.13.81-.49,1.33-1.43,1.07a9.57,9.57,0,0,0-2-.21c-10,1-15.79-4.45-17.22-14.22a86.49,86.49,0,0,1-1-11.11A14.82,14.82,0,0,1,27.05,38c.89-.52,1.18-1,0-1.6-1.16-6.34,4.58-15.79,10.79-17.67a9.19,9.19,0,0,0,4-1.84c2.24-2.07,10.66-2.43,13.55-.82C55.9,17,56.4,17.32,56.85,16Z"/><path class="cls-5" d="M45,72.34l1.06-1.09c4.29-1.35,8.75-.44,13.1-1a2.18,2.18,0,0,0,.89,2l-.87,1L45,76.13C45,74.87,45,73.6,45,72.34Z"/><path class="cls-6" d="M56.85,16c.43.17,1.1.23,1.23.53.27.62-.54.72-.75.59-.63-.4-2.41,1.19-1.95-1.08Z"/><path class="cls-7" d="M27.07,36.41l.54-1.21c.19.31.6.78.51.91-.4.61,1.16,2.38-1.07,1.9Z"/><path class="cls-8" d="M59.2,70.22c-4.15,3.1-8.65,1.7-13.1,1a18.31,18.31,0,0,1-6.23-7.63,7.66,7.66,0,0,0-4.1-4.1c-2.92-1.43-3.75-4-3.62-7.07.11-2.77,2.78-2.69,4.12-4A23,23,0,0,0,42,39.23c1-3,3.83-3,5.26-4.86,2.31-3,3.83-.71,6.12.16,5.69,2.17,9.77,5.6,12.19,11.2a5.77,5.77,0,0,0,2.82,3.33c5.26,2.23,6.68,5.5,2.61,8.7C66.36,61.41,64.11,67,59.2,70.22Z"/><path class="cls-9" d="M50.94,58c-3.61-2.82.28-6-.31-8.91C52.47,52,49.13,55.09,50.94,58Z"/><path class="cls-10" d="M49.19,62.36,55,61.64C53.22,64.92,51.1,62.8,49.19,62.36Z"/><path class="cls-11" d="M46.2,49c-.18.93-.19,1.67-1,1.64s-.91-.74-.92-1.35c0-.8.11-1.72,1.19-1.5C45.81,47.91,46,48.76,46.2,49Z"/><path class="cls-12" d="M68.12,54.13a8.63,8.63,0,0,1,1.45-1.49c.45-.26,1,0,.84.63a4.19,4.19,0,0,1-1,1.54C69.32,54.88,68.72,54.46,68.12,54.13Z"/><path class="cls-13" d="M57.45,49.39A1.12,1.12,0,0,1,58.36,48c.23,0,.77.53.77.82,0,.59-.14,1.56-.47,1.68C58,50.72,57.61,50.05,57.45,49.39Z"/><path class="cls-14" d="M36.77,53.58c.09.73-.1,1.24-.66,1.13-.33-.06-.65-.61-.79-1-.07-.2.25-.55.4-.83Z"/><path class="cls-15" d="M56.78,43.73c1.51-.69,2.52-.81,3.55,0C59.3,44.48,58.29,44.34,56.78,43.73Z"/></g></g></svg>