<svg xmlns="http://www.w3.org/2000/svg" viewBox="0 0 104.95 104.88"><defs><style>.cls-1{fill:#feded1;}.cls-2{fill:#b880c9;}.cls-3{fill:#f3a683;}.cls-4{fill:#f3a783;}.cls-5{fill:#fdf3e7;}.cls-6{fill:#f4a683;}.cls-7{fill:#e0865f;}.cls-8{fill:#a8729d;}.cls-9{fill:#a7739b;}.cls-10{fill:#f4a682;}.cls-11{fill:#e7c8db;}.cls-12{fill:#b584c5;}.cls-13{fill:#e99571;}.cls-14{fill:#e5916b;}.cls-15{fill:#a3675e;}.cls-16{fill:#e2936c;}.cls-17{fill:#e3916d;}.cls-18{fill:#2e1a39;}.cls-19{fill:#533043;}</style></defs><g id="Layer_2" data-name="Layer 2"><g id="Layer_1-2" data-name="Layer 1"><path class="cls-1" d="M19.06,92.77C-5.76,72.7-6.34,35,17.32,13.75,27.4,4.72,39,.07,52,0c21-.11,40.42,11.83,48.77,32.37,7.73,19,4.49,36.68-7.55,52.9-2.32,3.12-5.47,5.63-8.24,8.42-2.2-7.77-9.27-7.72-15.22-9.47a21.06,21.06,0,0,1-2.23-.48c-3.89-1.51-8.68-2.16-7.82-8.19,2.09-2.68,5.1-2,7.85-2.09,9.07-.31,11.09-2.39,11.18-11.4a44.93,44.93,0,0,0-9.16-28c-4.31-5.6-10.29-11.89-19.06-10.67-8.95,1.25-14.62,6.81-17.31,15.31-2.82,8.89-5.66,17.81-5.75,27.25-.06,5.93,1.37,7.27,7.37,7.48,3.31.12,6.62.81,9.94.1a1.89,1.89,0,0,1,1,1.17c-.7,5.92-1.84,7.06-9,9a11.75,11.75,0,0,1-1.45.34C29.08,85.5,22.67,86.52,19.06,92.77Z"/><path class="cls-2" d="M79.29,97C64,106.61,48,107,31.54,100.48a56.7,56.7,0,0,1-6.46-3.57c1.93-2,4.45-1.46,6.82-1.55q.9,0,1.8,0a217.23,217.23,0,0,0,36.87.38,16.72,16.72,0,0,1,2.72-.34C75.44,95.38,77.66,95,79.29,97Z"/><path class="cls-3" d="M31.88,96.71l-6.8.2-6-4.14c.05-3.42,1.92-5.3,5-6.6A55.28,55.28,0,0,1,35,82.94C36.23,88,34.36,92.44,31.88,96.71Z"/><path class="cls-4" d="M79.29,97l-6.23-.18C70.16,92.62,68.36,88.21,70,83c3.49,1,7,1.84,10.46,3,3.61,1.21,5.4,3.72,4.54,7.67Z"/><path class="cls-5" d="M45,73.76c-1,1-1.94,2.57-3.71,1.86-2.9-1.16-5.9-.77-8.88-.85-4.3-.12-6.19-2.35-6.34-6.61-.33-9,2.33-17.33,4.67-25.8,1.55-5.65,3.34-11,8.08-15,8.67-7.25,14.87-6.6,24.23-.52C77,35.92,79.2,49.68,80,64.25c.39,7.34-2.68,10.1-10,10.53-3.28.19-6.68-.77-9.81,1-1.49-.42-1.92-1.59-2.12-2.94a6.21,6.21,0,0,1,.18-2.23C61,66.31,63.93,62.13,68,58.84c4.83-4,4.57-5.82-.26-9.53-3.11-2.38-3.93-6.37-5.27-9.9-.29-1.46,1-2.59.87-4-1.61.06-2.22,1.82-3.68,2.07A7,7,0,0,1,53.56,36c-2.83-2.46-4.23-.89-6.54,1-4.85,4-7.21,10.2-12.67,13.65-2.14,1.36-1.05,5.72,2.26,8,4,2.76,5.57,7.32,8.67,10.72a3.52,3.52,0,0,1,.55,3.32A2.41,2.41,0,0,1,45,73.76Z"/><path class="cls-6" d="M59.06,72.78l1.08,3c.16,5.13,4.45,5.6,7.91,7,2,4.46,3.89,9,3.13,14-1.06,1.08-2.43.92-3.74.89-11.4-.23-22.84.81-34.21-.92a36.3,36.3,0,0,1,3-14c4.53-1,8.19-2.9,8.93-8.07C49.64,72.74,54.38,73,59.06,72.78Z"/><path class="cls-7" d="M59.06,72.78c-4.37,2.4-9.13,2.1-13.86,1.94a7.48,7.48,0,0,0-.24-1c.09-.33.19-.65.28-1,.43-1.18.58-2.89,2.3-2.6,3.8.65,7.69-.85,11.43.62Z"/><path class="cls-8" d="M36.27,82.79q-1.53,7-3,14l-1.35,0Q33.41,89.83,35,82.93Z"/><path class="cls-9" d="M71.18,96.78q-1.56-7-3.13-14L70,83l3.09,13.76Z"/><path class="cls-10" d="M59,70.81c-3.49,1-7,1.62-10.56.51-1.81-.57-2.28.64-3.17,1.47a27.6,27.6,0,0,0-8.78-12.41c-2.39-2-4.36-4-4.45-7.33,0-1.16-.17-2.58.87-3.23C39.49,45.7,43,38.61,48.49,33.46c1.56-1.46,2.27-1.4,3.49-.08,2.16,2.32,5,3.15,8,3.41a3.82,3.82,0,0,1,1.62.36A2.76,2.76,0,0,1,63,38.85l3.77,7.54c.42.85.53,1.78,1.63,2.29,5.46,2.54,6.57,6.6,1.88,9.91S63.2,67.21,59,70.81Z"/><path class="cls-11" d="M63,38.85l-1.9-1.25c.38-2.26,1.53-3.72,4-3.83C65.44,35.91,64.06,37.32,63,38.85Z"/><path class="cls-12" d="M65.05,33.77a12.48,12.48,0,0,0-4,3.83L60,36.79C61.64,35.72,61.71,32,65.05,33.77Z"/><path class="cls-13" d="M50.6,57.55c-2.73-3-.11-6.11.48-9.17C52.25,51.43,49.57,54.5,50.6,57.55Z"/><path class="cls-14" d="M48.84,62.39c2.41-.54,3.85-1.32,6.71-.2C52.93,62.66,51.73,64.16,48.84,62.39Z"/><path class="cls-15" d="M43.47,43.89c.16-.93.85-1,1.48-1,.82,0,1.78.08,1.59,1.2,0,.3-1,.55-1.64.6S43.58,44.71,43.47,43.89Z"/><path class="cls-16" d="M36.79,53.58c0,.81-.32,1.53-1,1.45-1-.11-.75-1.2-1-1.88-.09-.27.28-1,.44-1C36.2,52.18,36.56,52.9,36.79,53.58Z"/><path class="cls-17" d="M69.19,55a1.17,1.17,0,0,1-.83-1.5c.11-.39.64-1,1-.94.89.06.71.89.7,1.49S69.91,55,69.19,55Z"/><path class="cls-18" d="M57.42,49.68c0-.87.12-1.54.84-1.7,1.06-.22.86.74.84,1.23s.1,1.45-.9,1.24C57.86,50.39,57.61,49.88,57.42,49.68Z"/><path class="cls-19" d="M45,50.59c-.88-.2-.94-.85-.89-1.47s.23-1.34,1.09-1.25.83.82.77,1.43S45.87,50.61,45,50.59Z"/></g></g></svg>