<svg xmlns="http://www.w3.org/2000/svg" viewBox="0 0 104.88 104.7"><defs><style>.cls-1{fill:#feded1;}.cls-2{fill:#d9ddea;}.cls-3{fill:#3d2947;}.cls-4{fill:#f4a682;}.cls-5{fill:#3c2745;}.cls-6{fill:#f2a683;}.cls-7{fill:#b7c2e0;}.cls-8{fill:#b7c1e0;}.cls-9{fill:#e18861;}.cls-10{fill:#e6e6f5;}.cls-11{fill:#faeee7;}.cls-12{fill:#e5926d;}.cls-13{fill:#e2875f;}.cls-14{fill:#e8956f;}.cls-15{fill:#e7936f;}.cls-16{fill:#492c43;}.cls-17{fill:#58344d;}.cls-18{fill:#2e1a3a;}.cls-19{fill:#3f203b;}</style></defs><g id="Layer_2" data-name="Layer 2"><g id="Layer_1-2" data-name="Layer 1"><path class="cls-1" d="M12,84.89A47.72,47.72,0,0,1,.26,48.08,52.4,52.4,0,0,1,13.63,17.23C21.28,8.79,30.46,3.13,41.48,1.09,67.53-3.75,89.53,7.73,100.7,31.42c7.7,16.35,4.56,41.83-7.77,53.52a3.72,3.72,0,0,1-3.27.71c-7.72-2.76-15.84-4.49-23-8.84a20.43,20.43,0,0,1-4.6-6.34,11.11,11.11,0,0,1-.17-5.55c3.12-5.8,5.26-12.25,10.86-16.42a4.16,4.16,0,0,0,1.61-4.9C71.89,38.25,73.33,32.43,72,27,68,13.73,56.57,7.91,44.07,13.87,37.53,17,31.77,22,32.24,30.76a23.6,23.6,0,0,1-.35,7c-3.94,6.43-3.79,7.43,2,12.74a5.31,5.31,0,0,1,1.8,2.31c1.21,4.7,4.65,8.26,6.34,12.7a13.3,13.3,0,0,1-.1,4.45,6.2,6.2,0,0,1-.54,1.37c-1.83,2.26-3.26,4.86-5.58,6.72C29.14,81,22,82.58,15.25,85.42A3.17,3.17,0,0,1,12,84.89Z"/><path class="cls-2" d="M67,75.88a141.93,141.93,0,0,0,25.94,9.06c-8.05,11-19.17,16.8-32.42,18.94-1.95.32-3.91.54-5.87.81-2-4.08-1.09-8,.83-11.75C59.33,87.27,62.83,81.35,67,75.88Z"/><path class="cls-2" d="M12,84.89l23.9-8C40.77,82,44.32,88,47.66,94.2a6.22,6.22,0,0,1,.78,2.62,19.14,19.14,0,0,0,0,5.9,1.77,1.77,0,0,1-.53,1.18C33,103.11,21.18,96.44,12,84.89Z"/><path class="cls-3" d="M47.86,96.91c-.31-.68-.63-1.36-1-2-1.49-3.72-.42-7.15,1.14-10.53,2-2.48,4.19-2.52,6.54-.49a14.1,14.1,0,0,1,2.19,9.27c-2.83,3.47-1.54,7.69-2.14,11.57-2.26-.22-4.64.5-6.77-.79l-.08-1.06A10.32,10.32,0,0,1,47.86,96.91Z"/><path class="cls-4" d="M41.12,65.91c-4.66-4.89-4.69-12.63-11-16.76-3.83-2.5-2.84-8,1-11.31,3.31-3.06,3.95-7.55,6-11.3,1.91-3.52,3.8-6,8.39-5.18,2.75.47,5.64-.45,8.27-1.43,3.47-1.3,6-.13,8.59,2.1,4.36,3.8,6.7,8.86,8.87,14.37,1.16-3.35-.81-6.82,2-9.36,1.3,2,.66,4.18.75,6.29.11,2.77-.15,5.38,1.48,8.09,1.44,2.4,1.35,5.91-1.32,7.69-4.72,3.13-6.46,8.14-9.11,12.62a35.8,35.8,0,0,1-2.36,3.18L61.81,66a11.61,11.61,0,0,1-5.28,3C50.86,70.64,45.83,69.08,41.12,65.91Z"/><path class="cls-5" d="M73.19,27c0,3.3-.07,6.61-.12,9.92,0,1.24-.28,2.46-1.81,2.43S70.22,38,70,37.11a32.42,32.42,0,0,0-8-14.09c-2.25-2.27-4.61-3.56-8-1.81a11.32,11.32,0,0,1-7.73,1.29c-4.71-1.19-6.66,1.34-8.21,4.9A102.92,102.92,0,0,0,34.1,37c-.73,2.29-1.52,2.2-3,.81-.08-2-.23-4-.25-6-.13-11,7.4-19.65,18.19-20.87C63.11,9.42,70.36,14.24,73.19,27Z"/><path class="cls-6" d="M61.77,65c.29,0,.57-.09.86-.12q.15,2.94.31,5.88a25.73,25.73,0,0,1-9.11,12.85,7.34,7.34,0,0,0-4.61.06c-3.92-3.55-7.29-7.47-8.63-12.76l.38,0c1.79-1.61,4-1.58,6.14-1.38a31.59,31.59,0,0,0,10.75-.88C59.67,68,61.23,67.07,61.77,65Z"/><path class="cls-7" d="M40.59,70.94c2.93,4.21,6.3,8.14,8.63,12.76-.53,3.77-2.87,7.17-2.31,11.17-3.18-6.3-8.16-11.51-11-18C37.42,74.88,38.47,72.49,40.59,70.94Z"/><path class="cls-8" d="M53.83,83.64l9.11-12.85c2,1.2,2.63,3.44,4,5.09-1.69,6.76-7,11.37-10.21,17.24Q55.3,88.38,53.83,83.64Z"/><path class="cls-9" d="M59,68.91c-5.77,2.77-11.94,1.87-18,2l.15-5c1.72-1.27,2.65.51,3.9,1A19.36,19.36,0,0,0,57,67.9C57.51,68.48,58.55,68.08,59,68.91Z"/><path class="cls-10" d="M47.86,96.91c.9,2,.22,4-.07,5.93A4.81,4.81,0,0,1,47.86,96.91Z"/><path class="cls-11" d="M52,54.93c1.41.72,4.23-1.09,4.3,1.5,0,2-2.49,3.14-4.54,3s-5.17-.83-4.92-3.14S50.21,55.53,52,54.93Z"/><path class="cls-12" d="M51.6,37.54c1.22,4.7-3.29,8.85,0,12.84C48.08,50,47.94,46.13,51.6,37.54Z"/><path class="cls-13" d="M59,68.91a2.14,2.14,0,0,1-2-1L61.77,65C62.15,67.27,62,69.11,59,68.91Z"/><path class="cls-14" d="M30.25,42.37c2-.14,2.84.75,3,2.15a1,1,0,0,1-1.38,1C30.43,45,30.41,43.71,30.25,42.37Z"/><path class="cls-15" d="M73.27,42.74c-.25,1.94.12,3.5-1.76,4-.31.08-1.07-.38-1.09-.64C70.27,44.27,71.68,43.82,73.27,42.74Z"/><path class="cls-16" d="M45,39.74c-.12.71,0,1.76-1.11,1.83-1.23.09-1-1-1-1.78S43,38,44.11,38.11C44.88,38.19,45,39,45,39.74Z"/><path class="cls-17" d="M56.64,34.52c1.28-1.68,2.55-1.72,4-.5C59.42,35.78,57.88,34.34,56.64,34.52Z"/><path class="cls-18" d="M58.71,41.87a2.43,2.43,0,0,1-.43-3.61,1.38,1.38,0,0,1,1.12.29C60.13,39.63,59.68,40.6,58.71,41.87Z"/><path class="cls-19" d="M45.93,34.53c-1.36.27-2.45.52-3.77-.34C43.63,32.91,44.7,33,45.93,34.53Z"/></g></g></svg>