<svg xmlns="http://www.w3.org/2000/svg" viewBox="0 0 104.85 104.39"><defs><style>.cls-1{fill:#feded1;}.cls-2{fill:#d9dde9;}.cls-3{fill:#d9ddea;}.cls-4{fill:#fc0466;}.cls-5{fill:#f4a682;}.cls-6{fill:#3b2645;}.cls-7{fill:#f3a683;}.cls-8{fill:#b8c1e1;}.cls-9{fill:#b7c2e1;}.cls-10{fill:#e18861;}.cls-11{fill:#e99570;}.cls-12{fill:#e4906d;}.cls-13{fill:#381f39;}.cls-14{fill:#5d3d4b;}.cls-15{fill:#845250;}.cls-16{fill:#92675c;}.cls-17{fill:#e3926d;}.cls-18{fill:#372341;}.cls-19{fill:#e38e67;}.cls-20{fill:#faae95;}</style></defs><g id="Layer_2" data-name="Layer 2"><g id="Layer_1-2" data-name="Layer 1"><path class="cls-1" d="M11.58,83.57c-7-5.7-9.35-13.94-10.74-22.13-2.48-14.58.5-28.26,9.48-40.32C19.18,9.22,31,2.41,45.75.49,62.63-1.7,77.19,3.49,89.32,15A48.41,48.41,0,0,1,104.48,45.5c1.5,13.8-1.57,26.66-9.92,38a3.29,3.29,0,0,1-3.29.58c-7.51-3-15.69-4.26-22.8-8.39a20.73,20.73,0,0,1-5.5-7,7.87,7.87,0,0,1-.48-2.2,10.2,10.2,0,0,1,0-2.21C65.63,58.5,67.71,52.1,73,47.74c4.44-3.63,2.57-7.58.56-11.54-.62-3.73,0-7.54-.76-11.28C71.22,17.27,67.21,12.07,59,11c-2.83-.18-5.65-.07-8.47-.09-12,1.13-17.7,8.19-17.63,21.93a10.13,10.13,0,0,1-1.22,5.25c-2.5,4.2-2,6.06,1.5,9.37,5.39,5.13,8.34,11.61,9.71,18.87a9.47,9.47,0,0,1-.54,3,18.78,18.78,0,0,1-5.93,6.89c-6.74,3-14,4.69-20.7,7.82A3.77,3.77,0,0,1,11.58,83.57Z"/><path class="cls-2" d="M11.58,83.57c4.42-.07,7.89-2.92,12-4,4.4-1.22,8.73-2.67,13.09-4,4.27,2.52,5.7,7.31,8.66,10.88a33,33,0,0,1,3.41,5.35c2.42,4.2,2.95,8.42.1,12.66C34.74,104,23.58,97.33,13.72,88A7.16,7.16,0,0,1,11.58,83.57Z"/><path class="cls-3" d="M68.54,74.61a205.72,205.72,0,0,0,26,8.91c-9.79,12.38-22.23,19.89-38.25,20.81-3.47-4.27-1.8-8.43.23-12.59C60.53,86,63.48,79.58,68.54,74.61Z"/><path class="cls-4" d="M57.73,91.5c-2.74,4-2,8.43-1.42,12.83l-7.51.06c.48-4.4,1.48-8.85-1.35-12.9A12.64,12.64,0,0,1,50.61,81a4.14,4.14,0,0,1,4,0C57.12,84.06,58.56,87.44,57.73,91.5Z"/><path class="cls-5" d="M74.42,36.51c3.92,5.08,4.16,8.43-.29,11.9-5.48,4.26-7,10.83-10.64,16.12-5.69,3.22-11.6,4.6-17.87,1.81-1.39-.62-2.54.2-3.81.17-1.7-6.73-4.09-13.16-9.51-17.83-3.94-3.4-4.72-7.17-1.47-11.34,1.2-1.55.44-3.19,1-4.7,1.11-.1,2.58,2.26,3.29-.8a31,31,0,0,1,4.46-9.42C41,20.2,42.86,19.23,45.48,20c3.22.89,6.57,1,9.82,1.59,8.33,1.51,13.19,7.15,16.4,14.52.25,1.81,1,.28,1.6.24A1.12,1.12,0,0,1,74.42,36.51Z"/><path class="cls-6" d="M71.54,37.67c-1.45-2.39-2.79-4.85-4.37-7.14-3.29-4.75-7.74-7.57-13.65-7.9a14.8,14.8,0,0,1-5.35-.85c-4.92-2.29-7.55-.31-9.32,4.22-1.47,3.8-3.17,7.51-4.77,11.28-2.53-.81-1.07-3.35-2.26-4.64-.92-6.55.72-13,5-17.41,3-3.09,7.6-6,12.88-5.61a26.48,26.48,0,0,0,9.92.07c7.72.8,12,5.44,14,12.58,1.3,4.68,1,9.46.85,14.23a5.5,5.5,0,0,0-.72.23c-1-1.62-.64-3.2-.09-5.27C72.53,33.64,74.06,36.46,71.54,37.67Z"/><path class="cls-7" d="M54.59,81.66H50.65c-5.09-2.73-8.81-9-7.58-12.8,6.83-.7,13.59-2,20.44-2.41l.35,2.19C62.31,74.08,59.82,78.84,54.59,81.66Z"/><path class="cls-8" d="M42.47,69.61c2,4.5,5.41,8.06,8.18,12q-1.59,4.92-3.2,9.83l-10.82-16c1.11-2.49,3.17-4.19,5-6C42,69.16,42.27,69.21,42.47,69.61Z"/><path class="cls-9" d="M54.59,81.66l9.27-13,4.69,6c-2.91,6.08-6.92,11.45-10.82,16.89Q56.16,86.58,54.59,81.66Z"/><path class="cls-10" d="M42.47,69.61l-.81-.16.15-2.94c1.06-.53.44-3.37,2.95-2,5.49,3.08,11,2.81,16.42-.28.85-.48,1.57-.08,2.31.27,0,.64,0,1.28,0,1.92A54.57,54.57,0,0,1,42.47,69.61Z"/><path class="cls-11" d="M53.53,49.15c-5-.06-5.23-3.49-.7-13.54C54.48,40.34,48.69,45.14,53.53,49.15Z"/><path class="cls-12" d="M56,52.25c-1.71,2.72-3.77,4.11-7.3,2Z"/><path class="cls-13" d="M71.54,37.67c1.42-1.8.74-4.14,1.82-7.23.15,2.85.25,4.57.34,6.29C73.13,37.38,72.84,38.67,71.54,37.67Z"/><path class="cls-14" d="M59.75,35.49c1.34,1.93,1.41,3.25.24,4.49a.93.93,0,0,1-.87-.13C58,38.46,58.54,37.27,59.75,35.49Z"/><path class="cls-15" d="M62,32.75c-1.59.52-3.19,1.06-5.42-.12C58.91,31.55,60.49,33.55,62,32.75Z"/><path class="cls-16" d="M42.63,33.57c1.65-.9,3.25-4.29,5-.09A6,6,0,0,1,42.63,33.57Z"/><path class="cls-17" d="M31.36,41c1.57.15,2.52.75,2.51,2,0,.29-1.11.93-1.49.79C31.05,43.34,31.89,41.92,31.36,41Z"/><path class="cls-18" d="M45.1,36.12c1.33,1.29,1,2.54.09,3.77a1.05,1.05,0,0,1-.83-.25C43.37,38.25,43.51,37.06,45.1,36.12Z"/><path class="cls-19" d="M72.69,44.56c-.35-.73-.77-1.23-.65-1.42a2.84,2.84,0,0,1,1.28-1.22c.54-.19.8.36.56.87A17.63,17.63,0,0,1,72.69,44.56Z"/><path class="cls-20" d="M42.63,33.57l5-.09C46,35.05,44.32,34.94,42.63,33.57Z"/></g></g></svg>