<svg xmlns="http://www.w3.org/2000/svg" viewBox="0 0 104.93 104.85"><defs><style>.cls-1{fill:#feded1;}.cls-2{fill:#23698b;}.cls-3{fill:#2e8cbc;}.cls-4{fill:#9b4345;}.cls-5{fill:#3b2644;}.cls-6{fill:#9a4345;}.cls-7{fill:#773334;}.cls-8{fill:#301937;}.cls-9{fill:#efe5e2;}.cls-10{fill:#89383a;}.cls-11{fill:#593043;}.cls-12{fill:#873737;}.cls-13{fill:#592e41;}.cls-14{fill:#452845;}.cls-15{fill:#903940;}.cls-16{fill:#3c2843;}.cls-17{fill:#7e3432;}</style></defs><g id="Layer_2" data-name="Layer 2"><g id="Layer_1-2" data-name="Layer 1"><path class="cls-1" d="M12.5,86.57C5.26,77.35.49,67,0,55.25A51.88,51.88,0,0,1,9.6,22.42C25.51.12,53.16-5.93,76.53,6c21.91,11.2,33,34.13,26.59,60.14A46.89,46.89,0,0,1,92.28,86.58c-5.43-.09-9.88-3.36-15-4.64-3.34-.84-6.57-2.11-9.85-3.17-1.5-.58-3.1-1-4.21-2.26a17.15,17.15,0,0,1-1.44-11.07c3.62-5.42,5.49-11.92,10.9-16.3,3.86-3.12,2-6.77-.64-9.94-.1-3.77.94-7.59-.49-11.31-1.49-9.87-6.83-14.17-16.66-15-9.07-.82-15.21,3.29-20.49,9.75-3.14,3.86-2.12,8.52-2.31,12.93a7.38,7.38,0,0,1-1.34,4.7c-3,3.72-1.37,6.41,1.46,9.43,5,5.34,8.84,11.44,9.87,18.92a16.49,16.49,0,0,1-.41,3.84,14.32,14.32,0,0,1-1.55,4.35,11.59,11.59,0,0,1-4.13,2C28.06,81,20.52,84.5,12.5,86.57Z"/><path class="cls-2" d="M35.78,77.62l3.92-1.43c1.86-1.08,3.81-.57,5.76-.36a46.86,46.86,0,0,0,13.22-.36A8,8,0,0,1,64,76.1l3.85,1.54a2.48,2.48,0,0,1,0,2.39c-4.09,8.13-6.92,16.88-12.08,24.48a18.94,18.94,0,0,1-7,0A6,6,0,0,1,46,101.78C42.83,95.32,39.33,89,36.58,82.31,36,80.85,35,79.36,35.78,77.62Z"/><path class="cls-3" d="M55.74,104.51c3.1-9.37,7.76-18,12.06-26.87,8.37,2.41,16.72,4.88,24.48,8.94C82.53,97.51,70.63,104.06,55.74,104.51Z"/><path class="cls-3" d="M35.78,77.62l13,26.91c-14.71-.67-26.44-7.38-36.24-18C19.64,82,27.91,80.33,35.78,77.62Z"/><path class="cls-4" d="M41,68.59a8.26,8.26,0,0,0-2.08-6.29C35.28,58,34.45,52,29.29,48.35c-2.63-1.85-3.19-6.22.68-8.89,1.4-1,.75-2.4,1.1-3.6.86-.21,2,.46,2.49-.93s1.11-2.43,1.53-3.67c2.38-7.08,6.52-11.45,14.69-9.93a2.66,2.66,0,0,0,1.48-.11c8.39-3.71,12.43,1.45,16.29,7.64,2,3.15,2.54,6.82,4.42,9.94l1,.81c3.91,2.85,4.88,7.22,1,10.12-4.26,3.16-5.91,7.53-8.41,11.61a25.34,25.34,0,0,1-2.88,3.28c-.35.64-.63,1.32-1,1.95-4.5,4.82-10.15,3.57-15.56,2.62C44.4,68.88,42.76,68.28,41,68.59Z"/><path class="cls-5" d="M71.81,39.65c-1.9.78-1.8-.79-1.94-1.78-.77-5.14-3.79-9.16-6.73-13.13-2.26-3.07-5.08-5.16-9.35-2.77-2.5,1.4-5.56,1-8.32.71-3.6-.39-5.45,1.08-6.88,4.21-1.85,4.05-4,8-5.09,12.3-2.59-.11-1.12-2.64-2.43-3.33C27.55,16.48,48,7.15,62.8,13c6.49,2.55,9.55,7.83,10,14.7C72.35,31.64,73.45,35.76,71.81,39.65Z"/><path class="cls-6" d="M61.66,65.85l1-1.23c-.35,3.91.52,7.69,1.26,11.48-8.08,1.73-16.16,2.51-24.25.09l1-3.58c1.27-2.24,3.46-2.32,5.63-2.33a60.17,60.17,0,0,0,9.39-.66C58.26,69.21,60.66,68.61,61.66,65.85Z"/><path class="cls-7" d="M61.66,65.85c.25,2,.18,3.36-2.41,4-4.21,1-8.32,2.17-12.71,1.85a9.39,9.39,0,0,0-5.79,1c.07-1.34.14-2.68.22-4,.94-1,1-3.08,3.49-1.69C50.29,70.1,56.13,69.61,61.66,65.85Z"/><path class="cls-8" d="M71.81,39.65c.49-4-1.07-8.14,1-12,1.23,4,.6,8,.21,12Z"/><path class="cls-9" d="M53.79,55.61c.9.54,2.64-.43,2.76,1.2.05.68-1,1.61-1.7,2.13-3.28,2.31-6.53.94-8-3.26A10.5,10.5,0,0,1,53.79,55.61Z"/><path class="cls-10" d="M52.33,52c-4.32-2.05-4.27-5.51-.26-16C53.27,41.94,48.25,46.74,52.33,52Z"/><path class="cls-11" d="M56,35.31c2-2.19,3.48-1.78,5.29-.76C59.56,36.25,58.07,35.52,56,35.31Z"/><path class="cls-12" d="M30.75,42.51c1.41,1.19,3,1.56,2.15,3.27a1.32,1.32,0,0,1-1.2.43C30.52,45.44,30.4,44.25,30.75,42.51Z"/><path class="cls-13" d="M40.82,35.7c1.92-2.38,3.17-2.3,4.74-1.3C44.5,36.36,43,35.26,40.82,35.7Z"/><path class="cls-14" d="M43.59,42.11A1.74,1.74,0,0,1,42.92,40c.14-.75.69-1.22,1.3-.79a2.38,2.38,0,0,1,.54,1.71C44.76,41.56,44.46,42.19,43.59,42.11Z"/><path class="cls-15" d="M53.79,55.61l-6.91.07C49.16,53.79,51.47,54.26,53.79,55.61Z"/><path class="cls-16" d="M59.67,40.43c-.07.68-.3,1.38-1.07,1.42-1,0-.83-.8-.81-1.41s.12-1.42,1-1.42S59.7,39.74,59.67,40.43Z"/><path class="cls-17" d="M73.31,44.91l-1.45,1.32c-.26-.3-.76-.66-.71-.88a1.5,1.5,0,0,1,.87-.92C72.33,44.34,72.76,44.69,73.31,44.91Z"/></g></g></svg>