<svg xmlns="http://www.w3.org/2000/svg" viewBox="0 0 104.74 104.83"><defs><style>.cls-1{fill:#fde9de;}.cls-2{fill:#b6c1e2;}.cls-3{fill:#3c2846;}.cls-4{fill:#3c2746;}.cls-5{fill:#b7c2e0;}.cls-6{fill:#b8c1df;}.cls-7{fill:#e26c28;}.cls-8{fill:#f4a683;}.cls-9{fill:#f4a682;}.cls-10{fill:#e0875e;}.cls-11{fill:#e99874;}.cls-12{fill:#e28d67;}.cls-13{fill:#381a33;}.cls-14{fill:#7e4d4a;}.cls-15{fill:#e6926d;}.cls-16{fill:#e68e66;}.cls-17{fill:#40263a;}</style></defs><g id="Layer_2" data-name="Layer 2"><g id="Layer_1-2" data-name="Layer 1"><path class="cls-1" d="M18.76,91.78C10,85.66,4.79,77,2,66.92-5.29,40.27,7.69,14.11,33.35,3.54c19.9-8.2,43.86-1.48,57.31,13.26,19,20.77,17.6,48.57,2.9,68.28a33.72,33.72,0,0,1-7.79,7.66c-2.24-3-4.11-6.43-8.44-6.81-2.47-.65-4.88-1.49-7.31-2.27-2.18-1-4.61-.88-6.85-1.58-2.15-1.51-4.48-3-1.42-5.77,3.48.13,6.83,1.46,10.38,1.13,1.66-.16,3.9.19,4.71-1.15,3.94-6.48,12.42-10.86,9.8-20.5a15.52,15.52,0,0,1-.19-4,25.4,25.4,0,0,1,0-3.49c.83-5.88-6-8-6.5-13-.62-5.79-4.09-8.34-9.24-9.61-2-.5-3.41-2-4.82-3.45-3.32-3.33-7.22-3.82-11.52-2.45-1.11.36-2.31,1.29-3.31,1-9.59-3.23-15,4.81-22.11,8.1a3.91,3.91,0,0,0-2.24,1.92C25,36,22.16,40.68,19.57,45.48a6.64,6.64,0,0,0,.06,5.38,26.36,26.36,0,0,1,1.49,10.3,7.39,7.39,0,0,0,4.55,7.6,5.22,5.22,0,0,1,2.1,1.33c3.93,5.32,9.47,7.5,15.78,8.24,1,1.08.26,1.9-.41,2.73a15.35,15.35,0,0,1-4.21,1.84,70.48,70.48,0,0,1-9.28,2.25C25,85.74,22.1,89.09,18.76,91.78Z"/><path class="cls-2" d="M38.62,81.9a6.48,6.48,0,0,1,3.79-1.1c3.66,2.83,5,7.22,7.25,11,3.13,5.2,2.94,5.11,6.56.5,2.71-3.45,3.63-8.21,7.79-10.57a6.93,6.93,0,0,1,5.71.81c-2.28,4.74-2.69,9.81-2.54,15a17.83,17.83,0,0,1-.4,5.4,54.51,54.51,0,0,1-29,0c2-3.39,1.57-7,1.16-10.68C38.59,88.76,37,85.37,38.62,81.9Z"/><path class="cls-3" d="M38.62,81.9A89.22,89.22,0,0,1,40.85,100c.11,2.55-.82,3.2-3.05,2.88-2.36-1-5-1.34-7.11-3C29,94.64,26.55,89.57,29,84Z"/><path class="cls-4" d="M66.78,102.88c-2.62-6.64-.66-13.14.76-19.62.09-.39,1.43-.51,2.19-.75l7.93,2.32c1.52,4.93-.17,9.43-1.83,13.94C73.29,101.19,69.81,101.55,66.78,102.88Z"/><path class="cls-5" d="M29,84c-.09,5.34,2.17,10.43,1.68,15.81-4.7-1.59-8.93-3.88-11.93-8C20.38,86.82,24.64,85.33,29,84Z"/><path class="cls-6" d="M75.83,98.77c-.57-4.8.94-9.33,1.83-13.94,4.38.91,7.75,2.86,8.11,7.91C82.7,95.15,79.78,97.81,75.83,98.77Z"/><path class="cls-7" d="M43.77,78.77C37.26,79.67,33,76.29,28,72.49c-6.32-4.72-7.79-9.52-8.81-17-1-7.06-1.36-12.34,3.43-17.74,1.17-1.32.56-4.21,1.72-5.58,4.93-5.82,11.25-10.76,18.18-12.85,4.29-1.28,9.81.18,14.81-1.57,3.1-1.1,22.33,9.37,22.81,12.47.79,5.19,2.79,9.28,6.87,12.55.93.75,1,2.25,1,3.67a75.28,75.28,0,0,0,.55,13.31C89.6,67.5,77.18,79.48,69.33,78.88a15.56,15.56,0,0,1-7.58-2.09,3.87,3.87,0,0,1-3.27-3.44,7.58,7.58,0,0,1-.3-2.88c3.43-4,5.76-8.83,10.13-12.12s4-6.12-.46-9.07c-3.5-2.34-5.17-6.35-8.3-9.17-6.4-5.77-15-4.36-18.34,3.75-1.24,3-2.12,5.49-5.9,6.56s-2.07,4.17-.32,5.95c3.17,3.21,5.88,6.78,8.82,10.16,1.09,1.26,2.35,2.39,2.74,4.11A12.09,12.09,0,0,1,46,75C45.6,76.45,45.2,77.92,43.77,78.77Z"/><path class="cls-8" d="M43.77,78.77l1.11-4c4.78-1.66,9.59-3.2,14.76-1.95-.29,1.84,1.29,2.68,2.11,3.92-1.88,2.84,1,3.48,2.26,4.91L53.35,99.12A100,100,0,0,1,42.42,80.8Z"/><path class="cls-9" d="M45.84,70.69c-4.24-3.89-7.06-9-11.43-12.89s-3.27-7.52,2.5-9c2-.51,2.25-2,2.42-3.33A7.9,7.9,0,0,1,45,38.57a6.58,6.58,0,0,0,2-1.49c3.13-2.86,7.89-3.39,11-.41,2.21,2.16,4.81,4.06,6.62,6.48,1.94,2.6,2.9,5.51,6.89,6.2,2.39.41,2.41,6.7-.65,8.58-5.31,3.24-7.16,9.38-12.05,12.77C54.4,73.63,50.12,74.28,45.84,70.69Z"/><path class="cls-10" d="M45.84,70.69a21.7,21.7,0,0,0,12.84,0l1,2.17c-4.89.89-9.68,2.51-14.76,1.95Z"/><path class="cls-11" d="M51.4,47.53c.84,2.39.19,4.41-.49,6.42-.38,1.13,1.45,3.59-1.2,3.16-1.71-.27-.74-2.44-.26-3.77C50.09,51.54,49.3,49.33,51.4,47.53Z"/><path class="cls-12" d="M49.67,62l5.38-.62C52.88,63.3,51.26,62.6,49.67,62Z"/><path class="cls-13" d="M59.34,49c-.24.54-.29,1.43-1.09,1.22-.32-.08-.59-1-.58-1.53s-.05-1.47.94-1.22C59.28,47.68,59.46,48.34,59.34,49Z"/><path class="cls-14" d="M46.85,43.57c-1.17.91-2.15.78-4.25-.19C44.59,42.8,45.54,42.5,46.85,43.57Z"/><path class="cls-15" d="M35.48,51.68c.48.84.85,1.22.89,1.63s-.3.71-.48,1.07c-.32-.26-.8-.48-.91-.81S35.15,52.81,35.48,51.68Z"/><path class="cls-16" d="M68.65,52.61c.83-.32,1,.19,1,.63A1.55,1.55,0,0,1,69,54.33c-.52.28-.93-.15-.89-.67A3.05,3.05,0,0,1,68.65,52.61Z"/><path class="cls-17" d="M46,48.85c-.12.59,0,1.41-.84,1.44s-1-.72-.87-1.34.53-1.37.9-1.43C46.08,47.39,45.91,48.29,46,48.85Z"/></g></g></svg>