<svg xmlns="http://www.w3.org/2000/svg" viewBox="0 0 104.34 104.27"><defs><style>.cls-1{fill:#feded1;}.cls-2{fill:#3b2645;}.cls-3{fill:#2c1a37;}.cls-4{fill:#f4a682;}.cls-5{fill:#8d3d3e;}.cls-6{fill:#fbfafa;}.cls-7{fill:#e1865e;}.cls-8{fill:#2c1a35;}.cls-9{fill:#2d1b35;}.cls-10{fill:#2e1c34;}.cls-11{fill:#2e1a38;}.cls-12{fill:#eb9570;}.cls-13{fill:#e69270;}.cls-14{fill:#e89770;}.cls-15{fill:#92595f;}.cls-16{fill:#664353;}.cls-17{fill:#e3936d;}.cls-18{fill:#472947;}.cls-19{fill:#8c4e52;}</style></defs><g id="Layer_2" data-name="Layer 2"><g id="Layer_1-2" data-name="Layer 1"><path class="cls-1" d="M18.19,92.29C6.92,82.64.84,70.51.09,55.59-.49,44,1.64,33.05,8.21,23.41a52.42,52.42,0,0,1,93.47,45.36C99,76.94,94.28,83.47,89,89.88a4.05,4.05,0,0,1-3,1.51c-3.41-5.19-8.32-7.85-14.38-8.72-1.81-.26-3.55-.63-5.34,0-1.87,0-2.42-2-3.93-2.58C57.07,74.46,56.69,70,61.1,64.26c2.68-3.48,4.38-7.58,8.69-10,3.23-1.78,1.06-5.38.47-8.21,0-2.16.67-4.26.61-6.44-.08-3,1.06-4.83,4.16-5.88,4-1.35,5.35-4.64,3.79-7.74s-4.77-4.14-8.39-1.81c-2.38,1.53-4.2,1.29-6.37-.08-7-4.38-14.06-4.83-21.09-.29-2.57,1.66-4.25.42-6.25-.93-2.33-1.57-4.81-1.58-6.73.69s-1.88,5.07.22,6.77c5.21,4.23,4.31,10,4.72,15.52-3.11,6.25-2.85,6,2.58,10.93,3.5,3.18,5.18,8,8.35,11.62A6.63,6.63,0,0,1,46,72.18c-.79,2.63-1.05,5.52-3.39,7.44-1.47.92-3.17,1.07-4.78,1.52a27.23,27.23,0,0,0-3.32.81,12.27,12.27,0,0,1-1.31.39C26.78,83.49,21.19,85.93,18.19,92.29Z"/><path class="cls-2" d="M18.19,92.29c1.24-9.56,9.14-9.49,15.94-11,.73.57,1.49,1.11,1.52,2.17.08-1.15-.79-1.61-1.54-2.16.73-.9,1.78-.78,2.77-.84,1.8,1,1.56,2.81,1.54,4.38A16.11,16.11,0,0,0,43.1,96.89c-.14,1.63,1.14,1.42,2.13,1.63,1.17.26.48-.75.78-1.08,5.7-4.52,6-4.51,11.37.19-.32.78-.25,1,.79,1,1.28.1.95-.41.79-1.08,3.38-2.36,4.06-6.63,6.72-9.5.53,0,.68.68,1,.75s0-.35-.1-.5a22.69,22.69,0,0,1-1.11-4.13,2.3,2.3,0,0,1,.5-1.94c.18-1.21.44-2.28,2.11-1.82,4.41,1.23,8.88,2.2,13.15,4,3.27,1.34,3.52,4.43,4.76,7-5.68,6.9-13.48,9.88-21.86,11.78a2,2,0,0,0-1.33-.35c-.36,0-.73-.16-1.07.09a.79.79,0,0,1,.71.54c-1.3,1-2.8.87-4.3.75a29.43,29.43,0,0,0-11,.06C36,103.83,26.56,99.41,18.19,92.29Z"/><path class="cls-3" d="M62.43,103.45l-3-.53c2.17-.7,3.5-1,4.74.25Z"/><path class="cls-4" d="M45.29,68.32a14.77,14.77,0,0,1-4.21-4.09c-2.22-2.75-2.89-6.38-7-8.12-3.79-1.59-3.21-6.51.27-9.82,1.66-1.67,1.44-4,2-6,2.37-8.15,7.76-13,14.79-13.22,8-.23,13.56,4,16.3,12.55.81,2.54,1.45,5.12,3.77,6.79C74,52.15,72.45,53.89,68,57.15c-3.82,2.79-6.76,7.61-8.51,12.15-1.26,3.27.28,7.46,3.69,10a11.81,11.81,0,0,1-4.45,11.62c-3.12,2.32-8.85,2.35-12.21.08A11.45,11.45,0,0,1,42,79.39l3-7.17a60.68,60.68,0,0,1,9.31-1.12C51,71.16,47.75,71.05,45.29,68.32Z"/><path class="cls-5" d="M71.21,46.39c-2.57.43-3.67-.34-4.2-3.24-1.6-8.79-6.3-13.95-12.7-14.82-8.57-1.15-15.05,4.09-17.12,13.75-.37,1.73.43,4.41-2.87,4.21-.36-1.79-1.06-3.59-1-5.38.06-3.69-.16-6.62-3.92-9.12-3.17-2.11-3.08-6.13-.43-9.32,2.46-2.95,6.42-3,9.64,0,1.28,1.2,1.77,1.66,3.5.48,7.78-5.31,15.67-4.8,23.22.52,1.78,1.26,2.58,1.76,4.2-.28,2-2.46,4.92-2.79,7.71-1.26a6.82,6.82,0,0,1,3.56,7.61c-.56,3.14-2.17,5.8-5.87,5.67-2.36-.09-2.86.83-2.63,2.87C72.59,40.93,71.84,43.66,71.21,46.39Z"/><path class="cls-6" d="M42,79.39c1.89,8.77,4.24,11.73,9.61,12.09,6.49.44,9.71-3,11.56-12.16,2.13-.15,1.73,2.09,2.79,2.94.11.69.22,1.39.32,2.08.4,1.26.83,2.53-.28,3.67-1.4,4-2.09,8.59-7,10.2-.53.69-1,.74-1.55,0-.29-.16-.57-.33-.87-.46-4.31-1.83-6-1.75-10.68.43a1.37,1.37,0,0,1-2.39,0c-5.19-2.51-5.93-7.35-6.4-12.3-.18-1.78-.14-3.59-.2-5.38A8,8,0,0,1,42,79.39Z"/><path class="cls-7" d="M45.29,68.32c4.14,1.44,8.32,2.28,13.35.36-3.14,3.73-9.35,5-13.61,3.54C45.11,70.92,45.2,69.62,45.29,68.32Z"/><path class="cls-8" d="M43.48,98.12l2.39,0,1.54.88c-1.49,1.53-2.92,0-4.39-.08a1.41,1.41,0,0,1,.11-.48A1.45,1.45,0,0,1,43.48,98.12Z"/><path class="cls-9" d="M57.42,98.18l1.55,0,1.16.62a3.38,3.38,0,0,1-3.92-.06Z"/><path class="cls-10" d="M66,88l.28-3.67c1.39,1.29.82,3,.81,4.48,0,.7-.52.53-.8.09A3.27,3.27,0,0,1,66,88Z"/><path class="cls-11" d="M34.11,81.28c2.67.51,2,2.31,1.71,4.58l-1.69-4.59Z"/><path class="cls-12" d="M50.68,46.29c1.76,2.93-1.33,5.9.72,8.66.36.49-.64,1.15-1.3,1-1.39-.24-1.87-1.16-1.48-2.53C49.3,51.12,50,48.79,50.68,46.29Z"/><path class="cls-13" d="M55,59.45c-2.37,1.9-4.11,2.59-6.66.38Z"/><path class="cls-14" d="M70.77,49.66c-.75,1.67-.82,3-2.08,3.51-.25.11-1.12-.42-1.12-.66C67.55,51,68.47,50.16,70.77,49.66Z"/><path class="cls-15" d="M58.66,40.4c.62.16,1.41.37,1.14,1.14-.13.36-1,.58-1.53.67s-1.45.3-1.4-.61S57.86,40.51,58.66,40.4Z"/><path class="cls-16" d="M59.18,46.83c-.09.84-.16,1.8-1.26,1.79-.84,0-.83-.84-.83-1.49s.14-1.38.91-1.54C58.93,45.41,59,46.2,59.18,46.83Z"/><path class="cls-17" d="M34.48,49.37c1.42,1.38,3.07,2,1.63,3.27s-1.28-.44-1.47-1.21A19.65,19.65,0,0,1,34.48,49.37Z"/><path class="cls-18" d="M44.45,45.68c1.1,0,1.44.68,1.36,1.3s-.44,1.36-.87,1.51c-1,.34-.93-.66-.94-1.2A5.42,5.42,0,0,1,44.45,45.68Z"/><path class="cls-19" d="M42.79,42c1.43-1.17,2.56-.79,3.87-.28C45.31,42.85,44.18,42.35,42.79,42Z"/></g></g></svg>