<svg xmlns="http://www.w3.org/2000/svg" viewBox="0 0 104.9 104.5"><defs><style>.cls-1{fill:#feded1;}.cls-2{fill:#d9dde9;}.cls-3{fill:#f4a682;}.cls-4{fill:#f4a683;}.cls-5{fill:#8c3d3e;}.cls-6{fill:#e1875f;}.cls-7{fill:#833235;}.cls-8{fill:#9c5453;}.cls-9{fill:#faf8f5;}.cls-10{fill:#e69370;}.cls-11{fill:#352239;}.cls-12{fill:#452a43;}.cls-13{fill:#e6926a;}.cls-14{fill:#402c46;}.cls-15{fill:#e68e6a;}</style></defs><g id="Layer_2" data-name="Layer 2"><g id="Layer_1-2" data-name="Layer 1"><path class="cls-1" d="M12.68,85.63C6,79.32,2.68,71,1.05,62.43-1.77,47.49,1,33.28,10.54,21.12,22.92,5.38,38.88-2,59.31.45c28.46,3.38,48.44,29.06,45.26,57.82A47.66,47.66,0,0,1,92.66,85.63c-1.94,1.44-3.79.47-5.59-.29a56.31,56.31,0,0,0-9.39-3,35,35,0,0,0-8.29-3.23c-5.62-1.18-8.69-4.32-8.68-10.2a8.56,8.56,0,0,1,0-3.07c3.81-5.63,5.59-12.51,11.39-17,3.65-2.8,2-6.45-.22-9.64-1-4.91-.44-9.93-1-14.89-.34-3.17,2-5.67,3.48-8.11A10.75,10.75,0,0,1,63.8,15.07,14.36,14.36,0,0,0,57.72,13a15,15,0,0,0-9.51-.17c-8.27,1.14-15.31,7.91-16.45,15.84-1,2.38.11,4.7.17,7.05a6.85,6.85,0,0,1-.55,2.86c-4.35,5.1-4.1,7.16,1.08,11.69,4.45,3.9,5.32,10.05,8.91,14.53a5.52,5.52,0,0,1,.1,2.29c.74,7.61-3.09,11.5-10.29,12.74a24.66,24.66,0,0,0-4.13,1.57C22,82,17.88,85.6,12.68,85.63Z"/><path class="cls-2" d="M12.68,85.63c4.33-2.53,8.81-4.65,13.93-5,1.83.76,2.6,2.48,3.54,4A20.7,20.7,0,0,0,45.32,94.81c7.57,1.07,15.16,1.46,22.15-2.93a22.65,22.65,0,0,0,6.32-5.45c1.28-1.68,2-3.84,4.16-4.82,5.45-.67,9.52,3.72,14.71,4C72.92,110.8,33,110.8,12.68,85.63Z"/><path class="cls-3" d="M72.43,39.57c4,2.94,4.73,7.77.54,10.48-4,2.58-5.37,6.36-7.44,10-1.13,2-2.6,3.77-3.91,5.65-6.26,6.32-16.46,5.8-20.83-1.06-2.06-1-2.91-3.12-4-4.9-2.19-3.71-3.43-7.65-7.4-10.57-4.46-3.26-3.36-7.9,1.27-10.54,2.79-3.6,3.29-8.25,5.62-12.1,3.39-5.59,4.29-6.16,10.34-4.12a46.16,46.16,0,0,0,14.1,2.78c5.06.05,7.52,2.6,8.93,7C70.47,34.69,70.66,37.43,72.43,39.57Z"/><path class="cls-4" d="M78,81.61c-3.91,9.65-11.5,14.17-21.48,15C51.2,97,45.84,97.08,40.78,95A24,24,0,0,1,26.61,80.62c1.95-2,4.68-2.45,7.19-3.07,4.23-1,6.91-2.9,6-7.81a3.86,3.86,0,0,1,.8-3.28c4,6.58,9.88,2.85,15.07,2.69,2-.07,3.92-1.86,6.1-.53-.07,6.92,4.83,8.61,10.24,10C74.11,79.17,76.59,79.37,78,81.61Z"/><path class="cls-5" d="M72.43,39.57c-1.35,0-2.57.16-2.84-1.8A50.63,50.63,0,0,0,68,31.51c-1-3.58-2.84-5.4-7.08-5.13A36.46,36.46,0,0,1,44.52,23c-3-1.29-4.44-.39-5.87,2.2a58.54,58.54,0,0,0-4.76,10.37c-.53,1.63-.9,3.31-3.2,3,0-1,0-2,0-3,1-2.36,0-4.69-.08-7,.27-8.39,8.13-16.18,17.09-16.93,3.33.19,6.65.16,10,0a7.39,7.39,0,0,1,5.65,1.5c3.55,3,7.39,3.21,11.48,2.07.26.45.6.85.53.94C70,23.45,73.94,31.86,72.43,39.57Z"/><path class="cls-6" d="M61.74,68.62c-5.27,1.15-10.42,2.71-15.88,3.09-4.22.28-5.66-1.35-5.29-5.25.07-.61.14-1.22.22-1.83,6.66,6,13.69,4.64,20.83,1.05C61.66,66.67,61.7,67.64,61.74,68.62Z"/><path class="cls-7" d="M30.65,28.6a5.65,5.65,0,0,1,.08,7C30.26,33.3,29.75,31,30.65,28.6Z"/><path class="cls-8" d="M55.71,51.46c1.78.4,3.7,1.08,3.8,3s-1.95.94-3,1.38a11.65,11.65,0,0,1-10.64,0c-.94-.41-2.92.43-2.72-1.18.28-2.31,2.63-2.64,4.54-3.15C50.36,50.49,53,51.14,55.71,51.46Z"/><path class="cls-9" d="M45.87,55.83l10.64,0C52.28,61.09,49.53,61.09,45.87,55.83Z"/><path class="cls-10" d="M55.71,51.46l-8,0c1.15-4.69,1.09-9.67,3.16-14.47,1.74,2.22.34,4-.19,5.48C48.9,47.6,49.77,50.88,55.71,51.46Z"/><path class="cls-11" d="M43.15,42.08c-1.71-1.49-1.22-2.76.17-4.12C44.84,39.45,44.66,40.74,43.15,42.08Z"/><path class="cls-12" d="M58.13,37.91a2.71,2.71,0,0,1,.35,3.74,1.26,1.26,0,0,1-1.17-.09C56.38,40.32,56.67,39.18,58.13,37.91Z"/><path class="cls-13" d="M31.41,43a4.23,4.23,0,0,1,.95,1.36c.19.77-.44,1.16-1.15,1.16-.89,0-.92-.62-.9-1.32S30.09,42.86,31.41,43Z"/><path class="cls-14" d="M41.16,34.28c1.39-1,2.72-.75,4.46-.3C43.8,35.75,42.51,34.24,41.16,34.28Z"/><path class="cls-15" d="M70.05,45.18a5.17,5.17,0,0,1,1.1-1.1c.46-.27,1,0,.84.62a3,3,0,0,1-1,1.53C70.58,46.5,70.1,46.11,70.05,45.18Z"/></g></g></svg>