<svg xmlns="http://www.w3.org/2000/svg" viewBox="0 0 104.51 104.88"><defs><style>.cls-1{fill:#feded1;}.cls-2{fill:#3b2645;}.cls-3{fill:#2e8cbc;}.cls-4{fill:#2f1b37;}.cls-5{fill:#977f88;}.cls-6{fill:#fdeadd;}.cls-7{fill:#9b4345;}.cls-8{fill:#753233;}.cls-9{fill:#86393b;}.cls-10{fill:#843637;}.cls-11{fill:#863b3c;}.cls-12{fill:#703243;}.cls-13{fill:#462b3d;}.cls-14{fill:#412745;}.cls-15{fill:#7d3837;}</style></defs><g id="Layer_2" data-name="Layer 2"><g id="Layer_1-2" data-name="Layer 1"><path class="cls-1" d="M15.09,87.72c-2.84.35-3.58-2.24-4.77-3.78C-5.12,63.91-3,33.31,15.08,15.59,25.22,5.66,37.69-.08,51.67,0,81,.16,103.88,22.24,104.5,51.42c.29,13.86-4.37,25.56-13,36a3.14,3.14,0,0,1-2,1.27c-1.7-1.15-1.87-3.07-2.4-4.79a25.78,25.78,0,0,0-4.59-8.79A27.26,27.26,0,0,1,76,58.23c-.17-9.33-3.19-18-7.16-26.31-5.23-10.87-20.42-11.59-28.41-2.4-4.84,5.56-9.14,10.89-9.84,18.42a8.07,8.07,0,0,1-.43,1.37,7.33,7.33,0,0,1-.68,1.19,7.47,7.47,0,0,0-.05,7.34l.38.59a6.45,6.45,0,0,1,.53,1.34c1.2,6.28-.76,11.51-5.45,15.69A52.28,52.28,0,0,0,15.09,87.72Z"/><path class="cls-2" d="M15.09,87.72c.35-4.67,2.89-8.06,6.42-10.82,5.94-4.65,9.12-10.48,7.93-18.22-.9-3.32,0-6.63.06-9.94.68-7.06,1.77-13.84,8.76-17.93,2.36-1.38,2.16-4.82,4.85-6.5C53,18.1,67.28,22.76,71.38,33.78c3.25,8.75,6,17.55,6.13,27a19,19,0,0,0,5,12.22,28.53,28.53,0,0,1,6.94,15.69c-.77,2-2.44,3.18-4.22,4.22l-.59-.5a12,12,0,0,0-8.53-6.2c-2.91-.67-5.69-1.85-8.62-2.38-6.15-1.11-9.21-4.72-9.34-10.91a7.82,7.82,0,0,1,.25-2.21c3-4.38,5.66-8.89,10-12.2,4-3,3.82-6.27-.17-8.94-2.16-1.44-2.71-3.74-3.66-5.8-1.74-3.78-4-6.32-8.68-6-2.81.18-5.58-.91-8.27-1.76-3.84-1.22-6,.26-7.37,3.76-1.62,4.07-2.25,8.46-6.28,11.56-2.15,1.65-.46,4.93,1.62,6.41,4.79,3.41,7.05,8.73,10.63,13a7.52,7.52,0,0,1,0,3.71c-1,5.9-4.61,8.74-10.42,9.59a42.84,42.84,0,0,0-10.93,3.27,8.32,8.32,0,0,0-4.45,4.47,3.11,3.11,0,0,1-1,1.08A6.7,6.7,0,0,1,15.09,87.72Z"/><path class="cls-3" d="M85.27,93c-17.22,15.91-49.4,15.9-65.81,0a.32.32,0,0,1-.2-.48,4.81,4.81,0,0,1,3.34-.68c19.49,2.94,39,.87,58.49.22,1.48,0,3-.29,4.32.65Z"/><path class="cls-4" d="M29.5,48.74a11.9,11.9,0,0,1-.06,9.94l-.19.13a11.8,11.8,0,0,1,0-9.22A1.51,1.51,0,0,1,29.5,48.74Z"/><path class="cls-5" d="M29.22,49.59l0,9.22-.73-.11a15,15,0,0,1,0-9Z"/><path class="cls-6" d="M28.49,49.72l0,9A8.28,8.28,0,0,1,28.49,49.72Z"/><path class="cls-7" d="M45.46,70.67A17.61,17.61,0,0,1,40,64.33a12.31,12.31,0,0,0-4.88-5.2c-4.18-2.51-4.31-8-.28-10.29a5.08,5.08,0,0,0,2.45-3.45c.62-2,1.14-4.15,1.87-6.17,1.58-4.37,4.11-6.53,9.08-4.42a18.67,18.67,0,0,0,8.21,1.74c4.64-.33,6.94,1.83,8.74,5.63,1.4,2.94,2,6.33,6.2,7.51,2.41.69,1.95,7.56-1.05,9.12-5.23,2.73-6.8,8.46-11.06,11.82S49.89,74.1,45.46,70.67Z"/><path class="cls-7" d="M85.41,92.64c-22,2-44.11,4.27-66.15-.19,0-3.09,1.72-5,4.49-5.93,3.59-1.26,7.15-3,10.87-3.48,5.47-.72,9.28-2.84,10.73-8.37,4.42-2.26,9.24-1.39,13.9-1.81.27,6,3.34,9.18,9.42,10a57.14,57.14,0,0,1,11,3.1C82.73,87.06,85.41,88.78,85.41,92.64Z"/><path class="cls-8" d="M59.25,72.86c-4.42,2.25-9.17,2-13.9,1.81,0-1.33.07-2.67.11-4a20.87,20.87,0,0,0,13.8,0C59.26,71.36,59.25,72.11,59.25,72.86Z"/><path class="cls-9" d="M50.8,48.82c2.26,2.55-1.66,5.45.51,8.11.62.77-.71.7-1.22.68-1,0-1.58-.68-1.23-1.66C49.69,53.64,49.13,51,50.8,48.82Z"/><path class="cls-10" d="M48,62.46A11.57,11.57,0,0,1,54.78,62C52.9,63.89,51.17,64,48,62.46Z"/><path class="cls-11" d="M69.73,51.79c.32,1.67.56,2.91-.69,3.75-.2.13-1.11-.27-1.18-.55C67.56,53.74,68.18,52.82,69.73,51.79Z"/><path class="cls-12" d="M58.37,42.78c.65.06,1.44,0,1.44.94s-.8.9-1.44.91-1.45,0-1.44-.91S57.72,42.84,58.37,42.78Z"/><path class="cls-13" d="M59.4,49.49c-.43.31-.84.82-1.11.75a1.35,1.35,0,0,1-.76-1c-.06-.71.34-1.35,1.15-1.09C59,48.25,59.12,48.93,59.4,49.49Z"/><path class="cls-14" d="M44.79,51c-.59-1-.8-2.38.07-2.66,1.58-.49,1.22.78.85,1.65C45.55,50.35,45.13,50.62,44.79,51Z"/><path class="cls-15" d="M34.07,53.54a12.9,12.9,0,0,1,1.17-1.1,4.83,4.83,0,0,1,1.38,1.27c.35.66-.21.87-.75.68A15.44,15.44,0,0,1,34.07,53.54Z"/></g></g></svg>