<svg xmlns="http://www.w3.org/2000/svg" viewBox="0 0 104.87 105.3"><defs><style>.cls-1{fill:#feded1;}.cls-2{fill:#d9dde9;}.cls-3{fill:#9669a3;}.cls-4{fill:#9569a3;}.cls-5{fill:#6f4e79;}.cls-6{fill:#6f4e78;}.cls-7{fill:#f2a682;}.cls-8{fill:#3b2644;}.cls-9{fill:#f4a683;}.cls-10{fill:#de835c;}.cls-11{fill:#422a45;}.cls-12{fill:#4b334b;}.cls-13{fill:#3c2644;}.cls-14{fill:#f62567;}.cls-15{fill:#eda488;}.cls-16{fill:#f72768;}.cls-17{fill:#f12767;}.cls-18{fill:#f92a6f;}.cls-19{fill:#f44e72;}.cls-20{fill:#e88c69;}.cls-21{fill:#2e1b3d;}.cls-22{fill:#da997e;}.cls-23{fill:#372341;}.cls-24{fill:#e68f6a;}.cls-25{fill:#e99f81;}.cls-26{fill:#ec9880;}.cls-27{fill:#f39b82;}.cls-28{fill:#e9a582;}.cls-29{fill:#efa783;}.cls-30{fill:#e38e63;}.cls-31{fill:#2d1437;}.cls-32{fill:#472d45;}</style></defs><g id="Layer_2" data-name="Layer 2"><g id="Layer_1-2" data-name="Layer 1"><path class="cls-1" d="M12.86,87.09C4.6,76.62-.19,65,0,51.37A52.24,52.24,0,0,1,36.13,2.82q21.71-7.06,41.34,3.6c15,8.19,23.76,21.18,26.63,38.11C106.79,60.31,102.27,74,92.21,86.1c-7-.31-13-4.44-19.66-5.94a10.85,10.85,0,0,1-1.45-.51c-8.66-3-9.57-4.26-9.13-13a4.81,4.81,0,0,1,.5-1.42c4.61-4,8.93-8.32,10.62-14.52,1.51-3.23,2.53-6.54,1.75-10.17-.46-7.46-.76-14.92-5.73-21.19C62.45,11,47.3,10.61,39.16,17.49c-6.75,5.71-6.78,12.72-7,20.15-3.3,4.82-3.21,9.5.59,14,1.46,2.81,1.76,6.33,5,8,2.12,2.14,4.44,4.17,4.59,7.52a23.82,23.82,0,0,1,0,3.87c-.36,6.05-5.07,7.28-9.61,8.71a10.92,10.92,0,0,1-1.43.48A127.82,127.82,0,0,0,12.86,87.09Z"/><path class="cls-2" d="M60.11,104.26a31,31,0,0,1-16.06,0c1.86-1.46.88-2.74-.11-4.2a108.42,108.42,0,0,1-7-10.87c-.81-1.56-2.54-3.56.41-5a211,211,0,0,0,28.45,0c3,1.31,1.37,3.29.44,4.81-2.32,3.77-4.33,7.78-7.12,11.21C57.25,102.38,58.78,103.14,60.11,104.26Z"/><path class="cls-3" d="M72.14,79A119.18,119.18,0,0,1,92.21,86.1a48,48,0,0,1-31.15,17.74c-.26-2.21,1.4-3.21,2.8-4.31a47.7,47.7,0,0,1,5.66-4c4.17-2.37,5.12-5.49,3.52-9.94C72.3,83.56,71,81.36,72.14,79Z"/><path class="cls-4" d="M12.86,87.09c-.07-2,1.65-2.3,3-2.75,5.08-1.76,10-4.1,15.32-5.1,1.43,2.52.05,4.89-.65,7.14-1.16,3.7-.5,6.36,2.92,8.41,2.26,1.35,4.12,3.3,6.28,4.83,1.14.8,2.72,1.66,1.37,3.53C29.55,101.48,20.75,95.08,12.86,87.09Z"/><path class="cls-5" d="M72.14,79c4.92,16.63,5.44,11.62-6.72,20.88a19.49,19.49,0,0,0-4.36,4l-1,.42H55.42L67.08,85c.34-3.1,1.59-5.52,4.87-6.37Z"/><path class="cls-6" d="M41.05,103.15c-2.16-3.61-6-5.3-9.14-7.72-2.86-2.2-4.66-4.25-2.94-8.14,1.11-2.51,1.46-5.35,2.16-8.05a1.37,1.37,0,0,1,.93-.16,7.24,7.24,0,0,1,4,6.11l11.38,18.44c-1.08,1-2.32.2-3.38.59Z"/><path class="cls-7" d="M41.2,67.12c.08-3.15-3-4.43-4.07-6.91-2.91-2-2.14-6.3-5.23-8.15-5.29-7.5-5.35-8.73-.6-13.92,1.72-.51,2-2,2.46-3.45a43.49,43.49,0,0,1,4.51-9.4,5.51,5.51,0,0,1,6.81-2.65A42.6,42.6,0,0,0,57.3,24.76a22.58,22.58,0,0,1,4.57.4c5.23.35,8.13,3.35,8.77,8.33.45,3.55,3.12,5.17,5.25,7.34,1.35,3.82-.09,7.11-1.93,10.33A16.38,16.38,0,0,0,69,57.71a17.46,17.46,0,0,1-6,7.56,1.1,1.1,0,0,1-.12.83c-.34.33-.69.65-1.06,1-1.5.25-3.36,3.14-4.36-.56a23.07,23.07,0,0,1,1.2-4.32c.76-2.72,1-5.34-1.6-7.24-2.82-2-5.92-1.86-9-.78-2.75,1-3.78,3-3.73,5.81,0,2,.19,4-.61,5.92A2.21,2.21,0,0,1,41.2,67.12Z"/><path class="cls-8" d="M75.89,40.83c-4.56-.27-6-3.1-6.57-7.24S67,26,61.8,26.25a2.12,2.12,0,0,1,2.31-.53c-2.09,0-4.56-.55-7,.29A31.89,31.89,0,0,1,44.6,23.68c-2.66-1-3.91-.23-5.14,1.93a46,46,0,0,0-5.15,11.7c-.66,2.67-1.46,2.54-3,.83-.06-2-.17-4-.19-6-.06-11,6.84-19,17.81-20.68,12.48-1.91,21.77,3.27,25.14,14.14A39.65,39.65,0,0,1,75.89,40.83Z"/><path class="cls-9" d="M62.12,66.1h.81A14.64,14.64,0,0,1,63,68.57c-.79,6.7,3.67,8.73,8.91,10.07L67.08,85c-10.34,1.67-20.68,1.34-31,.18l-4-6.11c3.19-2.43,9.19-1.68,9-8,2.6-2.19,5.72-1.15,8.63-1.42C54,69.29,58.74,70,62.12,66.1Z"/><path class="cls-10" d="M62.12,66.1c.35,3.09-2.19,3.23-4.09,3.84C52.48,71.72,46.72,71,41,71.13c.05-1.34.1-2.67.16-4l2-1.09c4.91,1.23,9.84,2.12,14.92,1.23C59.79,68.14,60.5,65.52,62.12,66.1Z"/><path class="cls-11" d="M63.05,65.27c2.15-3.46,4.83-6.62,6-10.64.71-2.5,3-2.74,4.94-3.47C72.5,57.54,69.13,62.45,63.05,65.27Z"/><path class="cls-12" d="M31.9,52.06c2.57-.89,2.77,1.16,3.34,2.72.65,1.8,1.26,3.62,1.89,5.43C33.07,59,33.08,55.13,31.9,52.06Z"/><path class="cls-13" d="M58.08,67.26C52.8,70.6,47.9,69.24,43.16,66c-.11-1.49-.31-3-.29-4.47,0-3.12-.43-6.46,3.21-8.18a12,12,0,0,1,11.48.11c3.62,2,3.28,5.33,2.63,8.76A16.57,16.57,0,0,1,58.08,67.26Z"/><path class="cls-14" d="M48.14,36.89c1.38.82.78,3.55,3.59,3.2,2.15-.27,2.1-1.62,2.47-3a.88.88,0,0,1,1.23,0A4.16,4.16,0,0,1,56,38.37c.32,1.26.15,2.63.93,3.76,6.46,1.45,6.76,1.28,8.73-4.9a.9.9,0,0,1,1.24-.12A41.41,41.41,0,0,1,67.43,42c0,1.8-.71,3.19-3,3.08C60,44.9,55,46.55,52.05,41.3c-1.62.3-2,1.85-2.9,2.87l-.22-.12A.79.79,0,0,1,47.66,44,4.69,4.69,0,0,1,47,41.83a10,10,0,0,1,.27-3.77A2.37,2.37,0,0,1,48.14,36.89Z"/><path class="cls-15" d="M41.07,35.92c.25-2.87,2.59-3.2,4.56-3.14,1.5,0,2.52,1.37,1.45,3.14C45.08,37.8,43.07,37.8,41.07,35.92Z"/><path class="cls-16" d="M41.07,35.92h6l1.06,1-.06,1.2a2.22,2.22,0,0,1-1.35.52,58.06,58.06,0,0,0-9.6,0c-.77-.2-1.46-.46-1.08-1.5C37.43,35.39,39.44,36.48,41.07,35.92Z"/><path class="cls-17" d="M47.91,44l1,0A17.43,17.43,0,0,1,36,44.16c-.32-1.2.51-1.39,1.37-1.58C40.89,43,44.64,41.82,47.91,44Z"/><path class="cls-18" d="M55.24,37.16l-1,0,1.85-1.21a5.83,5.83,0,0,1,6,.08c1.59.46,3.54-.62,4.83,1.13l-1,0A10.19,10.19,0,0,1,55.24,37.16Z"/><path class="cls-19" d="M36.94,43.16l-.93,1a6.36,6.36,0,0,1,0-7.09l.92,1C38.54,39.76,38.55,41.47,36.94,43.16Z"/><path class="cls-20" d="M49.15,44.17c-.32-2.25.44-3.43,2.9-2.87-1.37,1.53-.48,3.75-1.57,5.41C49,46.33,50.62,44.46,49.15,44.17Z"/><path class="cls-21" d="M57.11,26c2.18-1.83,4.6-.42,7-.16l-2.28.4Z"/><path class="cls-22" d="M62.09,36l-6-.08c.09-.37.18-.74.26-1.1,1.53-.58,3.27.39,4.72-.68C61.87,34.46,62,35.19,62.09,36Z"/><path class="cls-23" d="M61,34.12c-1.35,1.74-3.09.82-4.72.68C57.73,33.47,59.4,34,61,34.12Z"/><path class="cls-24" d="M72,44.85c.8-.13,1,.31.89.78a1.52,1.52,0,0,1-.72,1,.61.61,0,0,1-.81-.77A3.23,3.23,0,0,1,72,44.85Z"/><path class="cls-25" d="M51.41,61c-2.36-.18-4.45-.31-4.4-2.83.05-3,2.54-3.06,4.71-3.2s4.41.23,4.47,2.8C56.26,61.37,52.78,60,51.41,61Z"/><path class="cls-26" d="M55.24,37.16H65.91c.58,7.49-2.17,9-10.68,5.92a12.11,12.11,0,0,1,2.45-1.79c.85-.81.85-1.48-.34-1.95a4.51,4.51,0,0,1-2.1-1.22A7.69,7.69,0,0,1,55.24,37.16Z"/><path class="cls-27" d="M36.94,43.16l0-5.11A14.84,14.84,0,0,1,47.33,38a2.82,2.82,0,0,1-1.4,1.22c-.85.46-1.56,1-.57,2,.78.58,1.82.44,2.6,1,0,.64,0,1.28,0,1.91C44.27,43.63,40.47,45,36.94,43.16Z"/><path class="cls-28" d="M58.07,42.17c-.7,1.08-1.8.9-2.84.91,0-1.65,0-3.31,0-5l3,.07A3,3,0,0,1,58.07,42.17Z"/><path class="cls-29" d="M48,42.12c-1,.36-2,1.52-2.93-.12a2.84,2.84,0,0,1,0-3.85l2.32-.2a2.69,2.69,0,0,1,.75.14Z"/><path class="cls-30" d="M54.71,56.38c-2.2,2.11-3.35,1.5-4.55,1Z"/><path class="cls-31" d="M58.07,42.17c.06-1.33.12-2.66.17-4C60.77,39.63,60.67,41,58.07,42.17Z"/><path class="cls-32" d="M45,38.15,45,42c-1.07.23-2,.11-2-1.25S43.19,38.13,45,38.15Z"/></g></g></svg>