<svg xmlns="http://www.w3.org/2000/svg" viewBox="0 0 104.41 105.22"><defs><style>.cls-1{fill:#fde9de;}.cls-2{fill:#f4a683;}.cls-3{fill:#f4a582;}.cls-4{fill:#f3a784;}.cls-5{fill:#f61c6b;}.cls-6{fill:#f52569;}.cls-7{fill:#f3a683;}.cls-8{fill:#3b2645;}.cls-9{fill:#3c2745;}.cls-10{fill:#3b2746;}.cls-11{fill:#f5e4dc;}.cls-12{fill:#f00c69;}.cls-13{fill:#2d193b;}.cls-14{fill:#f00b67;}.cls-15{fill:#2e1a34;}.cls-16{fill:#e4d6d0;}.cls-17{fill:#f2176a;}.cls-18{fill:#2d1938;}.cls-19{fill:#fef3ed;}.cls-20{fill:#de865f;}.cls-21{fill:#fa0970;}.cls-22{fill:#f20969;}.cls-23{fill:#ec9a71;}.cls-24{fill:#fbf6f1;}.cls-25{fill:#e3936d;}.cls-26{fill:#e48e68;}.cls-27{fill:#432641;}.cls-28{fill:#3d213d;}.cls-29{fill:#87524d;}.cls-30{fill:#2f1a37;}.cls-31{fill:#331e38;}</style></defs><g id="Layer_2" data-name="Layer 2"><g id="Layer_1-2" data-name="Layer 1"><path class="cls-1" d="M18.19,92.38C7.29,82.37.5,70.62,0,55.23-.57,35.34,7.3,19.82,23.36,9c14.73-9.9,31.21-11.79,47.93-5C96.2,14.22,107,35.93,103.89,61.59c-1.56,12.84-8.46,23.57-18.78,31.75C81.3,86.76,74.5,85.77,68,84.22c-3.14-1-6.72-1.14-8.59-4.53-1.49-2.56-1.57-5.4-1.72-8.23a21.69,21.69,0,0,1,7.89-10.58c5-3.53,6-7.52,4.44-12.84,1.54-5.95.16-11.66-1.45-17.35a19.64,19.64,0,0,1,.55-4c.75-2.12,2.13-3.44,4.48-2.85A4.54,4.54,0,0,1,77.2,28.1c.21,5.78,2.57,10.83,4.56,16.09,1.6,4.23.94,8.81.35,13.25-.51,3.94-1.06,7.87.39,11.73.94,1.84,2.25,1.59,3.68.62A21,21,0,0,0,89.85,43c-3.2-4.95-6-9.79-6.3-15.94a7.33,7.33,0,0,0-6-7.09c-4.39-1-7.29,1.27-9.67,4.58A4.22,4.22,0,0,1,65.3,26c-3-.11-5.35-2.35-8.33-2.46a12.45,12.45,0,0,0-8.24,0c-2.6.3-4.7,2.29-7.42,2.24a4.27,4.27,0,0,1-1.83-1.08c-6.65-7.5-11.69-6.92-16.62,1.94a2.29,2.29,0,0,1-1.06,1c-.29.54-1.16-1-.92.05.32,1.39.78,2.79,1.14,4.21.22,4.36-2.69,7.35-4.75,10.68-5.79,9.35-4.75,19.35,2.93,27.25,1.07.64,2.1,1.49,3.44.61a3.31,3.31,0,0,0,1.19-2.79c0-2.76,0-5.5-.06-8.25-2.05-8.64-.17-16.59,4.14-24.12,1.34-2.06.81-4.41,1-6.64a4.29,4.29,0,0,1,1.33-3.28c2.37.76,3.72,2.71,5.23,4.48-.07,2.87-2,5.14-2.5,7.9a14,14,0,0,0,0,7.66,7.48,7.48,0,0,1,.21,2.21c-2.59,5.25-1,8.82,3.35,12.77,4.18,3.81,8.91,8.22,7.79,15.15-.73,4.23-2.85,7.2-7.32,8a12.23,12.23,0,0,1-1.46.31C29.89,85.49,23.05,86.8,18.19,92.38Z"/><path class="cls-2" d="M60.12,79.39c2,2.91,5.57,2.27,8.17,3.81A4.2,4.2,0,0,1,69,85.3C69,89,70,92.5,70.89,96c.41,1.75,1.17,3.49.26,5.31a48.2,48.2,0,0,1-38,0C32,100,32.83,98.6,33,97.23s.76-2.68,1-4,.76-2.67,1-4a17.86,17.86,0,0,1,.46-2c.55-1.54.44-3.32,1.69-4.6,4.36-.38,6.34-3.15,7.15-7.11a5.93,5.93,0,0,1,1.31-.89c4.18-.21,8.16-2,12.42-1.5C59.26,74.94,58.17,77.67,60.12,79.39Z"/><path class="cls-3" d="M36.18,87.53l0,1.92c-1.29,1-1.44,2.53-1.65,4a13.41,13.41,0,0,0-1,3.85c-.6,1.23-.6,2.68-1.37,3.84-5.11-2.21-10.06-4.69-14-8.78,1.54-4.93,5.52-6.57,10-7.59,2.72-.62,5.4-1.44,8.09-2.16C37.27,84.29,36,85.89,36.18,87.53Z"/><path class="cls-4" d="M68.18,85.14c0-.65.07-1.29.11-1.94,4.33.4,8.34,2,12.34,3.51,3,1.17,4,3.77,4.48,6.63a43.39,43.39,0,0,1-13,7.81A78.73,78.73,0,0,1,68.18,85.14Z"/><path class="cls-5" d="M68.18,85.14a68.45,68.45,0,0,1,3.95,16l-1,.2C69.93,96,67.16,90.91,68.18,85.14Z"/><path class="cls-6" d="M32.18,101.16c0-1.34-.38-2.76.83-3.84q.54-.64,1.05,0c-.29,1.32-.59,2.63-.88,4Z"/><path class="cls-7" d="M45.2,75.37h-.94c1-6.78-4-10.79-7.93-14.55C31,55.66,29.94,54,33.55,47.48c2.4-1.33,2.16-4,2.91-6.06,3.76-10.48,13.18-14.94,22.31-10.49,5.09,2.49,7.08,7.23,8.56,12.21.69,2.31,1.36,4.42,3.77,5.44,2.12,6.59,1.15,8.25-4.15,12.56-3.37,2.75-5.77,6.69-8.6,10.1l-.39.59a12.7,12.7,0,0,1-8.07,1.61A4.44,4.44,0,0,0,45.2,75.37Z"/><path class="cls-8" d="M82.23,71.18C78.67,68,79.85,63.69,80.46,60c1.36-8.11,1.22-15.76-3.23-23-1.64-2.66-1-5.8-1.18-8.75-.14-2-1-3.59-3.07-4-2.26-.45-2.7,1.35-3.22,2.95-2.05.13-2.91-.95-3-2.87,2-4.79,5.69-6.92,10.72-5.85,4.77,1,7.53,4.39,7.54,9.22,0,5.33,2.34,9.42,5.25,13.59,7,10,4.91,24-4.18,30A18.28,18.28,0,0,0,82.23,71.18Z"/><path class="cls-9" d="M30.37,35.38c-4.76,7.42-5.83,15.5-4.3,24a31,31,0,0,0-.15,9.9c-.18,1-.57,1.88-1.74,2.07-1.33.15-2.61-.41-3.94-.22-8.8-6.62-10.53-19.94-3.94-29.78,2.08-3.1,5.13-5.76,4.79-10-.48-1.27-.81-2.54.22-3.73,1.16-4.83,3.43-8.68,8.88-9.32,4.71-.55,7.88,1.81,10,5.88a3,3,0,0,1-2.88,2.74c-1.77-.34-3.31-1.4-5.11-1.65C30.75,25.76,31.06,27,31,28a.61.61,0,0,1-.55.72c-.87,1.78-.14,3.58,0,5.37A1.53,1.53,0,0,1,30.37,35.38Z"/><path class="cls-10" d="M71.1,48.58c-2.32.71-4.1.83-4.29-2.49a19.56,19.56,0,0,0-1.57-5.73c-2.5-6.37-7.4-9.88-13.55-9.89s-11,3.42-13.56,9.86A35,35,0,0,0,36.34,47c-.56,3.22-1.71,1.3-2.79.44L33,45.33c0-.22.07-.44.1-.66a24.19,24.19,0,0,0-.17-6,1.32,1.32,0,0,1,.12-1.26l3.07-8,.32-.62c1.6-1.3,2.91-3,5-3.66,2.21-1,4.14-2.75,6.79-2.64,3,0,6,.08,8.94,0,3.15-.15,5.35,2,8,3.2,2.42.82,3.48,2.81,4.28,5C72.54,36.41,72.49,42.43,71.1,48.58Z"/><path class="cls-11" d="M32.15,25.29c2.32-2.4,3.69-.87,4.93,1.21.81,1.2-.12,2-.66,2.91l-.28,0C34,28.87,31.51,28.57,32.15,25.29Z"/><path class="cls-12" d="M69.4,30.7c-2.2-1-3-3.21-4.28-5l1.69-1.34,3,2.88C70.14,28.43,70.59,29.65,69.4,30.7Z"/><path class="cls-13" d="M57.15,22.48a10,10,0,0,1-8.94,0A13,13,0,0,1,57.15,22.48Z"/><path class="cls-14" d="M36.42,29.41l.66-2.91,3.06-2.3,1.28,1C40.2,27.11,38.91,29,36.42,29.41Z"/><path class="cls-15" d="M25.92,69.32a13,13,0,0,1,.15-9.9C26.74,62.74,27.05,66,25.92,69.32Z"/><path class="cls-7" d="M60.12,79.39c-2.73-1.36-1.72-4-2-6.11a1.23,1.23,0,0,1,0-1.8l.27-.24Z"/><path class="cls-16" d="M33.06,37.4l.27,1a17.87,17.87,0,0,1,.09,7L33,45.33A7.87,7.87,0,0,1,33.06,37.4Z"/><path class="cls-17" d="M36.18,87.53c-1.79-1.69.31-3.26.14-4.9a1.28,1.28,0,0,1,.79-.14C37.31,84.26,37.53,86,36.18,87.53Z"/><path class="cls-18" d="M20.24,71.17c1.38-1.11,2.7-1.19,3.94.22C22.79,72.74,21.51,72.08,20.24,71.17Z"/><path class="cls-16" d="M30.33,28.66A7,7,0,0,0,31,28c.13,2.49,1,5-.63,7.38l-.27-1C29.56,32.44,29.23,30.52,30.33,28.66Z"/><path class="cls-19" d="M21.31,27.64l-.22,3.73c-1.43-1.25-.81-2.92-.85-4.44,0-.64.45-.64.79-.18A3,3,0,0,1,21.31,27.64Z"/><path class="cls-20" d="M58.08,71.48c0,.6,0,1.2,0,1.8-4.2,1.35-8.44,2.47-12.92,2.09-.17-2.66,0-4.75,3.7-3.29C52,73.3,55,71.48,58.08,71.48Z"/><path class="cls-21" d="M34.06,97.35l-1.05,0c.27-1.35-.16-2.88,1-4,.32-.43.61-.44.88,0Z"/><path class="cls-22" d="M34.93,93.38c-.29,0-.59,0-.88,0,.38-1.46-.77-3.76,2.1-3.88C35.75,90.76,35.34,92.07,34.93,93.38Z"/><path class="cls-23" d="M50.17,47.62c2.65,3.68-1.5,7,.46,10.05-.42.17-.87.54-1.23.47a1.45,1.45,0,0,1-1.14-1.86C48.79,53.6,49.42,51,50.17,47.62Z"/><path class="cls-24" d="M48.55,61.72l6.34-1.36C53.07,64,51.06,64,48.55,61.72Z"/><path class="cls-25" d="M36.13,53.94c-.39.42-.69,1-1,1-1-.06-1.24-1-1.4-1.75-.06-.29.45-.71.71-1.07Z"/><path class="cls-26" d="M67.86,55c-.09-.3-.42-.84-.27-1A2.53,2.53,0,0,1,69,52.83c.56-.09.55.58.37,1S68.93,55.12,67.86,55Z"/><path class="cls-27" d="M57.4,47.48c.63.67,1.06.94,1.2,1.32a1.55,1.55,0,0,1-.75,2c-.66.34-.89-.38-.89-.77A17.34,17.34,0,0,1,57.4,47.48Z"/><path class="cls-28" d="M44.31,48.07c.8-.28.87.33.95.73.13.77.19,1.63-.65,2-.18.08-.83-.42-1-.77A1.6,1.6,0,0,1,44.31,48.07Z"/><path class="cls-29" d="M42.73,44a2.4,2.4,0,0,1,3.12-.13C44.85,45.49,43.91,44.39,42.73,44Z"/><path class="cls-30" d="M30.33,28.66a11.39,11.39,0,0,1-.23,5.71C28.4,32.44,28.93,30,29.39,28,29.72,26.58,30,28.43,30.33,28.66Z"/><path class="cls-31" d="M33.42,45.42a14.5,14.5,0,0,1-.09-7A7.11,7.11,0,0,1,33.42,45.42Z"/></g></g></svg>