<svg xmlns="http://www.w3.org/2000/svg" viewBox="0 0 104.88 104.69"><defs><style>.cls-1{fill:#fde9de;}.cls-2{fill:#d9dce9;}.cls-3{fill:#3c2745;}.cls-4{fill:#3b2645;}.cls-5{fill:#594962;}.cls-6{fill:#5a4a63;}.cls-7{fill:#f4a682;}.cls-8{fill:#f4a683;}.cls-9{fill:#8d3d3e;}.cls-10{fill:#e0875e;}.cls-11{fill:#843034;}.cls-12{fill:#faf6f0;}.cls-13{fill:#e79471;}.cls-14{fill:#ea9872;}.cls-15{fill:#e6956d;}.cls-16{fill:#321b34;}.cls-17{fill:#1b0d2e;}.cls-18{fill:#382438;}</style></defs><g id="Layer_2" data-name="Layer 2"><g id="Layer_1-2" data-name="Layer 1"><path class="cls-1" d="M11.82,85.61C3.73,75.5-.59,63.59.07,51.05c1-19.31,10.42-36.17,29.07-45.39C43-1.2,57-1.68,71.48,3.44,90.3,10.1,104.69,31.14,104.88,50c.13,13-2.69,24.61-11.07,34.67-6.72-.81-12.57-4.32-19-6.09-1.87-.7-3.76-1.34-5.63-2-5.44-.92-6.94-4.83-7.3-9.61a8,8,0,0,1-.1-3c3.57-5.53,5.66-12,10.89-16.5,3.73-3.19,2.9-6.66.24-10.08-.9-3.27-.35-6.61-.57-9.91-.66-9.92-4.77-14.6-14.57-16.56-3-1.17-6-.64-8.93.1a18.38,18.38,0,0,0-15.8,18c0,2.47.27,5-.52,7.4-4.29,5.69-3.94,7,1.25,12.28C38,52.79,39.63,58.7,42.61,63.76a6.53,6.53,0,0,1-.07,2.29A10,10,0,0,0,42.12,69c.39,4.86-2.63,6.64-6.69,7.51-1.86.69-3.74,1.34-5.61,2C23.84,80.9,17.52,82.48,11.82,85.61Z"/><path class="cls-2" d="M66.78,102.88c-9.74,2.7-19.46,2.18-29.15-.3-1.86-3.34-1.55-6.87-.87-10.43.67-1.86,2.13-2.05,3.64-1.41C48.12,94,55.9,94,63.78,91.42a2.37,2.37,0,0,1,2.34.41C67.83,95.43,67.28,99.15,66.78,102.88Z"/><path class="cls-3" d="M74.91,77.55c6.46,1.94,12.93,3.85,18.9,7.1C88.87,90.77,83.25,96,75.8,99c-1.66-.9-2.61-2.51-3.84-3.84-2-2.19-2.65-4.26.68-5.9s1.55-4.54,1.58-7C74.23,80.64,72,78.67,74.91,77.55Z"/><path class="cls-4" d="M11.82,85.61c-.68-1.93.92-2.19,2-2.59,5.23-1.86,10.5-3.64,15.75-5.45,3.21.87,1.23,3.15,1,4.61-.49,3.08-.86,5.77,2.36,7.73,2.11,1.29,1.29,3.19.12,4.67s-1.61,4.09-4.33,4.07C21.81,96,17,90.62,11.82,85.61Z"/><path class="cls-5" d="M74.91,77.55c-.61,2.92.84,5.59,1.27,8.36.39,2.51.19,3.68-2.27,4.2-3.72.79-3.1,2.38-.86,4.4,1.31,1.19,2.78,2.38,2.75,4.44-2.64,2.17-6,2.68-9,3.93-2.67-3.45,0-7.39-1-11-1.2-4.72-.47-9.36.68-14,.35-1.41.87-2.92,2.9-2.56Z"/><path class="cls-6" d="M28.77,98.65A24.8,24.8,0,0,1,31.2,95c2.19-2.28,3.21-3.87-.92-5.26-2.65-.9-1.47-3.67-1.37-5.66.11-2.17,1.79-4.19.71-6.52l5.4-2.1c3.67,2.8,2.67,7,3.12,10.73.22,1.82-.45,3.55-.62,5.34-.14,3.68.83,7.35.11,11C34.64,101.36,31.35,100.81,28.77,98.65Z"/><path class="cls-7" d="M41.8,63.69c-2.39-3.71-5.3-7.13-6.42-11.55-.45-1.77-2-2.4-3.33-3.4-5.12-3.9-5.17-9.14-.25-12.07,2.64-2.92,3.05-6.87,4.7-10.26,2.32-4.73,5.32-7.9,11.14-7.08a15,15,0,0,0,6.84-1c4.22-1.45,7.27.14,10.11,3.3,4.21,4.7,5.62,10.87,8.93,16,3.67,2.75,4.81,6.34,1.51,9-5.83,4.68-7.53,12-12.38,17.13C56.82,69.64,48.34,69.63,41.8,63.69Z"/><path class="cls-8" d="M37.52,91.54c-1.45-5.27-.12-11-2.51-16.07,6.52-.49,5.48-5.93,6.55-10,5,5.05,10.69,2.05,16.17,1.44,1.69-.19,3.28-1.83,5.06-.27,1.12,3.72,1.17,8.24,6.57,8.72-3.11,1.89-1.73,5.21-2.4,7.84-.7,2.81.06,5.88-1.19,8.67-8.65,3.7-17.3,4.07-25.93-.08C39.11,91.46,38.36,91,37.52,91.54Z"/><path class="cls-9" d="M73.52,37.6c-2.23.55-2.75-.84-3.22-2.61a30.9,30.9,0,0,0-4.38-9.42c-4.66-6.84-5.69-7.2-13.75-5.28a8.17,8.17,0,0,1-3.43.38c-7.27-1.59-10,3-12,8.62-.74,2-1.49,4-2.1,6.08-.48,1.62-1.21,2.29-2.81,1.3-.1-3.28-.44-6.58-.26-9.86C32,18.19,39.87,10.5,48.77,9.74c3,.36,6-.14,9-.1,7.94.58,13,4.65,15.05,12.13C74.26,27,74,32.29,73.52,37.6Z"/><path class="cls-10" d="M62.79,66.66c-5.57,1.27-11,3.06-16.87,3.08-3.28,0-4.53-1.16-4.36-4.25l.24-1.8c6.94,3.72,13.9,4.2,20.85,0C62.7,64.7,62.75,65.68,62.79,66.66Z"/><path class="cls-11" d="M57.76,9.64a9.07,9.07,0,0,1-9,.1A15.55,15.55,0,0,1,57.76,9.64Z"/><path class="cls-12" d="M57.25,54.05c-4,4.94-6,5-10.17,0Z"/><path class="cls-13" d="M52.18,34.67c1.45,5.37-4.14,10,1,14C49,50.12,49,50,49.48,45.91A38.15,38.15,0,0,1,52.18,34.67Z"/><path class="cls-14" d="M31.19,40.21c1.48.8,2.63,1.45,2.12,3-.19.62-.8,1.13-1.48.68C30.57,43.08,30.56,41.86,31.19,40.21Z"/><path class="cls-15" d="M72.6,41.52c.87-.21,1.1.31,1.09,1s-.08,1.63-1,1.92c-.66.2-1.34.1-1.49-.67C70.94,42.64,71.88,42.13,72.6,41.52Z"/><path class="cls-16" d="M59.38,36.12c.84,1.23.93,2.32.13,3.34a1.31,1.31,0,0,1-1.17-.18C57.73,38.17,57.82,37.12,59.38,36.12Z"/><path class="cls-17" d="M44.55,39.55c-1.15,0-1.12-.77-1.08-1.34s.2-1.56.6-1.74c.66-.32,1.18.33,1.26,1.06A2,2,0,0,1,44.55,39.55Z"/><path class="cls-18" d="M45.63,32c-1,1.38-2.2.66-4.05,1.78C43.17,31.19,44.3,31.7,45.63,32Z"/></g></g></svg>