<svg xmlns="http://www.w3.org/2000/svg" viewBox="0 0 105.04 104.67"><defs><style>.cls-1{fill:#fde9de;}.cls-2{fill:#594962;}.cls-3{fill:#594963;}.cls-4{fill:#3b2645;}.cls-5{fill:#4c3c55;}.cls-6{fill:#9b4345;}.cls-7{fill:#fcfcfc;}.cls-8{fill:#753434;}.cls-9{fill:#934045;}.cls-10{fill:#2f1c37;}.cls-11{fill:#2c1833;}.cls-12{fill:#301c35;}.cls-13{fill:#e7d6d5;}.cls-14{fill:#8b393b;}.cls-15{fill:#96393d;}.cls-16{fill:#88383e;}.cls-17{fill:#8a3a3a;}.cls-18{fill:#30223b;}.cls-19{fill:#2d2141;}.cls-20{fill:#442445;}.cls-21{fill:#362740;}.cls-22{fill:#3c2746;}.cls-23{fill:#321e3d;}.cls-24{fill:#c9cee1;}</style></defs><g id="Layer_2" data-name="Layer 2"><g id="Layer_1-2" data-name="Layer 1"><path class="cls-1" d="M11.51,83.83c-4.71-3-6.22-8.19-8-12.81A52.13,52.13,0,0,1,42.91.89c30-5.39,57.28,14.14,61.6,44.44,2.14,15-2.24,28.53-11.48,40.5-5.83-2.78-12-4.63-18-7-2-1.16-4.23-1.34-6.44-1.65-2.75-1.55-5.69-2.81-8-5.11-.21-1.9,1-3.77.1-5.69a8.33,8.33,0,0,1,.1-2.86c1.24-4.44,4.45-6.62,8.7-7.59a22.6,22.6,0,0,0,9.39-13c1.81-5.94-1.72-11.16,0-16.8.76-2.42-2.7-3.93-3.82-6.13a28.16,28.16,0,0,1-1-3.39c-5.06-2.71-9.53-6.87-16-6.07-2,.25-3.92-.41-5.87-.76a5.9,5.9,0,0,0-4.57.23c-2.23.7-4.28,2-6.72,1.93s-4.8-1.74-6.75.88a24.88,24.88,0,0,1-5,4.87c-1.13.73-2.46,1.68-2.37,3,.32,5-2.72,9.18-2.67,14.39.09,8.61,2.86,15,9.74,19.81,3.68,1.44,5.52,4.61,7.34,7.81a5.25,5.25,0,0,1,.23,2.83c-1.2,2.23.44,4.34.31,6.54-2.15,2.46-5.11,3.49-8,4.54a52.69,52.69,0,0,0-6.1,2.18C22.3,80.4,17.32,83.48,11.51,83.83Z"/><path class="cls-2" d="M68.72,76.76c2.34-1.48,4.17.2,6.15,1,.13,2.64,1,5.15,1.43,7.74,1.09,6.1.55,6.91-5.37,7.79a6.14,6.14,0,0,0-2.87.66c1.19,2.27,3.23,4.2,2.92,7.06a40.18,40.18,0,0,1-19.24,3.49,2,2,0,0,1-.47-2C56.37,93.42,61.62,84.46,68.72,76.76Z"/><path class="cls-3" d="M51.74,102.84v1.65a8.41,8.41,0,0,1-5.26-.54c.31-.67,1.06-.45,2-1-1.54.56-2.78-.09-3.76.77A31.09,31.09,0,0,1,31.44,100a4.1,4.1,0,0,1,.38-1.42c2.35-4.41,2.37-4.47-2.44-5.78-2.62-.71-3.27-2.39-3-4.84.41-3.41,1.65-6.74,1.2-10.25a12.1,12.1,0,0,1,6.1-1.87C40.63,84.26,47,93,51.74,102.84Z"/><path class="cls-4" d="M71,101c-.44-.67-.93-1.31-1.3-2-3.07-5.81-3.09-5.94,3.72-7.16,2.78-.5,2.46-2.22,2.12-4-.48-2.57-1.12-5.11-1.8-7.63-.34-1.24-.58-2.26,1.15-2.46,5.26,1.85,10.54,3.67,15.79,5.57,1.13.41,2.75.58,2.37,2.51C86.7,92.37,80,98.38,71,101Z"/><path class="cls-4" d="M27.61,77.75c.95.24,2,.36,1.72,1.8-.45,2.07-.94,4.13-1.4,6.2-.84,3.76-1,6.79,4.53,6.14,4.2-.5,4.55,1.53,2.18,4.55-1,1.27-1.46,3-3.2,3.6C23.34,96.42,16,91.87,11.51,83.83,16.59,81,22.11,79.44,27.61,77.75Z"/><path class="cls-5" d="M44.75,103.77c1.08-1.41,2.51-.81,4-.36l-2.24.54Z"/><path class="cls-6" d="M40.73,62.83C38,61.05,37.46,57,33.9,56a8.85,8.85,0,0,0-3.68-6.26,12.14,12.14,0,0,1-4.16-6.1c-.9-3-.47-6,2.69-7.14s4-3.12,4.86-5.72a47.13,47.13,0,0,1,2.94-6.33C38.29,21,41,19.23,45,19.52a15.54,15.54,0,0,0,6.88-.95c4.72-1.85,8.39-.25,11.61,3.25a27.8,27.8,0,0,1,4.7,7c1.68,3.57,3.06,7.08,6.74,9.54C78.29,40.65,77,46,72.6,50c-2.17,2-4.44,3.7-2.93,7.11-4.24.42-6.26,3.52-8.14,6.79C54.84,70,45.11,69.51,40.73,62.83Z"/><path class="cls-4" d="M69.67,57.07c-.85-.54-2.84.29-2.54-1.52.35-2.07.84-4.34,3.07-5.41a9.65,9.65,0,0,0,5.26-6.85c.6-2.44-.16-4.85-2.53-5.16-3.15-.41-3.46-2.5-4.18-4.64a32.47,32.47,0,0,0-4.53-8.82C60,18.9,58,18.22,51.28,20.09c-1.11.3-2.35.88-3.37.64C40.33,19,37.71,24,35.34,29.61c-1.38,3.26-1.1,7.35-6.6,8.21-3.56.55-2.32,7.8,2.39,11a8.83,8.83,0,0,1,4,5.93c.17.84-.63,1-1.2,1.28-4-3.14-7.75-5.8-9.69-11.52-1.77-5.2-2.14-10.88-.86-14.6C25,25.07,23,17.46,30.63,15.19c1.12-.34,1.75-2.27,2.61-3.47,2.38-1.39,5-.27,7.47-.75l7-2.13c1.35.65,2.68-.25,4-.06,3.08.2,6.17,1,9.25,0a.71.71,0,0,1,.49,0c4.41,2.91,10.08,3.35,14,7.16-.14,1.26-1.08,2.59.35,3.69,2.87,3.12,7.67,5.66,3.19,11-.17.22.29,1.23.7,1.63,2.54,2.53,2.65,5.14.49,7.95a4.65,4.65,0,0,0-.82,3.76C80.58,50.2,74.63,52.44,72,56.6,71.74,57.07,70.48,56.93,69.67,57.07Z"/><path class="cls-7" d="M51.74,102.84a294.92,294.92,0,0,1-18-27L42,71.67a1.19,1.19,0,0,1,1.22.36c1.77,1.41-1,5.07,2.75,5.49,1.94-.42,4-1.8,5.8-1,5.13,2.22,6-1,6.72-4.71a1.7,1.7,0,0,1,2-.14c3,1.29,6.06,2.52,8.25,5.12Z"/><path class="cls-8" d="M40.73,62.83c6.63,6.39,13.71,3.73,20.8,1,.07,1,.14,2,.22,3-3.86,2.53-8.16,3.29-12.69,3.31-1.13,0-2.7-1-3.33,1a3.08,3.08,0,0,1-1.3.49,3.28,3.28,0,0,1-2-.74c-1.77-1.41-2.67-3.11-1.82-5.41Z"/><path class="cls-9" d="M45.76,70.75c.05-.65-2.15-1.9-.22-1.75,5.63.45,10.8-1.62,16.21-2.19,1.07,2,1.4,3.82-1.28,4.83l-1.58.27c-2.29-.2-4.43.72-6.66.94C49.81,73.09,47.34,73.21,45.76,70.75Z"/><path class="cls-10" d="M40.71,11c-2.35,1.69-5,.57-7.46.75C35.5,9.21,38.09,10,40.71,11Z"/><path class="cls-9" d="M40.56,65.44c-.37,2.35,1.9,3.54,2.4,5.5l.15.43-.35.28h-.4l-.4,0C38.6,70.24,39.72,67.81,40.56,65.44Z"/><path class="cls-11" d="M51.77,8.78c-1.33,1.49-2.67,1.46-4,.06A3.36,3.36,0,0,1,51.77,8.78Z"/><path class="cls-12" d="M75.89,19.58c-2-1-1.24-2.36-.35-3.69C75.66,17.12,75.77,18.35,75.89,19.58Z"/><path class="cls-13" d="M45.91,53.87H56.2C52.57,59.18,49.9,59.2,45.91,53.87Z"/><path class="cls-14" d="M51.21,34.38c2,5.13-4.79,10.09,1,14.43-3.16,1-4.36.66-4-1.26C49,43.29,48.51,38.69,51.21,34.38Z"/><path class="cls-15" d="M47,52h7.59v.49H46.88Z"/><path class="cls-16" d="M72.61,42.56c-.21,1-.59,1.84-1.76,1.83-.26,0-.77-.63-.72-.89.17-.91.45-1.94,1.47-2.19C72.45,41.1,72.52,41.92,72.61,42.56Z"/><path class="cls-17" d="M30.11,40.43c1.48.51,2.51,1.2,2.2,2.93-.06.32-1,.82-1,.76A3.22,3.22,0,0,1,30.11,40.43Z"/><path class="cls-18" d="M44.39,37.83c-.12.87-.46,1.63-1.45,1.63-.27,0-.84-.72-.77-.94.25-.74.56-1.72,1.15-2S44.32,37.11,44.39,37.83Z"/><path class="cls-19" d="M57.93,36.41c.94.39.85,1.2.76,2s-.6,1.3-1.23,1c-.38-.2-.54-1.08-.55-1.66S57,36.37,57.93,36.41Z"/><path class="cls-20" d="M40.9,33.5c1.64-2.35,2.79-1.34,4-1.86C43.89,33.8,42.68,32.28,40.9,33.5Z"/><path class="cls-21" d="M60.28,32.47c-1.77.38-2.81.8-3.78-.22C57.63,31.52,58.68,31.65,60.28,32.47Z"/><path class="cls-22" d="M45.76,70.75a11.88,11.88,0,0,0,9.9,0c1.38-.63,2.86-1.21,3.23,1.16V80c-4.54-1.94-8.79-3.45-13.17-1.3-3.34-2.25-1.91-5.1-1-7.89Z"/><path class="cls-23" d="M44.73,70.84c1.08,2.54-1.09,5.48,1,7.89-1.2.62-2.68,2.15-2.81-.82-.08-2.08-.1-4.17-.15-6.25a1.53,1.53,0,0,0,.2-.72Z"/><path class="cls-24" d="M51,84.13c.7.2,1.17.65,1,1.38a1.06,1.06,0,0,1-1.46.86,1.46,1.46,0,0,1-.74-1.08A1,1,0,0,1,51,84.13Z"/></g></g></svg>