<svg xmlns="http://www.w3.org/2000/svg" viewBox="0 0 104.92 104.66"><defs><style>.cls-1{fill:#feded1;}.cls-2{fill:#2e8cbc;}.cls-3{fill:#1c83ba;}.cls-4{fill:#f4a682;}.cls-5{fill:#e26c28;}.cls-6{fill:#23688a;}.cls-7{fill:#22698b;}.cls-8{fill:#e26c29;}.cls-9{fill:#ea9570;}.cls-10{fill:#e16925;}.cls-11{fill:#e7936f;}.cls-12{fill:#492a49;}.cls-13{fill:#2d1b41;}.cls-14{fill:#e59169;}.cls-15{fill:#4b1c32;}.cls-16{fill:#481b25;}.cls-17{fill:#f4a57f;}.cls-18{fill:#ee9770;}</style></defs><g id="Layer_2" data-name="Layer 2"><g id="Layer_1-2" data-name="Layer 1"><path class="cls-1" d="M11.48,85.24C4.91,76.59.67,66.87.09,56-.58,43.44,2.51,31.65,10.21,21.4,22.58,4.92,39.55-2,59.53.51a51.06,51.06,0,0,1,44.24,41.36c3.11,15.62,0,29.95-10.2,42.47-1.1.73-2.2.4-3.3,0C83,81.73,75.72,79.21,68.52,76.41A18.35,18.35,0,0,1,62,69.89c-1.32-4.07-.46-7.54,2-11.14,2.88-4.17,4.61-9.11,8.89-12.32a3.92,3.92,0,0,0,1.36-4.52C71.73,36.6,73.2,30.8,71.87,25.39c-.94-3.95-3.43-7.75-.49-12.84-3.74,1.22-6.48.48-9.27-.52-11-3.92-20.78-.94-27.74,8.27-3.21,4.25-1.92,9.23-2.28,13.94-4.54,6.57-2.54,11.51,3,16.7,3,2.79,4.18,7.46,6.29,11.23,1.42,2.54.93,5.51-.29,8.22a16.37,16.37,0,0,1-5.88,6C27.33,79.47,19.21,81.84,11.48,85.24Z"/><path class="cls-2" d="M11.48,85.24c.36-2.38,2.5-2.42,4.12-3C22,79.9,28.42,77.68,34.83,75.42c2.86.78,4,3.45,5.55,5.46,2.07,2.59,3.62,3.85,5.67.09.57-1.06,1.36-2.43,3.1-1.74,1.79,1.89,2.29,4.26,2.54,6.58.36-2.07.31-4.5,2.55-6a2.57,2.57,0,0,1,3,1.24c2.27,4,3.95,1.82,5.76-.39,1.64-2,2.78-4.6,5.75-5.14l24.82,8.78q-13.39,18-35.78,19.83a21.14,21.14,0,0,0-10,0C32.76,103.55,21.18,96.2,11.48,85.24Z"/><path class="cls-3" d="M47.82,104.22a11.5,11.5,0,0,1,10,0A27.17,27.17,0,0,1,47.82,104.22Z"/><path class="cls-4" d="M54.58,80c-.89,2.52-1.77,5.05-2.92,8.32l-3-9c-3.58-2.43-6.95-5.06-8.66-9.25,1.3-3.78,1.11-7-1.59-10.52-3.19-4.2-4.55-9.51-9.12-13.13-2.54-2-2.91-6.27.47-9.12,1.05-.88.93-2,1.2-3.11a3,3,0,0,0,2.86-2.32,34.15,34.15,0,0,1,2-4.53C39.94,19.07,40,19,49,21.2a21.17,21.17,0,0,0,8.86.24c6.68-1.19,8.33-.28,11.31,5.83a22.16,22.16,0,0,1,2,6.9c1.12-3.06-.75-6.51,1.82-9,1.49,2.28.74,4.84.85,7.28s.09,4.7,1.4,7.12c2,3.65.15,6.72-2.69,9.67C67,55,61.88,61.12,62.88,70,60.86,73.93,58.41,77.52,54.58,80Z"/><path class="cls-5" d="M73,25.15c-.65,4.1,1,8.46-1.27,12.83-2.63-2.78-1.92-6.22-3.1-9-2.8-6.62-4-7.47-11-6.1a22.58,22.58,0,0,1-12.64-1.46c-3.24-1.26-4.74-.23-6.12,2.65a93.87,93.87,0,0,0-5.4,12.72c-2.21.29-1.41-2-2.47-2.59-.05-1.82-.15-3.64-.13-5.47.09-8.26,6.39-16.47,14.35-18.5,6.41-1.64,12.89-1.89,18.92,1.21,3.41,1.76,6-.3,10.8-1.54C68.59,15.36,72.14,20.26,73,25.15Z"/><path class="cls-6" d="M54.58,80c1.66-4.24,5.46-6.71,8.3-10l5.86,5.58c-3.16,3.14-5.24,7.26-9.06,10.08C57.33,84.35,57,81.14,54.58,80Z"/><path class="cls-7" d="M40,70.05a36.82,36.82,0,0,1,8.66,9.25c-5.33,7.3-5.34,7.31-11,.17-1-1.29-1.89-2.7-2.84-4Z"/><path class="cls-8" d="M57.85,50.18c3.2,2.32,4.29,8.77,2.25,13.33C58.29,67.56,54.27,69,48.59,68c-4.81-.88-6.17-4-5.84-8.3.27-3.36-1.63-7.5,3-9.46C49.82,50.41,53.83,50.2,57.85,50.18Z"/><path class="cls-9" d="M51.9,34.77c1.64,4.2-4.24,8.62.37,12.68C47.7,47.32,47.58,43.59,51.9,34.77Z"/><path class="cls-10" d="M57.85,50.18a15.16,15.16,0,0,1-12.05,0A18.63,18.63,0,0,1,57.85,50.18Z"/><path class="cls-11" d="M32,44.22c-1.27-1.29-1.71-2.32-1.15-3.71C32.56,41.18,33.22,42.15,32,44.22Z"/><path class="cls-12" d="M43.72,40.22a2.35,2.35,0,0,1-.34-3.63.72.72,0,0,1,1.21.21A2.65,2.65,0,0,1,43.72,40.22Z"/><path class="cls-13" d="M58.54,40.13a2.42,2.42,0,0,1-.39-3.51,1.35,1.35,0,0,1,1.13.21C60.12,38.14,59.56,39.13,58.54,40.13Z"/><path class="cls-14" d="M73.36,41.16c-.46,1.82-.63,3.46-1.87,3.23s-.53-1.51.07-2.23A8.46,8.46,0,0,1,73.36,41.16Z"/><path class="cls-15" d="M60,32.34c-1.38,1.09-2.44.77-3.72.76C57.28,31.68,58.26,31.14,60,32.34Z"/><path class="cls-16" d="M44.48,32.69a8.89,8.89,0,0,1-1.54.38c-.33,0-1.13.13-.76-.57a2.42,2.42,0,0,1,1.5-.86C44.12,31.52,44.57,31.78,44.48,32.69Z"/><path class="cls-17" d="M52,57.23c-2.54-.07-5.36.14-5.35-2.3,0-3.17,3.15-2.69,5.37-2.73,2,0,5.18-.69,5,2.33S53.53,56.72,52,57.23Z"/><path class="cls-18" d="M48.75,54.34c2-1.48,3.61-1.14,5.66-.71C52.66,55.77,51.07,55.47,48.75,54.34Z"/></g></g></svg>