<svg xmlns="http://www.w3.org/2000/svg" viewBox="0 0 104.88 104.46"><defs><style>.cls-1{fill:#feded1;}.cls-2{fill:#3b2645;}.cls-3{fill:#d9dce8;}.cls-4{fill:#8d3d3e;}.cls-5{fill:#f3a682;}.cls-6{fill:#8d3e3e;}.cls-7{fill:#863436;}.cls-8{fill:#852f33;}.cls-9{fill:#f4a682;}.cls-10{fill:#de855d;}.cls-11{fill:#e8936c;}.cls-12{fill:#ea9871;}.cls-13{fill:#e79570;}.cls-14{fill:#684951;}.cls-15{fill:#301b3b;}.cls-16{fill:#4d3247;}</style></defs><g id="Layer_2" data-name="Layer 2"><g id="Layer_1-2" data-name="Layer 1"><path class="cls-1" d="M19.1,91.24c-5.62-2.42-8.75-7.39-11.5-12.32C-2.87,60.17-2.64,40.91,9,23.23,18.81,8.35,33.29.29,52.17,0c23.37-.36,44.73,15.36,50.51,37.3,5.24,19.9,1.32,37.76-13.83,52.47a15.42,15.42,0,0,1-2.33,1.59c-4.5-7.56-12.81-8.08-20-10.76-1.63-2.06-.79-4.09.07-6.11a21.18,21.18,0,0,1,4-5.68C76,62.92,78.09,56.63,73,49.47a5.53,5.53,0,0,1-.29-1.5c.48-4.61,2.82-8.69,3.66-13.19a18.57,18.57,0,0,0,.29-11c-2.17-8.38-8-12.36-16.21-13.56a12.09,12.09,0,0,0-7.77.06c-6.74,1.09-11.37,4.56-12.74,11.53-.49,2.53-2.13,3.94-4.11,5.34-8.46,6-10.24,20.09-3.63,28.14,1.27,1.54,2.77,2.88,3.94,4.52,2.36,3.29,3.29,6.75.13,10-3.36,3.41-1.2,7.65-2.19,11.39a4.44,4.44,0,0,1-2,1.34C27.1,84.48,21.76,85.88,19.1,91.24Z"/><path class="cls-2" d="M66.83,79.93c3.34.8,6.68,1.64,10,2.41,5,1.14,8.49,3.83,9.66,9-6.13,6.87-14.39,9.73-22.9,12.1-2.95.8-4.07-.53-3.81-3.34.2-2.15.36-4.31.75-6.44C62,89,61.21,83.82,64,79.46,65.12,78.39,65.94,79.38,66.83,79.93Z"/><path class="cls-2" d="M19.1,91.24c0-6.18,4.75-7.42,9.25-8.88,1.71-.55,3.48-.89,5.22-1.33a3.75,3.75,0,0,1,5.32-1.1c3.37,4.55,2.26,10.18,3.68,15.2,0,2.65,1.8,5.35-.19,8C33.3,101.72,25.07,98.7,19.1,91.24Z"/><path class="cls-3" d="M42.38,103.08l-1.07-8.32c-.5-2,.28-3.4,2.27-3.66a55.65,55.65,0,0,1,16.4.1,2.25,2.25,0,0,1,2,2c-.32,2.59-.46,5.23-1,7.77s1,2.57,2.7,2.49C56.51,104.67,49.42,105,42.38,103.08Z"/><path class="cls-4" d="M38.59,80.21l-5,.82c-1.37-4.85-1.22-9.16,2.53-13.31,3-3.3.11-6.22-2.35-8.49C26.29,52.36,25.63,44.09,28.39,35c1.49-4.88,5.25-7.46,9-10.62,3-2.54,1.88-8.84,6.07-11.83,2.75-2,5.6-3.55,9.13-3.36a54.07,54.07,0,0,0,8-.05c8.88.82,15.07,5.94,17,14.07,0,4-.16,8-.21,12q-1.84,6.66-3.68,13.33c-5.37.07-9.11-2.23-11-7.41-1.23-3.43-3.79-4.8-7.38-4.63-3.34.15-6.65,0-9.59-2-2.27-1.54-3.69-.4-4.73,1.68a18.47,18.47,0,0,0-2,5.63c-.36,2.55-1,4.57-3.58,6.06s-2.38,5.35.88,7.92c4.15,3.26,6.67,7.75,9.94,11.68a9.29,9.29,0,0,1,.32,4.62C45.57,76.37,44.35,80.57,38.59,80.21Z"/><path class="cls-5" d="M45.39,67.4c-4.73-3.13-6.74-8.69-11.27-12.24-3.66-2.86-2.52-6.93,1.64-8.86,1.68-.78,1.6-1.9,1.75-3.14A21.48,21.48,0,0,1,40,35.61c1.63-3.07,3.09-6.05,7-1.81,2,2.21,5.33,1.43,8.14,1.26,4.49-.27,7.57,1.11,9.12,5.84.87,2.67,1.82,6.21,6.3,5.55,1-.15,2.16,1.34,3.25,2.07a.34.34,0,0,1-.14.45,5.35,5.35,0,0,1-1.16,6.77C67.61,59.45,65,65.26,59.85,68.61,53.81,71.78,49.24,71.4,45.39,67.4Z"/><path class="cls-6" d="M59.79,67.36A14.11,14.11,0,0,0,64.69,62a8.32,8.32,0,0,1,4.22-4.41c3.48-1.6,4.39-5,4.71-8.59C79,57.06,78.68,61.5,72,69.21c-2.7,3.1-5.73,6-5.16,10.72l-2.31-.66c-2.58,1.13-3.49-.84-4.4-2.51a14.78,14.78,0,0,1-1.68-5.57A5,5,0,0,1,59.79,67.36Z"/><path class="cls-7" d="M77.44,35.19c-1.22-4-1.52-8,.21-12C79.2,27.25,78.69,31.22,77.44,35.19Z"/><path class="cls-8" d="M60.65,9.16a7.2,7.2,0,0,1-8,.05A11.73,11.73,0,0,1,60.65,9.16Z"/><path class="cls-9" d="M59.56,71.23c1.29,2.9.7,7,5,8q-1.3,7-2.59,13.94c-6.14-1.93-12.44-.5-18.66-.86-1.61-.09-1.63,1.35-2,2.41q-1.37-7.28-2.72-14.55c4.24-1,5.93-4.23,7-8C50.16,70.65,54.76,69.52,59.56,71.23Z"/><path class="cls-10" d="M59.56,71.23c-4.67.22-9.25,1.67-14,1-.07-1.6-.13-3.2-.2-4.8,4.81,2.65,9.61,2.83,14.4,0C59.71,68.65,59.64,69.94,59.56,71.23Z"/><path class="cls-11" d="M51.93,45.8c-.35,3-.7,5.9-1.09,9.15C49.33,51.65,49.33,51.65,51.93,45.8Z"/><path class="cls-12" d="M70.59,49.62c-.38,1.32,1.65,3.13-.65,4a1.93,1.93,0,0,1-1.64-.82C67.42,50.93,69.11,50.39,70.59,49.62Z"/><path class="cls-13" d="M48.77,59.59l6-.73C53.16,61,51.45,62.08,48.77,59.59Z"/><path class="cls-14" d="M60.43,41.44l-3.28.5C57.88,39.83,59.11,40.38,60.43,41.44Z"/><path class="cls-15" d="M45.39,45.52c.86.26.92.86.86,1.51a1,1,0,0,1-1.26,1c-.22,0-.46-.83-.42-1.24S44.51,45.48,45.39,45.52Z"/><path class="cls-16" d="M59.56,46.44c0,.78-.05,1.46-.77,1.64S57.61,47.64,57.7,47a2.1,2.1,0,0,1,.79-1.49C59.28,45.17,59.47,45.92,59.56,46.44Z"/></g></g></svg>