<svg width="43" height="43" viewBox="0 0 43 43" fill="none" xmlns="http://www.w3.org/2000/svg">
<g clip-path="url(#clip0)">
<path d="M21.4298 33.5931C20.5044 33.5931 19.7543 32.843 19.7543 31.9176C19.7543 30.9922 20.5044 30.2421 21.4298 30.2421C22.3552 30.2421 23.1053 30.9922 23.1053 31.9176C23.1053 32.843 22.3552 33.5931 21.4298 33.5931ZM23.1053 26.0535V23.8037C26.3449 23.02 28.5895 20.0807 28.4615 16.7569C28.3224 13.1377 25.3531 10.1948 21.7014 10.058C19.7504 9.98407 17.9081 10.6831 16.5153 12.0244C15.1465 13.3428 14.3928 15.1119 14.3928 17.006C14.3928 17.9314 15.1429 18.6814 16.0683 18.6814C16.9937 18.6814 17.7438 17.9314 17.7438 17.006C17.7438 16.0308 18.1329 15.1188 18.8397 14.4381C19.5708 13.7342 20.5417 13.368 21.5757 13.4063C23.4872 13.4783 25.0409 15.0065 25.1132 16.8859C25.1803 18.6373 23.9715 20.1848 22.2381 20.565C20.7756 20.886 19.7543 22.1498 19.7543 23.6388V26.0535C19.7543 26.9789 20.5044 27.7289 21.4298 27.7289C22.3552 27.7289 23.1053 26.9789 23.1053 26.0535ZM32.6103 39.8011C33.4018 39.3217 33.6548 38.2916 33.1754 37.5003C32.6957 36.7087 31.6655 36.4558 30.8742 36.9352C28.06 38.6397 24.8229 39.541 21.5136 39.541C11.5361 39.541 3.41856 31.4235 3.41856 21.4459C3.41856 11.4684 11.5361 3.35093 21.5136 3.35093C31.4911 3.35093 39.6086 11.4684 39.6086 21.4459C39.6086 25.0138 38.5477 28.4865 36.5404 31.4892C36.026 32.2583 36.2328 33.2989 37.0018 33.8133C37.7711 34.3277 38.8118 34.1209 39.3259 33.3516C41.7032 29.7961 42.9595 25.6791 42.9595 21.4459C42.9595 15.7176 40.7287 10.3319 36.6782 6.28136C32.6276 2.23079 27.2419 0 21.5136 0C15.7853 0 10.3995 2.23079 6.34898 6.28136C2.29842 10.3319 0.067627 15.7176 0.067627 21.4459C0.067627 27.1743 2.29842 32.56 6.34898 36.6105C10.3995 40.6611 15.7853 42.8919 21.5136 42.8919C25.4352 42.8919 29.2724 41.8231 32.6103 39.8011Z" fill="#95A0B0"/>
</g>
<defs>
<clipPath id="clip0">
<rect width="42.8919" height="42.8919" fill="white" transform="translate(0.067627)"/>
</clipPath>
</defs>
</svg>
