<svg width="34" height="33" viewBox="0 0 34 33" fill="none" xmlns="http://www.w3.org/2000/svg">
<g clip-path="url(#clip0)">
<path d="M33.0853 13.2621L17.6158 1.93563C17.3175 1.71726 16.9122 1.71726 16.614 1.93563L1.14435 13.2621C0.766491 13.5388 0.684394 14.0694 0.961091 14.4473C1.23779 14.8251 1.76843 14.9071 2.14622 14.6305L17.1148 3.67071L32.0835 14.6304C32.2344 14.741 32.4098 14.7943 32.5837 14.7943C32.8448 14.7943 33.1024 14.6741 33.2685 14.4472C33.5453 14.0694 33.4632 13.5388 33.0853 13.2621Z" fill="#95A0B0"/>
<path d="M28.9862 14.8224C28.518 14.8224 28.1383 15.2021 28.1383 15.6704V29.1673H21.3549V21.7998C21.3549 19.4618 19.4527 17.5598 17.1149 17.5598C14.777 17.5598 12.8748 19.462 12.8748 21.7998V29.1674H6.09139V15.6704C6.09139 15.2021 5.71169 14.8225 5.24345 14.8225C4.77521 14.8225 4.39551 15.2021 4.39551 15.6704V30.0154C4.39551 30.4837 4.77521 30.8633 5.24345 30.8633H13.7228C14.1687 30.8633 14.5336 30.5188 14.5674 30.0814C14.5694 30.0616 14.5707 30.04 14.5707 30.0154V21.7999C14.5707 20.397 15.712 19.2558 17.1149 19.2558C18.5177 19.2558 19.659 20.3971 19.659 21.7999V30.0154C19.659 30.0398 19.6603 30.0611 19.6623 30.0807C19.6957 30.5184 20.0608 30.8633 20.5069 30.8633H28.9863C29.4546 30.8633 29.8342 30.4837 29.8342 30.0154V15.6704C29.8341 15.2021 29.4545 14.8224 28.9862 14.8224Z" fill="#95A0B0"/>
</g>
<defs>
<clipPath id="clip0">
<rect width="32.6351" height="32.6351" fill="white" transform="translate(0.797241)"/>
</clipPath>
</defs>
</svg>
