<svg width="43" height="43" viewBox="0 0 43 43" fill="none" xmlns="http://www.w3.org/2000/svg">
<g clip-path="url(#clip0)">
<path d="M19.7264 32.1689C19.7264 33.1554 20.5271 33.9561 21.5136 33.9561C22.5001 33.9561 23.3008 33.1554 23.3008 32.1689V10.723C23.3008 9.73645 22.5001 8.93581 21.5136 8.93581C20.5271 8.93581 19.7264 9.73645 19.7264 10.723V32.1689Z" fill="#95A0B0"/>
<path d="M1.85479 10.723C0.868272 10.723 0.067627 11.5236 0.067627 12.5101V30.3818C0.067627 31.3683 0.868272 32.1689 1.85479 32.1689C2.84131 32.1689 3.64195 31.3683 3.64195 30.3818V12.5101C3.64195 11.5236 2.84131 10.723 1.85479 10.723Z" fill="#95A0B0"/>
<path d="M17.0456 28.5946V14.2973C17.0456 13.3108 16.245 12.5101 15.2585 12.5101C14.272 12.5101 13.4713 13.3108 13.4713 14.2973V28.5946C13.4713 29.5811 14.272 30.3818 15.2585 30.3818C16.245 30.3818 17.0456 29.5811 17.0456 28.5946Z" fill="#95A0B0"/>
<path d="M9.00347 26.8074C9.98999 26.8074 10.7906 26.0068 10.7906 25.0203V17.8716C10.7906 16.8851 9.98999 16.0845 9.00347 16.0845C8.01695 16.0845 7.21631 16.8851 7.21631 17.8716V25.0203C7.21631 26.0068 8.01695 26.8074 9.00347 26.8074Z" fill="#95A0B0"/>
<path d="M29.5558 28.5946V14.2973C29.5558 13.3108 28.7551 12.5101 27.7686 12.5101C26.7821 12.5101 25.9814 13.3108 25.9814 14.2973V28.5946C25.9814 29.5811 26.7821 30.3818 27.7686 30.3818C28.7551 30.3818 29.5558 29.5811 29.5558 28.5946Z" fill="#95A0B0"/>
<path d="M41.1724 10.723C40.1859 10.723 39.3853 11.5236 39.3853 12.5101V30.3818C39.3853 31.3683 40.1859 32.1689 41.1724 32.1689C42.1589 32.1689 42.9596 31.3683 42.9596 30.3818V12.5101C42.9596 11.5236 42.1589 10.723 41.1724 10.723Z" fill="#95A0B0"/>
<path d="M34.0237 16.0845C33.0372 16.0845 32.2366 16.8851 32.2366 17.8716V25.0203C32.2366 26.0068 33.0372 26.8074 34.0237 26.8074C35.0102 26.8074 35.8109 26.0068 35.8109 25.0203V17.8716C35.8109 16.8851 35.0102 16.0845 34.0237 16.0845Z" fill="#95A0B0"/>
<path d="M19.7264 41.1047C19.7264 42.0912 20.5271 42.8919 21.5136 42.8919C22.5001 42.8919 23.3008 42.0912 23.3008 41.1047V39.3176C23.3008 38.331 22.5001 37.5304 21.5136 37.5304C20.5271 37.5304 19.7264 38.331 19.7264 39.3176V41.1047Z" fill="#95A0B0"/>
<path d="M21.5136 5.36149C22.5001 5.36149 23.3008 4.56084 23.3008 3.57432V1.78716C23.3008 0.800645 22.5001 0 21.5136 0C20.5271 0 19.7264 0.800645 19.7264 1.78716V3.57432C19.7264 4.56084 20.5271 5.36149 21.5136 5.36149Z" fill="#95A0B0"/>
</g>
<defs>
<clipPath id="clip0">
<rect width="42.8919" height="42.8919" fill="white" transform="translate(0.067627)"/>
</clipPath>
</defs>
</svg>
