<svg width="43" height="43" viewBox="0 0 43 43" fill="none" xmlns="http://www.w3.org/2000/svg">
<g clip-path="url(#clip0)">
<path d="M23.5152 42.8919H19.512C18.1591 42.8919 17.0171 41.8786 16.8562 40.5328L16.4291 37.1801C15.5766 36.9031 14.7545 36.5618 13.9735 36.1632L11.3035 38.2381C10.2205 39.0763 8.69605 38.9798 7.756 38.0129L4.94122 35.1982C3.98151 34.267 3.88501 32.7426 4.72318 31.6614L6.79808 28.9896C6.39776 28.2086 6.05641 27.3865 5.78118 26.534L2.42132 26.1069C1.08095 25.9424 0.067627 24.8004 0.067627 23.4476V19.4443C0.067627 18.0914 1.08095 16.9494 2.42668 16.7886L5.7794 16.3615C6.05641 15.509 6.39776 14.6869 6.79629 13.9059L4.72318 11.2359C3.88322 10.1529 3.98151 8.62663 4.95015 7.68658L7.76493 4.8718C8.69605 3.9121 10.2223 3.81738 11.3017 4.65377L13.9717 6.73045C14.7527 6.33192 15.5748 5.99057 16.4291 5.71356L16.8562 2.35369C17.0171 1.01332 18.1591 0 19.512 0H23.5152C24.8681 0 26.0101 1.01332 26.1709 2.35905L26.598 5.71177C27.4523 5.98878 28.2744 6.33013 29.0554 6.72867L31.7254 4.65377C32.8102 3.81559 34.3329 3.9121 35.2729 4.88074L38.0877 7.69552C39.0474 8.62663 39.1439 10.1511 38.3057 11.2323L36.2309 13.9041C36.6312 14.6851 36.9725 15.5072 37.2477 16.3597L40.6076 16.7868C41.9462 16.9494 42.9595 18.0914 42.9595 19.4443V23.4476C42.9595 24.8004 41.9462 25.9424 40.6005 26.1033L37.2477 26.5304C36.9707 27.3829 36.6294 28.205 36.2309 28.986L38.3057 31.656C39.1457 32.739 39.0474 34.2635 38.0788 35.2035L35.264 38.0183C34.3329 38.978 32.8067 39.0763 31.7272 38.2363L29.0554 36.1614C28.2744 36.5618 27.4523 36.9031 26.5998 37.1783L26.1727 40.5382C26.0101 41.8786 24.8681 42.8919 23.5152 42.8919ZM13.8824 34.2063C14.0307 34.2063 14.1826 34.2438 14.3185 34.3189C15.3032 34.8693 16.3701 35.3125 17.4889 35.6342C17.832 35.7325 18.084 36.0256 18.1287 36.3795L18.6291 40.3112C18.6827 40.7598 19.0705 41.1047 19.512 41.1047H23.5152C23.9566 41.1047 24.3444 40.7598 24.3963 40.3202L24.8985 36.3813C24.9431 36.0274 25.1951 35.7343 25.5383 35.636C26.657 35.3143 27.724 34.8711 28.7087 34.3207C29.0214 34.1455 29.411 34.1759 29.6916 34.3957L32.8192 36.8263C33.1784 37.1051 33.6824 37.0818 33.9898 36.7655L36.8224 33.9328C37.1459 33.6183 37.1709 33.1143 36.8921 32.7533L34.4616 29.6258C34.2417 29.3434 34.2114 28.9556 34.3865 28.6428C34.9369 27.6581 35.3802 26.5912 35.7019 25.4724C35.8001 25.1293 36.0932 24.8773 36.4471 24.8326L40.3789 24.3322C40.8274 24.2768 41.1724 23.889 41.1724 23.4476V19.4443C41.1724 19.0029 40.8274 18.6151 40.3878 18.5633L36.4489 18.0611C36.095 18.0164 35.8019 17.7644 35.7036 17.4213C35.382 16.3025 34.9387 15.2356 34.3883 14.2508C34.2132 13.9381 34.2417 13.5503 34.4634 13.2679L36.8939 10.1404C37.1745 9.77935 37.1495 9.27537 36.8349 8.97155L34.0023 6.1389C33.6895 5.81364 33.1837 5.78862 32.8227 6.0692L29.6952 8.49974C29.411 8.71956 29.0232 8.74995 28.7105 8.5748C27.7293 8.02436 26.6624 7.58293 25.5401 7.25945C25.1969 7.16116 24.9449 6.86806 24.9002 6.51421L24.3998 2.58245C24.3444 2.13208 23.9566 1.78716 23.5152 1.78716H19.512C19.0705 1.78716 18.6827 2.13208 18.6309 2.57173L18.1287 6.51063C18.084 6.86449 17.832 7.15758 17.4889 7.25767C16.3665 7.57935 15.2996 8.02257 14.3185 8.57123C14.0057 8.74816 13.6179 8.71599 13.3337 8.49796L10.2062 6.06742C9.84519 5.78683 9.343 5.81185 9.03739 6.12639L6.20474 8.96083C5.88127 9.27537 5.85625 9.77935 6.13504 10.1404L8.56558 13.2679C8.7854 13.5503 8.81579 13.9381 8.64064 14.2508C8.08841 15.2356 7.64698 16.3025 7.32529 17.4213C7.227 17.7644 6.9339 18.0164 6.58005 18.0611L2.64829 18.5615C2.19971 18.6151 1.85479 19.0029 1.85479 19.4443V23.4476C1.85479 23.889 2.19971 24.2768 2.63935 24.3286L6.57826 24.8308C6.93212 24.8755 7.22521 25.1275 7.32351 25.4706C7.64519 26.5894 8.08841 27.6563 8.63886 28.6411C8.814 28.9538 8.7854 29.3416 8.5638 29.624L6.13326 32.7515C5.85267 33.1125 5.87769 33.6165 6.19223 33.9203L9.02488 36.753C9.33764 37.0765 9.83983 37.1015 10.2044 36.8227L13.3319 34.3921C13.4946 34.2706 13.6876 34.2063 13.8824 34.2063Z" fill="#95A0B0"/>
<path d="M21.5136 30.3817C16.5864 30.3817 12.5778 26.3731 12.5778 21.4459C12.5778 16.5187 16.5864 12.5101 21.5136 12.5101C26.4408 12.5101 30.4494 16.5187 30.4494 21.4459C30.4494 26.3731 26.4408 30.3817 21.5136 30.3817ZM21.5136 14.2973C17.5711 14.2973 14.3649 17.5035 14.3649 21.4459C14.3649 25.3884 17.5711 28.5946 21.5136 28.5946C25.456 28.5946 28.6622 25.3884 28.6622 21.4459C28.6622 17.5035 25.456 14.2973 21.5136 14.2973Z" fill="#95A0B0"/>
</g>
<defs>
<clipPath id="clip0">
<rect width="42.8919" height="42.8919" fill="white" transform="translate(0.067627)"/>
</clipPath>
</defs>
</svg>
