<svg width="43" height="43" viewBox="0 0 43 43" fill="none" xmlns="http://www.w3.org/2000/svg">
<g clip-path="url(#clip0)">
<path d="M35.1498 0H13.3963C13.3802 0 13.3654 0.00846308 13.3493 0.00930939C13.2842 0.0135409 13.2215 0.0262356 13.1598 0.0469701C13.1361 0.0554332 13.1128 0.0613573 13.0899 0.0719361C13.0112 0.107904 12.9368 0.153182 12.8733 0.216655L5.47825 7.6117C5.41478 7.67559 5.3695 7.75007 5.33353 7.82877C5.32295 7.8512 5.31703 7.87405 5.30899 7.89775C5.28741 7.95995 5.27471 8.02343 5.27091 8.08901C5.26964 8.10467 5.2616 8.11906 5.2616 8.13471V40.242C5.2616 41.7031 6.45024 42.8917 7.91223 42.8917H35.1498C36.6114 42.8917 37.8005 41.7031 37.8005 40.242V2.65021C37.8005 1.18864 36.6114 0 35.1498 0V0ZM12.6566 2.52454V6.22417C12.6566 6.86991 12.1311 7.39504 11.4853 7.39504H7.78656L12.6566 2.52454ZM36.3211 40.242C36.3211 40.8873 35.7955 41.4128 35.1498 41.4128H7.91223C7.2665 41.4128 6.74052 40.8873 6.74052 40.242V8.87439H11.4853C12.9469 8.87439 14.136 7.68532 14.136 6.22417V1.47892H35.1498C35.7955 1.47892 36.3211 2.00448 36.3211 2.65021V40.242Z" fill="#95A0B0"/>
<path d="M29.4748 14.0758L18.3822 17.0336C18.0585 17.12 17.8334 17.4132 17.8334 17.7484V26.7154C17.0535 26.197 16.0236 25.8831 14.8751 25.8831C12.3874 25.8831 10.4384 27.3446 10.4384 29.2108C10.4384 31.0769 12.3874 32.5389 14.8751 32.5389C17.3633 32.5389 19.3123 31.0769 19.3123 29.2108C19.3123 29.1164 19.3039 29.0237 19.2941 28.9315C19.2979 28.9006 19.3123 28.8731 19.3123 28.8409V22.0142L28.9259 19.4503V25.2365C28.1461 24.7177 27.1161 24.4037 25.9681 24.4037C23.48 24.4037 21.5309 25.8653 21.5309 27.7318C21.5309 29.5979 23.48 31.0595 25.9681 31.0595C28.4558 31.0595 30.4049 29.5979 30.4049 27.7318C30.4049 27.637 30.3964 27.5444 30.3867 27.4521C30.3905 27.4212 30.4049 27.3942 30.4049 27.362V14.7901C30.4049 14.5603 30.2982 14.3437 30.1163 14.2036C29.9343 14.0639 29.6974 14.017 29.4748 14.0758ZM14.8751 31.0595C13.2718 31.0595 11.9173 30.2128 11.9173 29.2108C11.9173 28.2087 13.2718 27.362 14.8751 27.362C16.4785 27.362 17.8334 28.2087 17.8334 29.2108C17.8334 30.2128 16.4785 31.0595 14.8751 31.0595ZM19.3123 20.4832V18.3162L28.9259 15.7532V17.9197L19.3123 20.4832ZM25.9681 29.5806C24.3648 29.5806 23.0098 28.7339 23.0098 27.7318C23.0098 26.7298 24.3648 25.8831 25.9681 25.8831C27.5714 25.8831 28.9259 26.7298 28.9259 27.7318C28.9259 28.7339 27.5714 29.5806 25.9681 29.5806Z" fill="#95A0B0"/>
</g>
<defs>
<clipPath id="clip0">
<rect width="42.8919" height="42.8919" fill="white" transform="translate(0.067627)"/>
</clipPath>
</defs>
</svg>
