<svg xmlns="http://www.w3.org/2000/svg" viewBox="0 0 119.58 163.57"><defs><style>.cls-1{fill:#362822;}.cls-2{fill:#bc5a76;}.cls-3{fill:#421b05;}.cls-4{fill:#f9ca9b;}.cls-5{fill:#f4ac8c;}.cls-6{fill:#4e2e1b;}.cls-7{fill:#7b5e61;}</style></defs><g id="Layer_2" data-name="Layer 2"><g id="Layer_1-2" data-name="Layer 1"><path class="cls-1" d="M5.33,121.69C-.25,96.58-2.31,71.33,3.39,46c3-13.43,8.77-25.45,20-34.17,31.16-24.12,79.41-9.48,91,28,6.92,22.41,6.13,45.34,2.4,68.24-.75,4.59-1.77,9.14-2.66,13.7a2.67,2.67,0,0,0-2.43,2.12A61,61,0,0,1,100,143.59c-.57.64-.51,1.82-.74,2.76-3.53.45-4.32,5.1-8,5.26l0,0c.35-3.16,4.22-5.22,2.8-8.94,2.69-.37,2.5-2.78,3.06-4.53,2.18-6.82,2.34-14,2.92-21,.29-3.47,1.85-7.59-1.49-10.74-.17-.53.8-1.63,0-1.47s-2.4,1.1-1.27,2.72l0-.1c-3.66.15-5.4,4.87-9.91,4.12,1.57-3.37,4.52-5.6,5.38-9,1.76-3.11,3-6.34,2.57-10,3.48-9.07,2.18-17.82-1.9-26.32-.6-1.24-1.4-2.73-3.22-2.77l.07,0c0-.75-.54-.9-1.1-1C83.58,59,78,55.36,71.16,54.7h0C71,52.56,69.48,52.65,68,52.79a72.92,72.92,0,0,1-6.23-4c-1.45-1.13-2.41-1-3.85,0A115.52,115.52,0,0,1,35.13,61.55c-1.08.06-2.3-.23-3,1.05-.89-.61-1.63-.08-2.39.32-2.66,1.15-4.06,3.44-5,6a40.9,40.9,0,0,0,.29,29.07l.45,1.68c1.1,5.08,4.56,8.78,8.51,13.63-4.64-1.41-7.79-2.8-10-5.84,0-1-.08-1.94-1.31-2a8.94,8.94,0,0,0-.41,2l-.13.25-1.93-1.16c-.14-.4-.29-.8-.44-1.2-.11.09-.33.23-.33.25.21.35.45.69.68,1-2.45,8.07-.06,16,.61,24,.37,4.46,1.26,8.83,4.73,12.14-1.34,2.73,1.3,4.82,1.51,7.73a5,5,0,0,1-3.8-3.05c-.1-.65,0-1.7-.33-1.89-7.44-3.9-9.53-11.7-13.59-18.11C8.08,125.56,8.23,122.51,5.33,121.69Z"/><path class="cls-2" d="M23.23,147.51a5,5,0,0,0,3.8,3.05c-.21-2.91-2.85-5-1.51-7.73L27,142.5c1.31.06,1.95,1,2.74,1.88,2.29,2.59,4.44,5.42,7.14,7.52C50,162.09,67,164.56,82.33,152.32c3.82-3,6.28-7.2,10.1-10.09l1.59.47c1.42,3.72-2.45,5.78-2.8,8.94a1.46,1.46,0,0,0-.42.19c-.06,0,0,.21,0,.32l.42-.54c3.73-.16,4.52-4.81,8-5.26,5.18,3,8.3,7.92,12,12.32.89,3.38.27,4.92-3.91,4.9-31.62-.19-63.24-.1-94.86-.14-1.91,0-4.82,1-4.07-2.93a34,34,0,0,1,9.66-12.27C19.67,146.85,21.24,145.87,23.23,147.51Z"/><path class="cls-3" d="M23.23,147.51c-2-1.64-3.56-.66-5.18.72A34,34,0,0,0,8.39,160.5c-1.94-12.86-1-25.95-3.06-38.81,2.9.82,2.75,3.87,4,5.82,4.06,6.41,6.15,14.21,13.59,18.11C23.24,145.81,23.13,146.86,23.23,147.51Z"/><path class="cls-3" d="M111.23,158.67c-3.7-4.4-6.82-9.37-12-12.32.23-.94.17-2.12.74-2.76a61,61,0,0,0,11.71-19.78,2.67,2.67,0,0,1,2.43-2.12c-.92,8.51-1.94,17-2.7,25.54-.3,3.44,0,6.93,0,10.39,0,.35-.09.7-.13,1Z"/><path class="cls-2" d="M111.24,158.66c0-.34.09-.69.13-1a6,6,0,0,1,.22.8C111.59,158.49,111.36,158.58,111.24,158.66Z"/><path class="cls-4" d="M25.11,97.94a40.9,40.9,0,0,1-.29-29.07c.91-2.51,2.31-4.8,5-6l.6.93c-1.21,2-2.09,4,1.68,3.25,3.46-.69,6.84-1.11,10.29-.13,1,.29,2.34,1.25,2.86-.5.38-1.26-.56-2.21-1.53-2.86-2.5-1.66-5.35-1.43-8.16-1.37-.13-.23-.26-.47-.4-.69A115.52,115.52,0,0,0,57.87,48.82c1.44-1,2.4-1.12,3.85,0a72.92,72.92,0,0,0,6.23,4,5.35,5.35,0,0,0,3.21,1.91h0c3.55,3,8.13,4.21,12.71,6.83-3.05,1-5.91.5-8,2.3-.88.76-1.84,1.69-1.27,3s1.68.59,2.57.32A15.87,15.87,0,0,1,87,67c3.84,1.27,3.51-1,3.21-3.4,1.82,0,2.62,1.53,3.22,2.77,4.08,8.5,5.38,17.25,1.9,26.32a8.92,8.92,0,0,1-1.61-1.13,5.74,5.74,0,0,0-7.22-1.34c-2.83,1.39-3.74,4-3.25,7.12.92,5.74,5.34,5.35,9.51,5.37-.86,3.4-3.81,5.63-5.38,9,4.51.75,6.25-4,9.91-4.12-2.33,5.58-6.66,9.4-11.39,12.85-4.24,3.08-9.42,4-14,6.29-1.36,2-.56,4.2-.58,6.29-.07,5.88-2.59,9.31-8.24,10.83q-10.62,2.88-15-9.28c.05-1.83.07-3.65.17-5.47s-.35-3-2.49-3.54c-10.31-2.61-18-8.75-23.53-17.82l.13-.25,1.72-.08c2.23,3,5.38,4.43,10,5.84-3.95-4.85-7.41-8.55-8.51-13.63.87-.5,1.39-.28,2,.58,2.34,3.37,5.27,3.28,8,.72s2.21-6,.37-8.93c-1.51-2.45-4.11-3-6.61-2.13C25.5,91.12,24.91,94.4,25.11,97.94Zm54-22.16c-2,3.23-1.46,6,1.77,8,2.46,1.53,4.51.42,6-1.62A5.19,5.19,0,0,0,86.28,75c-2.3-2.36-4.68-1.85-6.85.38A3.16,3.16,0,0,1,79.06,75.78Zm-41.39,8.7c3.25-.66,5.09-2.61,4.87-5.88-.19-2.94-1.87-5.35-5-5a5.2,5.2,0,0,0-4.88,5.65C32.81,82.34,34.69,84,37.67,84.48Zm9.61,22.85c6.82,5.94,19.14,5.93,25.16-.52C63.57,110.77,55.84,109.88,47.28,107.33Zm39.59,4.48-.66.36c.11.1.24.31.33.29a2.73,2.73,0,0,0,.65-.3Z"/><path class="cls-3" d="M22.2,107.74c5.48,9.07,13.22,15.21,23.53,17.82,2.14.54,2.6,1.67,2.49,3.54s-.12,3.64-.17,5.47c-4.39,2.11-9.51,2-13.78,4.46A24.92,24.92,0,0,0,27,142.5l-1.51.33c-3.47-3.31-4.36-7.68-4.73-12.14-.67-8-3.06-16-.61-24l.09-.09Z"/><path class="cls-3" d="M71.85,126.73c4.6-2.25,9.78-3.21,14-6.29,4.73-3.45,9.06-7.27,11.39-12.85l0,.1,1.28-1.25c3.34,3.15,1.78,7.27,1.49,10.74-.58,7-.74,14.17-2.92,21-.56,1.75-.37,4.16-3.06,4.53l-1.59-.47-7.2-3.44c-2.65-.89-5.25-2-8-2.62-3.56-.84-6.18-2.09-5.25-6.5A10.92,10.92,0,0,0,71.85,126.73Z"/><path class="cls-5" d="M92.73,102.71c-4.17,0-8.59.37-9.51-5.37-.49-3.07.42-5.73,3.25-7.12a5.74,5.74,0,0,1,7.22,1.34,8.92,8.92,0,0,0,1.61,1.13C95.78,96.37,94.49,99.6,92.73,102.71Z"/><path class="cls-5" d="M25.11,97.94c-.2-3.54.39-6.82,4.22-8.08,2.5-.83,5.1-.32,6.61,2.13,1.84,3,2.53,6.23-.37,8.93s-5.68,2.65-8-.72c-.6-.86-1.12-1.08-2-.58Z"/><path class="cls-6" d="M90.18,63.6c.3,2.42.63,4.67-3.21,3.4a15.87,15.87,0,0,0-9.78.11c-.89.27-2,.93-2.57-.32s.39-2.2,1.27-3c2.07-1.8,4.93-1.33,8-2.3-4.58-2.62-9.16-3.8-12.71-6.83,6.86.66,12.42,4.28,18,7.89-.54.2-.71.65-.36,1s1,.89,1.46,0Zm-3.24-1.55c-.69-.06-1.15-.12-1.61-.12-.11,0-.21.25-.32.38a4.36,4.36,0,0,0,.94.14A4.35,4.35,0,0,0,86.94,62.05Z"/><path class="cls-4" d="M98.51,106.44l-1.28,1.25c-1.13-1.62.47-2.55,1.27-2.72S98.34,105.91,98.51,106.44Z"/><path class="cls-6" d="M71.16,54.7A5.35,5.35,0,0,1,68,52.79C69.48,52.65,71,52.56,71.16,54.7Z"/><path class="cls-3" d="M24.05,107.41l-1.72.08a8.94,8.94,0,0,1,.41-2C24,105.47,24,106.46,24.05,107.41Z"/><path class="cls-4" d="M32.18,62.6c.65-1.28,1.87-1,3-1.05.14.22.27.46.4.69l-3.31.41Z"/><path class="cls-3" d="M20.18,106.67c-.23-.35-.47-.69-.68-1,0,0,.22-.16.33-.25.15.4.3.8.44,1.2Z"/><path class="cls-4" d="M90.25,63.63c-.49.89-1.07.43-1.46,0s-.18-.84.36-1C89.71,62.73,90.26,62.88,90.25,63.63Z"/><path class="cls-4" d="M29.79,62.92c.76-.4,1.5-.93,2.39-.32l0,0c-.19,1-1.12,1-1.83,1.2Z"/><path class="cls-7" d="M85.23,138.79l7.2,3.44c-3.82,2.89-6.28,7-10.1,10.09C67,164.56,50,162.09,36.91,151.9c-2.7-2.1-4.85-4.93-7.14-7.52-.79-.9-1.43-1.82-2.74-1.88A24.92,24.92,0,0,1,34.27,139c3.18,6.46,8.2,10.92,14.66,14C63.62,160.17,80.31,151,85.23,138.79Z"/><path class="cls-1" d="M91.18,151.61l-.42.54c0-.11,0-.27,0-.32a1.46,1.46,0,0,1,.42-.19Z"/><path class="cls-2" d="M85.23,138.79c-4.92,12.18-21.61,21.38-36.3,14.28-6.46-3.12-11.48-7.58-14.66-14,4.27-2.48,9.39-2.35,13.78-4.46q4.35,12.15,15,9.28c5.65-1.52,8.17-4.95,8.24-10.83,0-2.09-.78-4.31.58-6.29a11.33,11.33,0,0,1,.17,2.94c-.93,4.41,1.69,5.66,5.25,6.5C80,136.8,82.58,137.9,85.23,138.79Z"/><path class="cls-6" d="M37.67,84.48c-3-.47-4.86-2.14-5-5.2a5.2,5.2,0,0,1,4.88-5.65c3.14-.38,4.82,2,5,5C42.76,81.87,40.92,83.82,37.67,84.48Z"/><path class="cls-6" d="M79.43,75.33C81.6,73.1,84,72.59,86.28,75a5.19,5.19,0,0,1,.56,7.21c-1.5,2-3.55,3.15-6,1.62-3.23-2-3.74-4.77-1.77-8,0,.67.07,1.49.78,1.52.37,0,1.12-.86,1.1-1.31C80.91,75.23,80.1,75.2,79.43,75.33Z"/><path class="cls-6" d="M30.39,63.85c.71-.25,1.64-.16,1.83-1.2l3.31-.41c2.81-.06,5.66-.29,8.16,1.37,1,.65,1.91,1.6,1.53,2.86-.52,1.75-1.84.79-2.86.5-3.45-1-6.83-.56-10.29.13C28.3,67.85,29.18,65.85,30.39,63.85Z"/><path class="cls-5" d="M47.28,107.33c8.56,2.55,16.29,3.44,25.16-.52C66.42,113.26,54.1,113.27,47.28,107.33Z"/><path class="cls-1" d="M86.87,111.81l.32.35a2.73,2.73,0,0,1-.65.3c-.09,0-.22-.19-.33-.29Z"/><path class="cls-4" d="M86.94,62.05a4.35,4.35,0,0,1-1,.4,4.36,4.36,0,0,1-.94-.14c.11-.13.21-.38.32-.38C85.79,61.93,86.25,62,86.94,62.05Z"/><path class="cls-4" d="M79.43,75.33c.67-.13,1.48-.1,1.51.66,0,.45-.73,1.33-1.1,1.31-.71,0-.81-.85-.78-1.52A3.16,3.16,0,0,0,79.43,75.33Z"/></g></g></svg>