<svg xmlns="http://www.w3.org/2000/svg" viewBox="0 0 128.26 162.87"><defs><style>.cls-1{fill:#421b05;}.cls-2{fill:#f9ca9b;}.cls-3{fill:#7b5e61;}.cls-4{fill:#6a4e39;}.cls-5{fill:#53382d;}.cls-6{fill:#4e2e1b;}.cls-7{fill:#f4ac8c;}.cls-8{fill:#87481f;}</style></defs><g id="Layer_2" data-name="Layer 2"><g id="Layer_1-2" data-name="Layer 1"><path class="cls-1" d="M30.54,111.43c-4.82,1.53-13.83-2.76-16.34-7.86-.58-1.16-.69-2.49-2.15-3.13C7.17,98.32,5,94.6,5.74,89.26a3,3,0,0,0-.64-2.79C1.3,82.64.43,78.19,2.32,73.18a2.15,2.15,0,0,0-.46-2.3c-2.89-3.41-2.09-6.73.2-10,.28-.41.88-1.08.78-1.21C-.63,55.06,3,50.53,2.9,46c0-1-.55-2.32-.08-2.93C6.71,38,6.48,30.33,12.71,26.71c2.5-1.45,2-5.44,4.69-6.16,6-1.62,7.83-9.81,15-9.31,3.13-6,9.87-5.66,14.7-6.39A67.81,67.81,0,0,0,62.72.32a3.82,3.82,0,0,1,2.93,0c5.7,3.26,12.2,3.65,18.31,5.4a9.65,9.65,0,0,0,3.31.61c1,0,2.38-.24,2.91.3,4.49,4.54,12.17,4.25,15.57,10.32A4.54,4.54,0,0,0,108.89,19a7,7,0,0,1,5,4.49,5.11,5.11,0,0,0,3.16,3.57c.75.26,1.77.84,1.94,1.47,1.71,6.31,8.19,10.68,7,18.27-.37,2.39,2.09,5.32,1.51,7.54-1,3.73,1,7,.7,10-.55,6,.57,12.48-1.77,18.07-1.51,3.61-3.62,6.79-3.21,10.91a2.46,2.46,0,0,1-.65,1.84C117.67,99.35,115,105.78,109,108.7c-2.94,1.44-5.38,4.75-9.38,3.25-4.21-3.64-1.81-7.49-.41-11.34.59-1.63,2.55-2.92,1.46-5-3.2-6,1.37-12.34-.9-18.73-.81-2.29-1.12-5-2-7.61-1.7-5.06-4.63-7.42-9-9.12-1.65-.64-1.9-3.55-4.09-3.22-6.79,1-13.21-2.64-19.8-1.62-3.19.5-7.56-.84-8.7,0C51,59,44,54.92,39.24,60.55c-2.22,2.61-7.18,2.86-7.05,8,0,.74-1,1.81-1.86,2.19-2.31,1.08-2.11,2.5-1.16,4.41.75,1.51,1.23,3.57.39,4.83-1.95,2.91-.18,5.69-.44,8.39a37.94,37.94,0,0,0,2.54,18.35C32.3,108.31,31.38,110,30.54,111.43Z"/><path class="cls-2" d="M30.54,111.43c.84-1.47,1.76-3.12,1.12-4.71a37.94,37.94,0,0,1-2.54-18.35c.26-2.7-1.51-5.48.44-8.39.84-1.26.36-3.32-.39-4.83-1-1.91-1.15-3.33,1.16-4.41.81-.38,1.88-1.45,1.86-2.19-.13-5.14,4.83-5.39,7.05-8C44,54.92,51,59,56.07,55.32c1.14-.83,5.51.51,8.7,0,6.59-1,13,2.67,19.8,1.62,2.19-.33,2.44,2.58,4.09,3.22,4.42,1.7,7.35,4.06,9,9.12.89,2.64,1.2,5.32,2,7.61,2.27,6.39-2.3,12.71.9,18.73,1.09,2.06-.87,3.35-1.46,5-1.4,3.85-3.8,7.7.41,11.34-4.3,5.63-8.26,11.62-15.55,14a2.54,2.54,0,0,0-1.55,2.38c-7-.63-7.44-.23-6.77,6.76C74,143.7,71,146.76,64.29,146.62s-9.78-3.42-10.85-11.51c.45-6.67.45-6.67-5.77-7.2-4.94-3.47-10.57-6-14.5-10.85C31.78,115.33,30.45,113.76,30.54,111.43ZM82.73,82c-2.1,2.58-2.81,5.17.09,7.67a3.75,3.75,0,0,0,5.36.11,4.86,4.86,0,0,0,1.13-6.66c-1.63-2.64-4-3.21-6.62-1.08ZM84.92,67.6c-2.34.11-4.6.46-6.19,2.46-.74.93-1.39,2-.66,3.15s1.75.24,2.62,0a13.24,13.24,0,0,1,7.76-.29c1.29.34,3.14,1.75,3.91-.13s-1.08-3.13-2.67-4.08A10.93,10.93,0,0,0,84.92,67.6ZM51.21,72.06c-1-3.66-4-4.52-7.32-4.4s-6.5.55-7.33,4.49c-.25,1.23,1,1.69,2,1.31,3.57-1.29,7.08-1.56,10.64.08C50.47,74.1,51.09,73.45,51.21,72.06ZM48.65,86c-.27-2.69-1.27-5.06-4.3-5-2.78,0-4.5,2.07-4.76,4.77a4.25,4.25,0,0,0,4.3,5C46.81,90.87,48.18,88.76,48.65,86Zm4.68,25.86c5.67,4.22,17.34,4.22,22.32.46C68.29,113.1,61.49,113.68,53.33,111.88Z"/><path class="cls-3" d="M62.74,162.33c-16,1-32.1.16-48.15.41-3,0-2.83-1.52-1.89-3.51,1.75-3.7,4.71-6.4,7.85-8.83a58.19,58.19,0,0,1,15.09-8.51c.37,4.31,3.22,6.62,6.74,8.48C49.34,154.05,57.24,156.16,62.74,162.33Z"/><path class="cls-3" d="M94.27,142.88c8.78,2.54,15.7,7.75,21.22,14.9.9,1.16,1.86,2.66,1.18,4.13s-2.39.82-3.62.8c-15.47-.23-30.95.68-46.4-.46,2.73-4.3,7.37-6,11.65-7.84C84.58,151.74,90.54,148.94,94.27,142.88Z"/><path class="cls-4" d="M94.27,142.88c-3.73,6.06-9.69,8.86-16,11.53-4.28,1.82-8.92,3.54-11.65,7.84a5.14,5.14,0,0,1-3.91.08c-5.5-6.17-13.4-8.28-20.36-12-3.52-1.86-6.37-4.17-6.74-8.48.42-1.29.84-2.59,1.27-3.88,3.9.33,7.82-2.15,11.72.06-.1,4.83,2.45,8.15,6.16,10.81,2.15,4.91,6.45,8.17,11.21,7.74,3.93-.36,7.58-3.92,8.68-8.63,4-2.12,5.19-5.93,6-10,4.53-2.65,8.17-.05,11.91,2Z"/><path class="cls-5" d="M92.59,140c-3.74-2.06-7.38-4.66-11.91-2-1.77-.8-3.74-1.28-5-3-.67-7-.27-7.39,6.77-6.76C87.25,131,92.46,133.32,92.59,140Z"/><path class="cls-5" d="M48.63,138.07c-3.9-2.21-7.82.27-11.72-.06,1.18-5.93,6.31-7.66,10.76-10.1,6.22.53,6.22.53,5.77,7.2C52.61,137.35,49.87,136.5,48.63,138.07Z"/><path class="cls-6" d="M48.63,138.07c1.24-1.57,4-.72,4.81-3,1.07,8.09,4.16,11.37,10.85,11.51S74,143.7,75.7,135c1.24,1.7,3.21,2.18,5,3-.81,4-2,7.85-6,10-6.5,3.28-13.16,2.91-19.89.89C51.08,146.22,48.53,142.9,48.63,138.07Z"/><path class="cls-1" d="M84.92,67.6a10.93,10.93,0,0,1,4.77,1.06c1.59,1,3.49,2.07,2.67,4.08s-2.62.47-3.91.13a13.24,13.24,0,0,0-7.76.29c-.87.29-1.88,1.19-2.62,0S78,71,78.73,70.06C80.32,68.06,82.58,67.71,84.92,67.6Z"/><path class="cls-1" d="M51.21,72.06c-.12,1.39-.74,2-2,1.48-3.56-1.64-7.07-1.37-10.64-.08-1,.38-2.3-.08-2-1.31.83-3.94,4.13-4.37,7.33-4.49S50.17,68.4,51.21,72.06Z"/><path class="cls-6" d="M82.69,82.05c2.61-2.13,5-1.56,6.62,1.08a4.86,4.86,0,0,1-1.13,6.66,3.75,3.75,0,0,1-5.36-.11c-2.9-2.5-2.19-5.09-.09-7.67-.49.89-.41,1.56.76,1.64.49,0,1.11-.3.78-.8S83.23,82.3,82.69,82.05Z"/><path class="cls-6" d="M48.65,86c-.47,2.74-1.84,4.85-4.76,4.71a4.25,4.25,0,0,1-4.3-5c.26-2.7,2-4.74,4.76-4.77C47.38,81,48.38,83.33,48.65,86Z"/><path class="cls-7" d="M53.33,111.88c8.16,1.8,15,1.22,22.32.46C70.67,116.1,59,116.1,53.33,111.88Z"/><path class="cls-8" d="M54.79,148.88c6.73,2,13.39,2.39,19.89-.89-1.1,4.71-4.75,8.27-8.68,8.63C61.24,157.05,56.94,153.79,54.79,148.88Z"/><path class="cls-2" d="M82.69,82.05c.54.25,1.3.37,1.58.8s-.29.83-.78.8c-1.17-.08-1.25-.75-.76-1.64Z"/></g></g></svg>