<svg xmlns="http://www.w3.org/2000/svg" viewBox="0 0 113.84 159.9"><defs><style>.cls-1{fill:#f9ca9b;}.cls-2{fill:#4e2e1b;}.cls-3{fill:#f4ac8c;}.cls-4{fill:#7b5e61;}.cls-5{fill:#f4a2b0;}</style></defs><g id="Layer_2" data-name="Layer 2"><g id="Layer_1-2" data-name="Layer 1"><path class="cls-1" d="M45.84,128.61c.79-6.58-5.16-6-8.58-7.62-6.6-3.23-12.18-7-16-13.78-2.65-4.72-4.52-9.8-7.38-14.37.58-1.83,2.26-3.74-.32-5.38-1.76-1.11,0-1.81.3-2.69C16.06,76,15.45,66.93,16.59,58c2-15.72,5.32-18.59,20.77-15.35a89.18,89.18,0,0,0,40-.23,34,34,0,0,1,7.42-.74c6.8-.09,9.38,1.87,11.06,8.33a42.26,42.26,0,0,1,1.27,6.86c.68,7.61,1.12,15.25,1.91,22.85.18,1.71-1,4.76,2.7,4.63-.94,2.75-2.41,5.37-1.82,8.45-1.48,3.28-3,6.55-4.43,9.86-4.33,10-12,16.48-22.19,19.69-4,1.25-4.72,3-3.41,6.41-3.52.64-6.23,2.85-9.07,4.75-2.29,1.54-4.59,1.92-6.89.54C51.13,132.42,48.52,130.45,45.84,128.61ZM79,71.75c-2.18,1.14-4.51,2.42-4.24,5.86.23,3,2,4.8,4.7,4.8,3.33,0,5.18-2.35,5-5.58C84.31,74,82.73,71.85,79,71.75ZM40,76.81c-.52-2.91-1.92-5.14-5.13-4.93-3,.2-4.69,2.41-4.7,5.26,0,3.23,1.9,5.46,5.26,5.24C38.49,82.17,39.69,79.73,40,76.81ZM78.63,57.6c-2.39,0-4.68.39-6.26,2.4-.81,1-1.74,2.29-.85,3.58s2.14.27,3.15-.1a12.75,12.75,0,0,1,7.8-.26c1.43.38,3.39,2.14,4.32,0s-1.11-3.56-2.86-4.58A10.27,10.27,0,0,0,78.63,57.6Zm-35.95,5A5.2,5.2,0,0,0,38.47,58c-3.84-.81-7.64-.94-10.62,2.35-.83.91-1.45,2.06-.72,3.14.62.92,1.84.6,2.77.24A13,13,0,0,1,40.54,64C42.07,64.68,42.71,64,42.68,62.56Zm25.62,43.3c-7.07,2.32-14.32.79-21.45,1C54.2,109.31,61.46,110.24,68.3,105.86Z"/><path class="cls-2" d="M101.73,84.38c-3.68.13-2.52-2.92-2.7-4.63-.79-7.6-1.23-15.24-1.91-22.85A42.26,42.26,0,0,0,95.85,50c-1.68-6.46-4.26-8.42-11.06-8.33a34,34,0,0,0-7.42.74,89.18,89.18,0,0,1-40,.23C21.91,39.44,18.59,42.31,16.59,58c-1.14,8.9-.53,18-2.7,26.74-2.61-.61-2.26-3.09-2.69-4.8-1.08-4.3-1.74-8.7-2.56-13.06C7.26,54.67,5.63,42.46,5.9,30.1,6,25.44,6.26,21,12,19.56c1.57-.39,2-2.08,2.72-3.41,1.45-2.74,3.31-4.63,6.77-3.23a3.14,3.14,0,0,0,3.61-1,17.2,17.2,0,0,0,1.7-1.82c3-4.17,7.64-1,11.06-2.39s5.54-6.46,10.22-2.58c1.49,1.23,2-.29,2.71-1,5.45-5.45,6.82-5.49,12.43.26,1.21,1.23,1.75,1.34,3.18.32C69,2.81,71.55,3.43,73.47,5.8s4,2.65,6.68,2A5.58,5.58,0,0,1,85.77,9c2.61,2.67,5.1,5.28,9.33,3.46a.63.63,0,0,1,.48.11c.81.55,2.18,1,2.32,1.7,1.23,6.22,10.47,5.93,10.22,14.07-.4,12.84-1.4,25.58-2.84,38.31q-1.11,6.63-2.23,13.27c-.37,1.32-.74,2.65-1.12,4A.35.35,0,0,0,101.73,84.38Z"/><path class="cls-3" d="M45.84,128.61c2.68,1.84,5.29,3.81,8.08,5.47,2.3,1.38,4.6,1,6.89-.54,2.84-1.9,5.55-4.11,9.07-4.75,3.77.65,6.43,3.6,9.94,4.8-3,1.06-3.8,3.92-5.16,6.32a52.58,52.58,0,0,0-3.92,5.71c-1.44,2.78-2.81,1-4.27.25-2.3-2.54-4.55-5.12-6.92-7.59-.87-.9-2.22-2.36-3.32-1.25-3,3-7.36,4.92-8.26,9.71-2.48,1.16-4.26.52-5.5-2-1-2-2.2-3.95-3.31-5.91-2-1.5-2-4.95-5.15-5.28C38.06,132.2,41.14,128.5,45.84,128.61Z"/><path class="cls-4" d="M34,133.6c3.18.33,3.17,3.78,5.15,5.28-.74,7,1.68,13.94.9,21l-18.13-.19,4.2-21.62,0,0c.29-.37.58-.73.86-1.1A22.17,22.17,0,0,1,34,133.6Z"/><path class="cls-4" d="M74.66,139.91c1.36-2.4,2.16-5.26,5.16-6.32,2.92,1,6,1.77,7.86,4.55l4.26,21.59-18.18.06Z"/><path class="cls-5" d="M91.94,159.73l-4.26-21.59c9.79,3,18.49,7.74,24.16,16.59,2.26,3.52,1.17,5-3,5.07C103.19,159.85,97.56,159.76,91.94,159.73Z"/><path class="cls-5" d="M26.13,138.05l-4.2,21.62c-5.65.06-11.31.15-17,.16-1.27,0-2.85.45-3.63-1-1-1.71,0-3.35,1-4.6A45.16,45.16,0,0,1,26.13,138.05Z"/><path class="cls-4" d="M48,146.74c.9-4.79,5.29-6.69,8.26-9.71,1.1-1.11,2.45.35,3.32,1.25,2.37,2.47,4.62,5.05,6.92,7.59-2.51,1.94-3.07,4.47-2.46,7.48.43,2.09.6,4.24.88,6.36l-15.92,0c.31-2.38.45-4.81,1-7.14S50.35,148.08,48,146.74Z"/><path class="cls-3" d="M8.64,66.91c.82,4.36,1.48,8.76,2.56,13.06.43,1.71.08,4.19,2.69,4.8-.31.88-2.06,1.58-.3,2.69,2.58,1.64.9,3.55.32,5.38l-5-.2a3.2,3.2,0,0,0-3-1.79c-8.3-6.36-7.8-16.59,1-22.19A9.94,9.94,0,0,0,8.64,66.91Z"/><path class="cls-3" d="M101.73,84.38a.35.35,0,0,1,.2-.52c2.68-.68,2.32-2.21,1.12-4q1.13-6.63,2.23-13.27c.61,2.07,2.88,2,4.13,3.11,6,5.54,6,15.88-.56,20-.61.37-.84,1.36-1.24,2.06-1,.07-2,0-2.71,1l-5,.13C99.32,89.75,100.79,87.13,101.73,84.38Z"/><path class="cls-5" d="M48,146.74c2.38,1.34,2.57,3.33,2,5.79s-.68,4.76-1,7.14l-8.91.19c.78-7-1.64-13.94-.9-21,1.11,2,2.3,3.89,3.31,5.91C43.71,147.26,45.49,147.9,48,146.74Z"/><path class="cls-5" d="M64.89,159.71c-.28-2.12-.45-4.27-.88-6.36-.61-3-.05-5.54,2.46-7.48,1.46.75,2.83,2.53,4.27-.25a52.58,52.58,0,0,1,3.92-5.71l-.9,19.88Z"/><path class="cls-1" d="M5.92,90.85a3.2,3.2,0,0,1,3,1.79C7.42,92.88,6.09,92.85,5.92,90.85Z"/><path class="cls-1" d="M104.9,92.7c.68-1,1.71-.89,2.71-1C107.05,93.06,105.94,92.77,104.9,92.7Z"/><path class="cls-5" d="M27,136.93c-.28.37-.57.73-.86,1.1C26.39,137.67,26.68,137.3,27,136.93Z"/><path class="cls-2" d="M79,71.75c3.71.1,5.29,2.2,5.45,5.08.19,3.23-1.66,5.58-5,5.58-2.75,0-4.47-1.84-4.7-4.8C74.51,74.17,76.84,72.89,79,71.75Z"/><path class="cls-2" d="M40,76.81c-.27,2.92-1.47,5.36-4.57,5.57-3.36.22-5.27-2-5.26-5.24,0-2.85,1.71-5.06,4.7-5.26C38,71.67,39.44,73.9,40,76.81Z"/><path class="cls-2" d="M78.63,57.59a10.38,10.38,0,0,1,5.3,1c1.75,1,3.81,2.38,2.86,4.58s-2.89.39-4.32,0a12.75,12.75,0,0,0-7.8.26c-1,.37-2.26,1.39-3.15.1s0-2.56.85-3.58C74,58,76.24,57.63,78.63,57.59Z"/><path class="cls-2" d="M42.68,62.56c0,1.44-.61,2.12-2.14,1.41a13,13,0,0,0-10.64-.22c-.93.36-2.15.68-2.77-.24-.73-1.08-.11-2.23.72-3.14,3-3.29,6.78-3.16,10.62-2.35A5.2,5.2,0,0,1,42.68,62.56Z"/><path class="cls-3" d="M68.3,105.86c-6.84,4.38-14.1,3.45-21.45,1C54,106.65,61.23,108.18,68.3,105.86Z"/><path class="cls-1" d="M103.05,79.88c1.2,1.77,1.56,3.3-1.12,4C102.31,82.53,102.68,81.2,103.05,79.88Z"/></g></g></svg>