<svg xmlns="http://www.w3.org/2000/svg" viewBox="0 0 126.84 164.15"><defs><style>.cls-1{fill:#6a4e39;}.cls-2{fill:#f4ac8c;}.cls-3{fill:#583e28;}.cls-4{fill:#f9ca9b;}.cls-5{fill:#bf914f;}.cls-6{fill:#f1f3f2;}.cls-7{fill:#4e2e1b;}</style></defs><g id="Layer_2" data-name="Layer 2"><g id="Layer_1-2" data-name="Layer 1"><path class="cls-1" d="M36.24,141c.27-3.09,1.54-6.11.6-10.05-2.41,3.74-4.64,7-8.31,8.81-1.5.72-3.25,1.78-4.64.46s.39-2.64,1-3.84c1.87-3.48,2.75-7.07,1.7-10.92-.49-.12-.84-.33-1.08-.25-2.12.81-4.35,3.34-6.34,1.94-2.43-1.71.31-4.18.66-6.32,1.16-6.93,1.32-13.42-4-19.13S8.39,88.87,7.35,81.28c-1.76-12.8-1.12-25.57.06-38.36.74-8.05.43-8.23-7.41-8.41,0-2.86,2.38-4,4.14-5.1,4.92-3.16,8.05-7.26,8.69-13.21.13-1.2-.13-3.58,2.1-3.2,1.73.29,1.63,2.34,1.73,3.78a36.73,36.73,0,0,1-.2,4.36c2.71-2.54,5.34-5.15,8.11-7.59,17.9-15.77,38-16.62,59.29-8.46a71,71,0,0,1,20.5,12.22c4.32,3.67,8,7.85,10.1,13.38,2.57,6.87,6.37,13.17,9.89,19.59,1,1.9,3.63,4,1.92,6.15s-3.78-1.13-6.17-1c-.74,3.95.68,7.78.75,11.67.17,10.32.83,20.72-5.8,29.71-4,1.28-5.64,4.52-6.68,8.22l.09-.13c-2.47.83-3.21,5.93-7.24,2.94,2.81-8.26,2.64-16.67,1.15-25.12-.13-.76-.06-2.3-.74-2.07-7.14,2.38-3.59-3.93-4-5.67C96,68.78,94,63.13,88.82,58.64c-1.54,4.06-1.67,4.17-5.51,3.79A68.48,68.48,0,0,1,60.88,56c.78,6.89.74,6.91-6,6.12a48.9,48.9,0,0,1-16.56-5.26c-2.54-1.3-3.83-1-4.79,1.75-2,5.67-4.19,11.3-4.28,17.37-.06,4.12-1.06,5.26-4.51,1.85a92.8,92.8,0,0,0-.65,16.48c.49,15.39,9.55,27.93,24.14,32.67,4,1.29,5.54,3,4.54,7a17.37,17.37,0,0,0-.25,3,8.21,8.21,0,0,0-6.12,1.53C42.81,138.52,39.63,140.17,36.24,141Zm83.9-86.67-.3-.35-.33.32.46.36Z"/><path class="cls-2" d="M36.24,141c3.39-.83,6.57-2.48,10.16-2.51,2.62,6.34,7.54,11.11,11.42,16.58,5.8,8.19,6.15,8.3,12.15.46,4.14-5.43,8.81-10.61,11.12-17.26,3.46.31,6.43,3.3,10.2,1.87,7,4.38,15.06,7.2,21,13.35,2.43,2.51,6.27,5.3,5.14,8.53-1.25,3.59-5.91,1.55-9,1.57-30.82.15-61.63.11-92.45,0-1.82,0-4.56,1.15-5.27-1.35-.62-2.2.59-4.53,2.26-6.31,5.92-6.3,13.11-10.69,21-14.06C34.7,141.6,35.47,141.31,36.24,141Z"/><path class="cls-3" d="M91.29,140.14c-3.77,1.43-6.74-1.56-10.2-1.87a12.33,12.33,0,0,0-5.68-1.37c-.12-1.8-.25-3.61-.35-5.41s.11-3.15,2.3-3.68c11.18-2.74,18.63-10,23.86-19.94,4,3,4.77-2.11,7.24-2.94-2,6.19-2.38,12.37,0,18.57.45,1.19,1.42,2.54,0,3.62-1.24,1-2.7.29-3.73-.44-4.73-3.32-4.56-.14-4.32,3.16a15,15,0,0,0,2.36,7c.65,1,2.16,2.09.69,3.42-1.14,1-2.53.39-3.75-.15-4.09-1.78-6.69-5.15-9.12-9.41C89.74,134.46,90.46,137.31,91.29,140.14Z"/><path class="cls-3" d="M108.37,105.06c1-3.7,2.66-6.94,6.68-8.22A25.1,25.1,0,0,1,108.37,105.06Z"/><path class="cls-4" d="M101.22,107.87c-5.23,9.91-12.68,17.2-23.86,19.94-2.19.53-2.4,1.93-2.3,3.68s.23,3.61.35,5.41c-3.76,3.63-5.9,8.36-8.56,12.72-2.1,3.45-3.52,3.78-5.7.08-2.6-4.42-5.08-9-8.63-12.74a17.37,17.37,0,0,1,.25-3c1-4-.59-5.7-4.54-7-14.59-4.74-23.65-17.28-24.14-32.67a92.8,92.8,0,0,1,.65-16.48c3.45,3.41,4.45,2.27,4.51-1.85.09-6.07,2.31-11.7,4.28-17.37,1-2.75,2.25-3,4.79-1.75a48.9,48.9,0,0,0,16.56,5.26c6.74.79,6.78.77,6-6.12a68.48,68.48,0,0,0,22.43,6.42c3.84.38,4,.27,5.51-3.79C94,63.13,96,68.78,97.6,75c.44,1.74-3.11,8,4,5.67.68-.23.61,1.31.74,2.07C103.86,91.2,104,99.61,101.22,107.87ZM82.08,81.06c-2.14,2.8-1.5,5.41,1.09,7.3,2.16,1.56,4.47,1,6.06-1.25a4.87,4.87,0,0,0-.46-6.76c-2.1-2.13-4.33-2.16-6.32.32A2.72,2.72,0,0,1,82.08,81.06ZM42.94,89.17c3.35-.34,4.86-2.43,4.75-5.41C47.59,81,46,78.76,43,79s-4.72,2.42-4.67,5.35A4.66,4.66,0,0,0,42.94,89.17ZM89.77,71.11c2.12.48,3.65.25,2.7-2-1.23-2.94-4-3.85-7-4-3.13-.16-6,.44-7.62,3.57A3.07,3.07,0,0,0,77.82,71c.4.93,1.37.69,2.15.29A11.22,11.22,0,0,1,89.77,71.11Zm-45.9-6c-3.34,0-5.7.58-7.53,2.49-.81.84-1.59,1.84-1,3.08.76,1.49,2,.73,3,.39a12.9,12.9,0,0,1,7.75-.49c1.22.32,2.95,2.25,3.83.24s-.77-3.76-2.62-4.69A16.37,16.37,0,0,0,43.87,65.06Zm30.82,46.38c-7.18,1.64-14.35,2.29-21.56-.08C60.27,116.18,67.47,115.72,74.69,111.44Z"/><path class="cls-5" d="M52.52,137c3.55,3.78,6,8.32,8.63,12.74,2.18,3.7,3.6,3.37,5.7-.08,2.66-4.36,4.8-9.09,8.56-12.72a12.33,12.33,0,0,1,5.68,1.37c-2.31,6.65-7,11.83-11.12,17.26-6,7.84-6.35,7.73-12.15-.46-3.88-5.47-8.8-10.24-11.42-16.58A8.21,8.21,0,0,1,52.52,137Z"/><path class="cls-6" d="M120.14,54.33l-.17.33-.46-.36.33-.32Z"/><path class="cls-7" d="M42.94,89.17a4.66,4.66,0,0,1-4.59-4.87C38.3,81.37,40,79.14,43,79s4.57,2.07,4.67,4.81C47.8,86.74,46.29,88.83,42.94,89.17Z"/><path class="cls-1" d="M89.77,71.11a11.22,11.22,0,0,0-9.8.18c-.78.4-1.75.64-2.15-.29a3.07,3.07,0,0,1,.08-2.34c1.58-3.13,4.49-3.73,7.62-3.57,3,.15,5.72,1.06,7,4C93.42,71.36,91.89,71.59,89.77,71.11Z"/><path class="cls-1" d="M43.87,65.06a16.37,16.37,0,0,1,3.51,1c1.85.93,3.56,2.58,2.62,4.69s-2.61.08-3.83-.24a12.9,12.9,0,0,0-7.75.49c-1,.34-2.27,1.1-3-.39-.64-1.24.14-2.24,1-3.08C38.17,65.64,40.53,65.06,43.87,65.06Z"/><path class="cls-7" d="M82.45,80.67c2-2.48,4.22-2.45,6.32-.32a4.87,4.87,0,0,1,.46,6.76c-1.59,2.2-3.9,2.81-6.06,1.25-2.59-1.89-3.23-4.5-1.09-7.3.07,1.09.42,2,1.73,1.72a1.29,1.29,0,0,0,.79-1C84.51,80.37,83.4,80.62,82.45,80.67Z"/><path class="cls-2" d="M74.69,111.44c-7.22,4.28-14.42,4.74-21.56-.08C60.34,113.73,67.51,113.08,74.69,111.44Z"/><path class="cls-4" d="M82.45,80.67c1,0,2.06-.3,2.15,1.13a1.29,1.29,0,0,1-.79,1c-1.31.25-1.66-.63-1.73-1.72A2.72,2.72,0,0,0,82.45,80.67Z"/></g></g></svg>