<svg xmlns="http://www.w3.org/2000/svg" viewBox="0 0 118.54 163.62"><defs><style>.cls-1{fill:#f9ca9b;}.cls-2{fill:#d96e2a;}.cls-3{fill:#b5ddf4;}.cls-4{fill:#f4ac8c;}.cls-5{fill:#4e2e1b;}.cls-6{fill:#362822;}</style></defs><g id="Layer_2" data-name="Layer 2"><g id="Layer_1-2" data-name="Layer 1"><path class="cls-1" d="M105,95.32c-5.24.62-6.12,4.83-8.09,8.76C92,113.78,85.8,122.4,74,124.74c-3.44.69-5.73,2.61-4.84,6.65-3,3.38-7.58,4.23-11.18,6.67a2.37,2.37,0,0,1-2.28-.16c-2.4-3.06-6.69-3.41-9-6.47-1.18-5.83-6.25-6-10.57-7.84-9-3.87-14.75-11.37-18.54-20.1-1.72-4-2.62-7.8-8-7.64-.23,0-.48-.8-.71-1.23,6.19-.3,6.39-.35,4.82-6.37-.77-3-.43-5.92-.73-8.87a18.15,18.15,0,0,0,4.62-8.65,52.93,52.93,0,0,0,1.49-11.82A16.09,16.09,0,0,1,38.73,43.6c13.59,3.14,27.19,6,41.28,6.17,10.46.1,16.93,6.08,19.12,16.23.93,4.36.79,9,2.81,13.08.12,3.63.67,7.32-.8,10.8C99.47,93.87,101.17,95.3,105,95.32ZM76.73,75.73c-2.23,2.76-2.18,5.51.44,7.86a4.26,4.26,0,0,0,6.29-.17A5.13,5.13,0,0,0,84,76.2c-1.87-2.48-4.2-3.18-6.79-.86A2.63,2.63,0,0,1,76.73,75.73ZM40.32,79.1C39.87,76.31,38.42,74,35,74c-3.25,0-4.73,2.37-4.69,5.25,0,3.11,1.59,5.59,5.13,5.51C38.65,84.68,40,82.44,40.32,79.1Zm2.65-15a5.19,5.19,0,0,0-.44-1.29c-1.72-2.66-4.38-3.28-7.32-3.26-3.11,0-6.05.64-7.68,3.56-1,1.75-.51,3.74,1.92,3,3.93-1.15,7.62-1.87,11.53,0C42.41,66.79,43,65.61,43,64.09Zm37.22-4.54c-3.09,0-5.45.57-7.24,2.59a2.88,2.88,0,0,0-.74,3.21c.72,1.55,2,.84,3,.39,3.27-1.48,6.47-1,9.67.18,1,.36,2,.66,2.68-.38s.09-1.94-.44-2.78C85.39,60,82.49,59.87,80.19,59.55ZM45.77,108.06c5.29,5,19.12,4.88,24.84-1A40,40,0,0,1,45.77,108.06Z"/><path class="cls-2" d="M101.94,79.08c-2-4.12-1.88-8.72-2.81-13.08C96.94,55.85,90.47,49.87,80,49.77c-14.09-.13-27.69-3-41.28-6.17A16.09,16.09,0,0,0,19.11,58.91a52.93,52.93,0,0,1-1.49,11.82A18.15,18.15,0,0,1,13,79.38c-4.68-.72-4.19-4.69-4.81-7.86-.4-2,.43-4.22-.93-6.11C7.45,55.48,6,45.49,8.65,35.67c4.4-16.1,15.87-24.69,31.13-29C48.35,4.25,57.12,4.49,66,5.3c12.67,1.14,25.15-.9,37.52-3.6A94.53,94.53,0,0,1,113.81.05c3.27-.34,4.86.93,3.17,4.37a17,17,0,0,0-5.08,5.87l-.08.07-.92.79-.21.15c-2.33,1.61-4.65,3.22-7.24,5,2.41,1.37,4.13.14,5.89.17,2.42,0,5.57-2.63,7-.52,1.66,2.49-2.66,4-3.25,6.51-5.23,2.25-6.13,5.8-5,11.41,2.06,10.43,1.37,21.06-.3,31.57a3,3,0,0,0-.54,3.09c0,.64-.06,1.28-.1,1.92C105.42,73.37,106.3,77.8,101.94,79.08Z"/><path class="cls-3" d="M46.68,131.43c2.36,3.06,6.65,3.41,9,6.47a2.37,2.37,0,0,0,2.28.16c3.6-2.44,8.15-3.29,11.18-6.67,4.64,1,8,4.63,12.22,6.09a137.33,137.33,0,0,1,17.39,7.94,39.66,39.66,0,0,1,13.54,11.48c1.15,1.52,2.32,3.54,1.27,5.53-1,1.79-3,1-4.56,1q-51.4.06-102.79,0c-1.69,0-4,.92-4.9-1.29S1.6,157.9,3,156.2a49.41,49.41,0,0,1,12.45-10.51c8.58-5.28,18.83-7.11,26.9-13.36C43.6,131.38,45.18,131.46,46.68,131.43Z"/><path class="cls-4" d="M101.94,79.08c4.36-1.28,3.48-5.71,5.16-8.6,5.68,2.74,8.36,7.41,7.78,13.5q-.82,8.68-9.89,11.34c-3.82,0-5.52-1.45-3.85-5.44C102.61,86.4,102.06,82.71,101.94,79.08Z"/><path class="cls-4" d="M7.26,65.41c1.36,1.89.53,4.1.93,6.11.62,3.17.13,7.14,4.81,7.86.3,3,0,5.88.73,8.87,1.57,6,1.37,6.07-4.82,6.37a3.59,3.59,0,0,1-.81-.07L7,93.58C-.26,90.46-2.46,79.76,3.22,74,5.69,71.48,7.48,69,7.26,65.41Z"/><path class="cls-1" d="M113.06,22.49c.59-2.52,4.91-4,3.25-6.51-1.4-2.11-4.55.56-7,.52-1.76,0-3.48,1.2-5.89-.17,2.59-1.81,4.91-3.42,7.24-5,.17,1.74.45,3.14,2.82,3.19,1.86,0,5.35-1.32,5,1.89C118.26,18.84,117.52,22.86,113.06,22.49Z"/><path class="cls-1" d="M111.9,10.29A17,17,0,0,1,117,4.42C117.07,7.93,115.71,10.17,111.9,10.29Z"/><path class="cls-4" d="M107.2,68.56a3,3,0,0,1,.54-3.09A2.59,2.59,0,0,1,107.2,68.56Z"/><path class="cls-1" d="M110.9,11.15l.92-.79C111.78,10.93,111.49,11.22,110.9,11.15Z"/><path class="cls-1" d="M7,93.58l1.11,1Z"/><path class="cls-5" d="M40.32,79.1c-.34,3.34-1.67,5.58-4.89,5.66-3.54.08-5.09-2.4-5.13-5.51C30.26,76.37,31.74,74,35,74,38.42,74,39.87,76.31,40.32,79.1Z"/><path class="cls-6" d="M77.22,75.34c2.59-2.32,4.92-1.62,6.79.86a5.13,5.13,0,0,1-.55,7.22,4.26,4.26,0,0,1-6.29.17c-2.62-2.35-2.67-5.1-.44-7.86-.17,1.19-.31,2.41,1.28,2.73a1.17,1.17,0,0,0,1.44-1C79.59,75.89,78.4,75.57,77.22,75.34Z"/><path class="cls-2" d="M43,64.09c.05,1.52-.56,2.7-2,2-3.91-1.86-7.6-1.14-11.53,0-2.43.72-2.9-1.27-1.92-3,1.63-2.92,4.57-3.54,7.68-3.56,2.94,0,5.6.6,7.32,3.26A5.19,5.19,0,0,1,43,64.09Z"/><path class="cls-2" d="M80.19,59.55c2.3.32,5.2.46,6.93,3.21.53.84,1.07,1.8.44,2.78s-1.71.74-2.68.38c-3.2-1.18-6.4-1.66-9.67-.18-1,.45-2.28,1.16-3-.39A2.88,2.88,0,0,1,73,62.14C74.74,60.12,77.1,59.51,80.19,59.55Z"/><path class="cls-4" d="M45.77,108.06a40,40,0,0,0,24.84-1C64.89,112.94,51.06,113.07,45.77,108.06Z"/><path class="cls-1" d="M77.22,75.34c1.18.23,2.37.55,2.23,2.08a1.17,1.17,0,0,1-1.44,1c-1.59-.32-1.45-1.54-1.28-2.73A2.63,2.63,0,0,0,77.22,75.34Z"/></g></g></svg>