<svg xmlns="http://www.w3.org/2000/svg" viewBox="0 0 117.75 161.76"><defs><style>.cls-1{fill:#f9ca9b;}.cls-2{fill:#87481f;}.cls-3{fill:#bf914f;}.cls-4{fill:#6a4e39;}.cls-5{fill:#f4ac8c;}.cls-6{fill:#583e28;}.cls-7{fill:#4e2e1b;}</style></defs><g id="Layer_2" data-name="Layer 2"><g id="Layer_1-2" data-name="Layer 1"><path class="cls-1" d="M23.4,108.7a39.48,39.48,0,0,1-8-16.33c-.4-3-.79-6-1.19-9,1-3.73,1.08-7.56,1.37-11.38.59-8,.5-16,1.92-23.87C19,39.85,23.34,36.27,31.64,36.54a46.57,46.57,0,0,1,6.43.75c9.18,1.6,18.38,3.32,27.75,2.22,6.27-.74,12.46-2.2,18.74-2.81,11-1.09,15.46,2.93,17,14s.59,22,3,32.76a21.91,21.91,0,0,0-1.14,8.8c-3,6.1-5.28,12.54-9.25,18.12-.11-1.93-1.08-1-1.88-.54-3,1.72-6,3.63-9.09,5.15-6.31,3.08-12.6,4.92-19.35.58a9.31,9.31,0,0,0-10,.16c-6,3.9-11.68,2.29-17.56,0-4.17-1.62-7.52-4.82-11.9-6l.09.08C24.05,109.4,23.73,109.05,23.4,108.7Zm8.76-36.85C30.09,75,30.53,78,33.57,80.1c2.38,1.67,4.83,1,6.54-1.35a5.29,5.29,0,0,0-.4-7.28c-2.26-2.38-4.86-2.74-7.22.1Zm55.36,3.66c-.18-3.25-1.71-5.58-5-5.73s-5,2.42-5.18,5.38c-.2,3.15,1.47,5.56,4.87,5.66S87.17,78.69,87.52,75.51ZM44,59.62a7,7,0,0,0-.64-1.57c-1.87-2.86-4.8-3.4-7.87-3.22s-6,1-7.55,4c-1.15,2.24.07,3.28,2.25,2.64,3.93-1.15,7.76-1.62,11.66.08C43.32,62.16,44.07,61.46,44,59.62Zm38.59-4.87c-3.23.17-6.05.38-7.94,3A3.14,3.14,0,0,0,74,61c.77,1.5,2,.52,3,.17a16.87,16.87,0,0,1,8.35-.4c1.57.26,3.78,2.37,4.68-.22s-1.53-3.78-3.5-4.68A23,23,0,0,0,82.62,54.75ZM70.68,105c-7.58,2.52-15.17,2.21-22.79.14C53.48,110.05,65.18,110.05,70.68,105Z"/><path class="cls-2" d="M104.49,83.42c-2.37-10.79-1.47-21.88-3-32.76s-6-15-17-14c-6.28.61-12.47,2.07-18.74,2.81-9.37,1.1-18.57-.62-27.75-2.22a46.57,46.57,0,0,0-6.43-.75C23.34,36.27,19,39.85,17.46,48.1,16,56,16.13,64,15.54,72c-.29,3.82-.38,7.65-1.37,11.38-2.79.22-3.12-2.12-3.78-3.86A38.94,38.94,0,0,1,8.23,66.76a300.48,300.48,0,0,1,1-32.87c1.69-9.68,4.46-18.8,12.82-25.1a39.19,39.19,0,0,1,17.42-7,112.83,112.83,0,0,1,39.73,0c18,3.34,27.31,13.09,30,31.26.39,2.63.69,5.28,1,7.92,0,2,0,4,0,5.94.09,9.6,1,19.26-1,28.75C108.64,78.62,108.76,82.5,104.49,83.42Z"/><path class="cls-3" d="M82.49,161.19c-15.75.82-31.5.5-47.25.22q0-13.23-.08-26.46c4.15-.36,7.91-2.64,12.17-2.45,7,6,15.7,6,24.07,0,4.07.06,7.7,2.57,11.86,2.19C82.84,143.51,83.74,152.38,82.49,161.19Z"/><path class="cls-2" d="M24.28,109.68c4.38,1.18,7.73,4.38,11.9,6,5.88,2.3,11.55,3.91,17.56,0a9.31,9.31,0,0,1,10-.16c6.75,4.34,13,2.5,19.35-.58,3.13-1.52,6.07-3.43,9.09-5.15.8-.46,1.77-1.39,1.88.54-5.7,7.76-13.61,12-22.71,14.44a72.69,72.69,0,0,1-25-.06c-7.22-2.06-14-4.94-19.2-10.64C26,112.79,24.37,111.72,24.28,109.68Z"/><path class="cls-4" d="M90.34,138.68c10.68,3,19.49,8.8,25.8,17.95,2.63,3.81,1.74,5.05-2.94,5-6.31,0-12.62-.12-18.93-.19C93,153.88,90.29,146.51,90.34,138.68Z"/><path class="cls-4" d="M24.38,161.54c-6.82.05-13.64,0-20.45.21-4.2.16-4-1.68-2.51-4.43,2.31-4.38,5.93-7.56,9.84-10.43A75,75,0,0,1,27.4,138a56.81,56.81,0,0,1-.54,7.41C25.8,150.78,24,156,24.38,161.54Z"/><path class="cls-5" d="M9.26,33.89a300.48,300.48,0,0,0-1,32.87,38.94,38.94,0,0,0,2.16,12.73c.66,1.74,1,4.08,3.78,3.86.4,3,.79,6,1.19,9C9.68,91.83,3.9,92,1.33,85S-.18,72,5.7,67.25c1.8-1.45,1.53-3.12,1.56-4.89.1-7,.18-13.92.28-20.88C7.57,38.83,7.63,36.18,9.26,33.89Z"/><path class="cls-1" d="M46.38,124.72a72.69,72.69,0,0,0,25,.06c0,2.57,0,5.13,0,7.7-8.37,6-17.06,6-24.07,0A22.78,22.78,0,0,0,46.38,124.72Z"/><path class="cls-5" d="M104.49,83.42c4.27-.92,4.15-4.8,4.78-7.77,2-9.49,1-19.15,1-28.75,0-2,0-4,0-5.94,2.11,6.59.93,13.39,1.09,20.09.08,3.13.62,5.55,3,7.91,4.59,4.55,3.84,10.37,2.07,15.78-2,6.1-7.21,7.54-13,7.48A21.91,21.91,0,0,1,104.49,83.42Z"/><path class="cls-6" d="M24.38,161.54c-.42-5.56,1.42-10.76,2.48-16.1A56.81,56.81,0,0,0,27.4,138c2.3-1.73,4.37-4.08,7.76-3.08q0,13.23.08,26.46Z"/><path class="cls-7" d="M90.34,138.68c0,7.83,2.61,15.2,3.93,22.8-3.93.16-7.87.6-11.78-.29,1.25-8.81.35-17.68.77-26.52l.11-.06.44.09.42-.16C86.66,135.33,89.07,136.16,90.34,138.68Z"/><path class="cls-3" d="M84.23,134.54l-.42.16-.44-.09C83.61,134,83.89,134,84.23,134.54Z"/><path class="cls-2" d="M23.4,108.7c.33.35.65.7,1,1.06C23.6,109.82,23.45,109.3,23.4,108.7Z"/><path class="cls-7" d="M87.52,75.51c-.35,3.18-1.91,5.41-5.3,5.31s-5.07-2.51-4.87-5.66c.18-3,1.79-5.54,5.18-5.38S87.34,72.26,87.52,75.51Z"/><path class="cls-7" d="M32.49,71.57c2.36-2.84,5-2.48,7.22-.1a5.29,5.29,0,0,1,.4,7.28c-1.71,2.3-4.16,3-6.54,1.35-3-2.12-3.48-5.07-1.41-8.25.07.79,0,1.68,1.14,1.77.23,0,.71-.28.69-.36A2.16,2.16,0,0,0,32.49,71.57Z"/><path class="cls-2" d="M44,59.62c0,1.84-.71,2.54-2.15,1.92-3.9-1.7-7.73-1.23-11.66-.08-2.18.64-3.4-.4-2.25-2.64,1.53-3,4.49-3.81,7.55-4s6,.36,7.87,3.22A7,7,0,0,1,44,59.62Z"/><path class="cls-2" d="M82.62,54.75a23,23,0,0,1,4,1.1c2,.9,4.37,2.2,3.5,4.68S87,61,85.4,60.75a16.87,16.87,0,0,0-8.35.4c-1,.35-2.25,1.33-3-.17a3.14,3.14,0,0,1,.65-3.26C76.57,55.13,79.39,54.92,82.62,54.75Z"/><path class="cls-5" d="M70.68,105c-5.5,5-17.2,5-22.79.14C55.51,107.22,63.1,107.53,70.68,105Z"/><path class="cls-1" d="M32.49,71.57A2.16,2.16,0,0,1,34,73.26c0,.08-.46.38-.69.36-1.12-.09-1.07-1-1.14-1.77Z"/></g></g></svg>