<svg xmlns="http://www.w3.org/2000/svg" viewBox="0 0 125.4 163.38"><defs><style>.cls-1{fill:#53382d;}.cls-2{fill:#7b5e61;}.cls-3{fill:#4e2e1b;}.cls-4{fill:#f9ca9b;}.cls-5{fill:#f4ac8c;}.cls-6{fill:#6a4e39;}.cls-7{fill:#583e28;}</style></defs><g id="Layer_2" data-name="Layer 2"><g id="Layer_1-2" data-name="Layer 1"><path class="cls-1" d="M9.29,110.66c-8-13-10-27.36-9-42.19,1-15,3.94-29.66,12.5-42.58,19.37-29.26,60.48-36,85.83-8.4a9,9,0,0,0,3.6,2.51c14.29,5.25,21.18,16.28,22.71,30.68,2.28,21.53-3.09,41.56-13.64,60.29a15.54,15.54,0,0,1-2.27,2.55c-.66-2.34-1.87-4.82-.82-7.13,1.6-3.52,1-6.94.51-10.46a14.6,14.6,0,0,0-2.29-11.56c-.94-1.15-1.65-2.67-2.84-3.38-5.72-3.4-9.7-8.42-13.46-13.7L89.33,66c-1.61-4.36-3.59-8.62-4.7-13.1-.88-3.54-2.26-3.38-5.14-2.42-12,4-24.15,7.53-36.88,8.22a23.5,23.5,0,0,0-14.55,5.68c-9,7.7-13.74,17.74-15.95,29.16-.22,1.15-.37,2.33.8,3.16-2.58,1.44-1.77,3.94-2.05,6.17C10.53,105.47,12.24,108.55,9.29,110.66Z"/><path class="cls-2" d="M107.78,155.36c3.2,8,3.2,8-5.06,8H15c-5.81,0-5.82,0-4.27-5.74.38-1.43.83-2.83,1.25-4.24,2.6.44,3.78-1.62,5.35-3,7.41-6.56,15.59-11.62,25.58-13.17,3.81,3,7.33,6.27,12.64,7,7.28,1,17-1.91,20.39-7,4.22.24,8,2.07,11.81,3.59C95.62,144,101.61,149.83,107.78,155.36Z"/><path class="cls-3" d="M107.78,155.36c-6.17-5.53-12.16-11.36-20-14.51-3.83-1.52-7.59-3.35-11.81-3.59-1.45-2-4.71-2.59-4.72-5.8-.58-2.83.06-4.39,3.32-5.34,12.18-3.53,20.12-11.74,24.65-23.49.82-2.12.94-4.58,2.72-6.3a11,11,0,0,0,6.76-.4c.51,3.52,1.09,6.94-.51,10.46-1.05,2.31.16,4.79.82,7.13v0c-1.47,0-2.06.73-2,2.12-4,8.34-2.64,17-1.63,25.69C105.89,146,107,150.68,107.78,155.36Z"/><path class="cls-3" d="M42.9,137.22c-10,1.55-18.17,6.61-25.58,13.17-1.57,1.39-2.75,3.45-5.35,3,.14-.64.28-1.28.41-1.92.1-.44.19-.87.28-1.3,1.32-8.28,2.87-16.55,2.21-25a24,24,0,0,0-2.95-10.81l-.7-.91-1.93-2.81c3-2.1,1.24-5.18,1.57-7.81.28-2.23-.53-4.73,2.05-6.17h4l1.06.7c4.63,14.25,12.64,25.26,28,29.17a2.45,2.45,0,0,1,2.13,2.83c-.08,2,0,4-.06,6C46.22,135.55,44.1,135.1,42.9,137.22Z"/><path class="cls-1" d="M107,115.62c0-1.39.55-2.17,2-2.12A2.58,2.58,0,0,1,107,115.62Z"/><path class="cls-1" d="M11.22,113.46l.7.91C11.69,114.07,11.46,113.76,11.22,113.46Z"/><path class="cls-2" d="M12.66,150.18c-.09.43-.18.86-.28,1.3A.87.87,0,0,1,12.66,150.18Z"/><path class="cls-4" d="M17,96.67h-4c-1.17-.83-1-2-.8-3.16,2.21-11.42,7-21.46,16-29.16a23.5,23.5,0,0,1,14.55-5.68c12.73-.69,24.88-4.24,36.88-8.22,2.88-1,4.26-1.12,5.14,2.42,1.11,4.48,3.09,8.74,4.7,13.1l-.5.52c-4.15-2.27-8.45-2.95-12.88-.93-1.19.54-2.49,1.53-2,3.06s1.94.74,3,.43a15.55,15.55,0,0,1,8.84,0c1.54.43,3.38,1.22,3.84-1.43l.43-.33c3.76,5.28,7.74,10.3,13.46,13.7,1.19.71,1.9,2.23,2.84,3.38-5.93,2.32-4.11,7.55-4.47,12-1.78,1.72-1.9,4.18-2.72,6.3-4.53,11.75-12.47,20-24.65,23.49-3.26.95-3.9,2.51-3.32,5.34.44,4.64-2.47,6.49-6.33,7.35-6.07,1.35-11.85.94-16.78-3.44,0-2,0-4,.06-6A2.45,2.45,0,0,0,46,126.54c-15.38-3.91-23.39-14.92-28-29.17C17.92,96.74,17.62,96.42,17,96.67Zm14.48-5.24c-3.9,0-6.33,2.52-6.44,6.66-.07,2.68,3.68,6.44,6.72,6.21,3.4-.25,6.09-1.71,6.19-5.76C38,94.2,35.5,91.44,31.43,91.43Zm56.46,0A6,6,0,0,0,82,97.24c-.35,3.47,3.1,7.54,6.11,7.05,3.35-.54,6.49-1.85,6.74-6C95.05,95.14,91.44,91.46,87.89,91.45ZM38.05,86.31c2.7-.59,4.74-2.21,4.72-5.28s-1.57-5.68-5-5.56c-3,.1-4.58,2.59-4.72,5.37C32.87,83.9,34.81,85.67,38.05,86.31Zm48.86-5.4c-.36-2.89-1.58-5.31-4.72-5.42-3.39-.12-5,2.47-5.08,5.42s1.67,5.17,4.82,5.19S86.39,83.77,86.91,80.91ZM43.09,69.35c.76,0,1.9.68,2.27-.75.29-1.08-.5-1.83-1.24-2.5-2.42-2.17-9.92-2.24-12.69-.1-.9.71-2,1.53-1.35,2.82.54,1,1.77.68,2.68.41A15.91,15.91,0,0,1,43.09,69.35Zm28.16,39.42c-7.62,2.75-15.24,2-22.9.25C53.09,113.9,66.19,113.8,71.25,108.77Z"/><path class="cls-5" d="M101.9,96.33c.36-4.41-1.46-9.64,4.47-12a14.6,14.6,0,0,1,2.29,11.56A11,11,0,0,1,101.9,96.33Z"/><path class="cls-4" d="M89.33,66l.74,1.32-.43.33-.81-1.13Z"/><path class="cls-6" d="M48.1,135.37c4.93,4.38,10.71,4.79,16.78,3.44,3.86-.86,6.77-2.71,6.33-7.35,0,3.21,3.27,3.76,4.72,5.8-3.41,5.06-13.11,8-20.39,7-5.31-.74-8.83-4-12.64-7C44.1,135.1,46.22,135.55,48.1,135.37Z"/><path class="cls-1" d="M17,96.67c.67-.25,1,.07,1.06.7Z"/><path class="cls-5" d="M31.43,91.43c4.07,0,6.57,2.77,6.47,7.11-.1,4-2.79,5.51-6.19,5.76-3,.23-6.79-3.53-6.72-6.21C25.1,94,27.53,91.43,31.43,91.43Z"/><path class="cls-5" d="M87.89,91.45c3.55,0,7.16,3.69,7,6.81-.25,4.18-3.39,5.49-6.74,6-3,.49-6.46-3.58-6.11-7.05A6,6,0,0,1,87.89,91.45Z"/><path class="cls-1" d="M38.05,86.31c-3.24-.64-5.18-2.41-5-5.47.14-2.78,1.67-5.27,4.72-5.37,3.45-.12,5,2.43,5,5.56S40.75,85.72,38.05,86.31Z"/><path class="cls-3" d="M86.91,80.91c-.52,2.86-1.81,5.21-5,5.19S77,83.83,77.11,80.91s1.69-5.54,5.08-5.42C85.33,75.6,86.55,78,86.91,80.91Z"/><path class="cls-7" d="M43.09,69.35a15.91,15.91,0,0,0-10.33-.12c-.91.27-2.14.62-2.68-.41-.68-1.29.45-2.11,1.35-2.82,2.77-2.14,10.27-2.07,12.69.1.74.67,1.53,1.42,1.24,2.5C45,70,43.85,69.39,43.09,69.35Z"/><path class="cls-7" d="M88.83,66.49l.81,1.13c-.46,2.65-2.3,1.86-3.84,1.43a15.55,15.55,0,0,0-8.84,0c-1,.31-2.42,1.16-3-.43s.77-2.52,2-3.06C80.38,63.54,84.68,64.22,88.83,66.49Z"/><path class="cls-5" d="M71.25,108.77c-5.06,5-18.16,5.13-22.9.25C56,110.76,63.63,111.52,71.25,108.77Z"/></g></g></svg>