<svg xmlns="http://www.w3.org/2000/svg" viewBox="0 0 116.59 162.81"><defs><style>.cls-1{fill:#362822;}.cls-2{fill:#f9ca9b;}.cls-3{fill:#7b5e61;}.cls-4{fill:#bc5a76;}.cls-5{fill:#f4ac8c;}.cls-6{fill:#4e2e1b;}</style></defs><g id="Layer_2" data-name="Layer 2"><g id="Layer_1-2" data-name="Layer 1"><path class="cls-1" d="M5.87,69c-.07-6.83-.36-13.66-.15-20.47C6.59,21.3,22.67,3.87,49.77.55,74.12-2.45,95.56,7,105,25.25c6.63,12.82,6,26.72,5.37,40.58-.07,1.32-.15,2.64-.22,4-1.4,8.12-2.48,16.31-6.15,23.84-1,.78-1.77,1.88-3.18,2-2.73-4.39-1.82-9.34-2-14.09-.29-6.65-.15-13.34-1.92-19.81-1.58-5.76-3.49-6.91-9.28-6.23a46.2,46.2,0,0,1-11.45-.21c-13.64-1.81-26.45-6.37-38.93-12-2.4-1.07-3.37-1.08-3.86,1.9a18.37,18.37,0,0,1-8.65,12.82,17.19,17.19,0,0,0-7,10c-1.45,5-1.5,10.13-1.32,15.31.15,4.08,1.37,8.29-.85,12.23C13.8,95.64,13,94.27,12,93.39,8.31,85.65,7.3,77.26,5.87,69Z"/><path class="cls-2" d="M15.47,95.58c2.22-3.94,1-8.15.85-12.23-.18-5.18-.13-10.28,1.32-15.31a17.19,17.19,0,0,1,7-10,18.37,18.37,0,0,0,8.65-12.82c.49-3,1.46-3,3.86-1.9,12.48,5.58,25.29,10.14,38.93,12a46.2,46.2,0,0,0,11.45.21c5.79-.68,7.7.47,9.28,6.23,1.77,6.47,1.63,13.16,1.92,19.81.2,4.75-.71,9.7,2,14.09-2.78,8.12-6.39,15.64-13.34,21.22-2.5,2-4.88,3.81-8.13,4.16a20.94,20.94,0,0,1-14.55-1.14,15.38,15.38,0,0,0-13.14,0c-4.85,2.28-9.59,2.29-14.56,1.16-8.71-1.7-13.28-8.17-17.17-15.24C18.11,102.56,16.92,99,15.47,95.58ZM35.61,57.13c-2.59.2-5.22.56-7.16,2.72-.89,1-1.89,2.18-1,3.51.79,1.15,2.13.61,3.21.21a14.64,14.64,0,0,1,8.81-.44c1.26.31,2.79,2.32,3.85.29s-.56-3.43-2-4.63C39.72,57.43,37.72,57.25,35.61,57.13Zm4.94,20.79c.44-3.6-2.71-6.79-6-6-4,.91,2.54,3.28-.54,4.17-1.46.43-4.48-1.91-3.41,2.32.7,2.76,2.32,4.48,5.17,4.4S40.05,80.62,40.55,77.92Zm38.62-5.77c1.55,3.45,1,4.83-.56,3.9-3.44-2-2.71.65-2.44,2,.6,3.06,2.47,5.24,5.86,4.62a4.86,4.86,0,0,0,4.12-5.83C85.6,73,83.35,71.06,79.17,72.15ZM81,57.24c-3.28.25-5.94.54-7.52,3.18-.62,1-1.08,2.23-.34,3.27s1.86.25,2.71-.11A12.72,12.72,0,0,1,84.15,63c1.6.38,3.81,2.32,4.7-.21s-1.6-3.79-3.56-4.64A20.05,20.05,0,0,0,81,57.24ZM46.35,106.29c5.58,6,18.65,5.79,23.86-.26C62.28,108.9,54.36,109.52,46.35,106.29Z"/><path class="cls-3" d="M35.8,136.17l.91-.35a10.14,10.14,0,0,1,7.2,2.46c7,5.25,14.74,5.9,23.08,3.08,4.26-1.44,7.15-5.6,12-5.61l2.8.93q0,10.48-.05,21c0,2,.24,4.11-2.86,4.1-13.81-.05-27.61,0-41.42-.05-1.25,0-2.58-.32-2.52-1.78C35.27,152,33.64,144,35.8,136.17Z"/><path class="cls-4" d="M35.8,136.17c-2.16,7.85-.53,15.83-.86,23.75-.06,1.46,1.27,1.78,2.52,1.78,13.81,0,27.61,0,41.42.05,3.1,0,2.85-2.08,2.86-4.1q0-10.49.05-21a44.76,44.76,0,0,1,13.1,5.16c-.82.17-2,.42-1.81,1.32,1.28,4.9-.77,9.75.1,14.76.62,3.6,1.9,4,4.95,3.89,5.82-.21,11.65,0,17.48,0-1.3,1.59-3.09.84-4.63.85q-52.77.08-105.54,0c-1.59,0-3.34.54-4.74-.8,6.17,0,12.33-.15,18.49-.08,2.49,0,3.67-.75,3.58-3.43-.19-5.65-.2-11.31-.28-17A41.11,41.11,0,0,1,35.8,136.17Z"/><path class="cls-3" d="M115.61,161.79c-5.83,0-11.66-.19-17.48,0-3,.12-4.33-.29-4.95-3.89-.87-5,1.18-9.86-.1-14.76-.23-.9,1-1.15,1.81-1.32a48.76,48.76,0,0,1,17.44,12.52C114.13,156.45,115.89,158.71,115.61,161.79Z"/><path class="cls-3" d="M22.49,141.38c.08,5.66.09,11.32.28,17,.09,2.68-1.09,3.45-3.58,3.43-6.16-.07-12.32,0-18.49.08-.44-3.76,2-6.24,4.2-8.59A48.53,48.53,0,0,1,22.49,141.38Z"/><path class="cls-1" d="M37.06,121c5,1.13,9.71,1.12,14.56-1.16a15.38,15.38,0,0,1,13.14,0A20.94,20.94,0,0,0,79.31,121c-.93,4.76-5.8,4.29-8.64,6.51a57.37,57.37,0,0,1-23.88.28C43.42,125.72,38.44,126,37.06,121Z"/><path class="cls-2" d="M46.79,127.79a57.37,57.37,0,0,0,23.88-.28c.11,2.1-.33,4.28.92,6.21a13.05,13.05,0,0,0-2.73,1.08c-7,4.87-14.14,5-21.22.17a6.91,6.91,0,0,0-3.7-1.17C46.08,132.36,45.74,129.75,46.79,127.79Z"/><path class="cls-5" d="M104,93.63c3.67-7.53,4.75-15.72,6.15-23.84,5.1,1.92,7.89,9.47,5.75,15.33C113.83,90.71,110,93.64,104,93.63Z"/><path class="cls-4" d="M43.94,133.8a6.91,6.91,0,0,1,3.7,1.17c7.08,4.84,14.17,4.7,21.22-.17a13.05,13.05,0,0,1,2.73-1.08c2.49.57,5.15.55,7.39,2-4.84,0-7.73,4.17-12,5.61-8.34,2.82-16.11,2.17-23.08-3.08a10.14,10.14,0,0,0-7.2-2.46Z"/><path class="cls-5" d="M5.87,69C7.3,77.26,8.31,85.65,12,93.39c-5.06.86-8.08-1.71-10.17-6C-.76,82.31-.63,77.3,2.46,72.5A24.15,24.15,0,0,1,5.87,69Z"/><path class="cls-6" d="M35.61,57.13c2.11.12,4.11.3,5.73,1.66,1.43,1.2,3,2.72,2,4.63s-2.59,0-3.85-.29a14.64,14.64,0,0,0-8.81.44c-1.08.4-2.42.94-3.21-.21-.9-1.33.1-2.51,1-3.51C30.39,57.69,33,57.33,35.61,57.13Z"/><path class="cls-6" d="M40.55,77.92c-.5,2.7-1.85,4.75-4.78,4.84s-4.47-1.64-5.17-4.4C29.53,74.13,32.55,76.47,34,76c3.08-.89-3.46-3.26.54-4.17C37.84,71.13,41,74.32,40.55,77.92Z"/><path class="cls-6" d="M79.17,72.15c4.18-1.09,6.43.87,7,4.7A4.86,4.86,0,0,1,82,82.68c-3.39.62-5.26-1.56-5.86-4.62-.27-1.36-1-4,2.44-2C80.21,77,80.72,75.6,79.17,72.15Z"/><path class="cls-1" d="M81,57.24a20.05,20.05,0,0,1,4.27.95c2,.85,4.42,2.18,3.56,4.64s-3.1.59-4.7.21a12.72,12.72,0,0,0-8.28.54c-.85.36-2,1.16-2.71.11s-.28-2.24.34-3.27C75.08,57.78,77.74,57.49,81,57.24Z"/><path class="cls-5" d="M46.35,106.29c8,3.23,15.93,2.61,23.86-.26C65,112.08,51.93,112.28,46.35,106.29Z"/></g></g></svg>