<svg xmlns="http://www.w3.org/2000/svg" viewBox="0 0 118.92 163.01"><defs><style>.cls-1{fill:#f9ca9b;}.cls-2{fill:#53382d;}.cls-3{fill:#d96e2a;}.cls-4{fill:#f4ac8c;}.cls-5{fill:#4e2e1b;}.cls-6{fill:#583e28;}</style></defs><g id="Layer_2" data-name="Layer 2"><g id="Layer_1-2" data-name="Layer 1"><path class="cls-1" d="M110.48,92c-.11.12-.23.35-.34.35-8.44-.22-8.83,7.12-11.47,12.28A38,38,0,0,1,77,123.65c-5.25,1.88-6.49,5.52-2.59,10.27a10.45,10.45,0,0,0-6.09,1.62,16.28,16.28,0,0,1-12.42,2.08c-3.64-.8-7.06-2.58-10.57-3.93,1.71-2.18,1.07-4.75,1.13-7.18,0-1.58-.83-2.21-2.38-2.58-14-3.31-22-13.21-27.53-25.64-.8-1.79-1.39-3.69-2.08-5.53,1.64-2.78-.88-5-1-7.55,3.86-4.51,2-9.89,2-14.88C15.61,59.4,21.92,52,32.82,51a62.5,62.5,0,0,1,9.48,0c12.44.7,24.64-.49,36.4-4.73,2.68-1,4.24-.43,6,1.62,2.58,3,5.22,6.19,8.94,7.86,4.06,1.81,6,5,7.14,9,1.4,4.84,1.49,9.87,2.43,14.76.33,1.68-.21,4.42,3.09,3.89C103.37,91.8,103.37,91.8,110.48,92Zm-69-15.63c-.46-3.11-2-5.57-5.33-5.26a5.1,5.1,0,0,0-4.91,5.61c.1,3.32,1.86,5.33,5.22,5.25S41.18,79.49,41.45,76.33Zm46.62.22c-.1-3.44-3.48-6.84-5.67-5.29-1.51,1.07-2.82,3-4.48,4.5-1.23,1.08.24,4.07,2.21,5.43a4.69,4.69,0,0,0,5.17.17A5.53,5.53,0,0,0,88.07,76.55Zm-52-20.48c-2.5.2-5,.55-6.89,2.42-.94.92-2.06,2-1.43,3.46.76,1.75,2.24.84,3.44.47a14.24,14.24,0,0,1,10.24.13c.89.39,2,1.14,2.61,0a3.62,3.62,0,0,0-.27-2.82C42.17,56.61,39.19,56.18,36.07,56.07Zm47,0c-3.63,0-6.35.54-8.16,3.13a3,3,0,0,0-.33,3.27c.66,1,1.78.31,2.66,0A14.68,14.68,0,0,1,86,62c1.56.35,3.78,2.34,4.64-.2.8-2.35-1.46-3.84-3.48-4.69A23.55,23.55,0,0,0,83.1,56.1ZM51.2,126,51,127.79c4.41-.56,8.22,1.44,12.34,2a14.56,14.56,0,0,0,4.89-.44c.92-.19,2-.77,1.89-2S69,126,67.94,126C62.36,125.94,56.78,126,51.2,126Zm-3.86-20c6.09,5.37,18,5.25,24.28.07C63.54,108,55.46,109.33,47.34,106Z"/><path class="cls-2" d="M106.28,83.39c-3.3.53-2.76-2.21-3.09-3.89-.94-4.89-1-9.92-2.43-14.76-1.16-4-3.08-7.22-7.14-9-3.72-1.67-6.36-4.83-8.94-7.86-1.74-2.05-3.3-2.58-6-1.62-11.76,4.24-24,5.43-36.4,4.73a62.5,62.5,0,0,0-9.48,0C21.92,52,15.61,59.4,15.5,70.33c-.05,5,1.83,10.37-2,14.88-2.75-.67-3.31-3.12-3.86-5.28-1-4-1.7-8.06-2.52-12.1C6.7,58.69,5.58,49.6,6.18,40.4c1-15.61,8.34-26.94,22.62-33.19C47.55-1,66.62-3.36,85.72,6.29c7.47,3.77,13.55,9.58,20,14.77,6,4.81,7.78,12.19,8.62,19.65,1.08,9.58-.47,18.93-2.33,28.27Z"/><path class="cls-3" d="M45.35,133.69c3.51,1.35,6.93,3.13,10.57,3.93a16.28,16.28,0,0,0,12.42-2.08,10.45,10.45,0,0,1,6.09-1.62c13.82,3.39,27,8.09,37.68,18,2.8,2.61,6.72,5.89,5.69,9.27-1,3.12-6,1.18-9.08,1.19-34.47.17-68.94.14-103.41.12-1.57,0-3.69.79-4.54-1s.37-3.59,1.5-5c7.12-9,16.88-14.24,27.34-18.26A73.32,73.32,0,0,1,45.35,133.69Z"/><path class="cls-4" d="M7.09,67.83c.82,4,1.5,8.11,2.52,12.1.55,2.16,1.11,4.61,3.86,5.28.14,2.55,2.66,4.77,1,7.55C7,93.46,1.93,90.43.59,84.45-1.22,76.34,1.18,70.2,7.09,67.83Z"/><path class="cls-4" d="M106.28,83.39,112,69c5.93,2.18,8.89,10.37,5.53,16.48-1.52,2.77-2.37,6.87-7,6.5C103.37,91.8,103.37,91.8,106.28,83.39Z"/><path class="cls-5" d="M41.45,76.33c-.27,3.16-1.59,5.52-5,5.6S31.31,80,31.21,76.68a5.1,5.1,0,0,1,4.91-5.61C39.5,70.76,41,73.22,41.45,76.33Z"/><path class="cls-5" d="M88.07,76.55a5.53,5.53,0,0,1-2.77,4.81,4.69,4.69,0,0,1-5.17-.17c-2-1.36-3.44-4.35-2.21-5.43,1.66-1.47,3-3.43,4.48-4.5C84.59,69.71,88,73.11,88.07,76.55Z"/><path class="cls-6" d="M36.07,56.07c3.12.11,6.1.54,7.7,3.65A3.62,3.62,0,0,1,44,62.54c-.58,1.15-1.72.4-2.61,0a14.24,14.24,0,0,0-10.24-.13c-1.2.37-2.68,1.28-3.44-.47-.63-1.43.49-2.54,1.43-3.46C31.08,56.62,33.57,56.27,36.07,56.07Z"/><path class="cls-6" d="M83.1,56.1a23.55,23.55,0,0,1,4.08,1c2,.85,4.28,2.34,3.48,4.69-.86,2.54-3.08.55-4.64.2a14.68,14.68,0,0,0-8.75.45c-.88.35-2,1.09-2.66,0a3,3,0,0,1,.33-3.27C76.75,56.64,79.47,56.15,83.1,56.1Z"/><path class="cls-4" d="M51.2,126c5.58,0,11.16,0,16.74,0,1,0,2.11.13,2.17,1.46s-1,1.79-1.89,2a14.56,14.56,0,0,1-4.89.44c-4.12-.61-7.93-2.61-12.34-2Z"/><path class="cls-4" d="M47.34,106c8.12,3.36,16.2,2,24.28.07C65.3,111.22,53.43,111.34,47.34,106Z"/></g></g></svg>