<svg xmlns="http://www.w3.org/2000/svg" viewBox="0 0 123.12 162.86"><defs><style>.cls-1{fill:#bf914f;}.cls-2{fill:#f9ca9b;}.cls-3{fill:#bc5a76;}.cls-4{fill:#7b5e61;}.cls-5{fill:#f4ac8c;}.cls-6{fill:#4e2e1b;}.cls-7{fill:#362822;}</style></defs><g id="Layer_2" data-name="Layer 2"><g id="Layer_1-2" data-name="Layer 1"><path class="cls-1" d="M47.67,135.84l-3,.2a9.28,9.28,0,0,0-7.39,3.86l-5.2.07c.54-8.91-3.32-16.21-7.41-23.87a60.57,60.57,0,0,0-9.48-13.54c-8-8.47-12.12-19-14.15-30.31-4.92-27.6,7.33-52.71,32.54-65C53.09-2.27,72.71-3.45,91.17,10c4.8,3.5,9.28,7,15,9.34,8.15,3.31,12,10.76,13.87,19,3.71,16.58,4.83,33.22-.64,49.71-2.41,7.28-7,13.24-12.41,18.45a14.55,14.55,0,0,0-4.23,6.45,28.33,28.33,0,0,1-6.34,11.74,7.58,7.58,0,0,0-2,6.4c.26,2.93.74,6-.66,8.84l-5.82,0c-1.59-2.38-4.24-2.58-6.67-3.22a9.64,9.64,0,0,0-4.74-.8c-3.82-4.27-3.74-9,.39-10.17,11.9-3.38,19.45-10.39,22-23,2.28-11.37,6.46-22.42,3.78-34.31-.37-1.62-.39-3.69-2-4.34-6.47-2.55-7.49-8.38-8.88-14.05-.22-.92.24-2.21-.9-2.63-1.39-.5-2,.9-2.79,1.65-3.67,3.62-7.25,7.32-12.15,9.36-5.53,2.3-8.21,1.34-10.65-4-.67-1.46-1-2.92-3.09-1.47-4.1,2.85-8.81,7.22-13.32,5.76-6.22-2-8.89,2.54-13.18,4a9.39,9.39,0,0,1-5.38-.06c-2.3-.69-3.48.26-4.51,1.95A25.9,25.9,0,0,0,22,80.27c.67,9,3.66,17.48,6.09,26.12,2.88,10.22,9.1,16.42,19.16,18.76,3.87.91,3.5,3.69,4.06,6.32C52,134.58,49.45,134.85,47.67,135.84Z"/><path class="cls-2" d="M47.67,135.84c1.78-1,4.34-1.26,3.67-4.37-.56-2.63-.19-5.41-4.06-6.32-10.06-2.34-16.28-8.54-19.16-18.76C25.69,97.75,22.7,89.27,22,80.27a25.9,25.9,0,0,1,3.75-15.72c1-1.69,2.21-2.64,4.51-1.95a9.39,9.39,0,0,0,5.38.06c4.29-1.45,7-6,13.18-4,4.51,1.46,9.22-2.91,13.32-5.76,2.09-1.45,2.42,0,3.09,1.47,2.44,5.38,5.12,6.34,10.65,4,4.9-2,8.48-5.74,12.15-9.36.77-.75,1.4-2.15,2.79-1.65,1.14.42.68,1.71.9,2.63,1.39,5.67,2.41,11.5,8.88,14.05,1.64.65,1.66,2.72,2,4.34,2.68,11.89-1.5,22.94-3.78,34.31-2.52,12.6-10.07,19.61-22,23-4.13,1.17-4.21,5.9-.39,10.17-1.33,5.92-4.87,9.86-10.89,10.84-6.62,1.07-12.16-.85-15.59-7.13C49.33,138.31,48.47,137.09,47.67,135.84Zm33.8-58.78c-2.34,3.06-1.37,5.66,1.42,7.61,2,1.42,4.23.88,5.75-1,1.87-2.34,2-5-.07-7.25s-4.52-2.27-6.72.12A2.29,2.29,0,0,1,81.47,77.06Zm16.14,20c.24-4.2-2.41-6.12-5.93-6.72-3.32-.56-6.72,3-6.74,6.57a7.1,7.1,0,0,0,6.68,6.82C94.72,103.88,97.56,100.72,97.61,97.05Zm-69,0c-.52,4.35,2.12,5.85,6,5.83s6-2.12,5.94-5.88-1.7-6.18-6.06-6.16S28.31,92.68,28.63,97.07ZM40.74,85.45c3.19-.39,4.85-2.32,4.88-5.3,0-3.24-1.72-5.53-5.12-5.33-3,.17-4.58,2.63-4.6,5.41C35.88,83.17,37.64,85.11,40.74,85.45ZM40.53,67.7c1.81.22,3.29.33,4.73.61,1.08.21,2.36,1.1,3-.42s-.64-2.51-1.87-3a14.22,14.22,0,0,0-11.9.24c-1,.51-2.07,1.32-1.48,2.71.51,1.17,1.57.81,2.55.63C37.28,68.15,39.06,67.92,40.53,67.7Zm44.94-3.87c-2.66.08-4.68-.12-6.47,1-1.18.73-2.34,1.74-1.77,3.15s2,.31,3,.26c2.63-.12,5.26-.11,7.89-.2,1.45,0,3.56,2,4.17-.5.55-2.23-1.91-2.78-3.58-3.3A14.22,14.22,0,0,0,85.47,63.83Zm-34,44.29c5,5.53,18.55,5.33,22.77-.61C66.32,110.45,59,111,51.5,108.12Z"/><path class="cls-3" d="M32.11,140l5.2-.07c3.69,7.76,9.21,14.53,12.2,22.66-11.47.07-22.94.07-34.4.27-3.17.06-3.22-1.31-2.4-3.63,1.93-5.44,6.11-8.93,10.37-12.46C26,144.32,30,143.47,32.11,140Z"/><path class="cls-3" d="M87.93,139.92l5.82,0c.91,2.89,3.79,3.54,5.89,5,5.06,3.56,9.78,7.42,12.58,13.1,1.36,2.77,1.82,4.91-2.74,4.8-11.24-.28-22.5-.21-33.75-.29a44,44,0,0,1,2.15-5C81.27,151.72,85.33,146.24,87.93,139.92Z"/><path class="cls-4" d="M49.51,162.56c-3-8.13-8.51-14.9-12.2-22.66A9.28,9.28,0,0,1,44.7,136a1.94,1.94,0,0,0,0,2.51c5,8,9.17,16.43,16,24Z"/><path class="cls-4" d="M87.93,139.92c-2.6,6.32-6.66,11.8-10.05,17.67a44,44,0,0,0-2.15,5h-11c6.7-8.06,11.81-16.84,16.5-25.87C83.69,137.34,86.34,137.54,87.93,139.92Z"/><path class="cls-5" d="M97.61,97.05c0,3.67-2.89,6.83-6,6.67a7.1,7.1,0,0,1-6.68-6.82c0-3.53,3.42-7.13,6.74-6.57C95.2,90.93,97.85,92.85,97.61,97.05Z"/><path class="cls-5" d="M28.63,97.07c-.32-4.39,1.61-6.2,5.88-6.21S40.56,93.2,40.57,97s-2.18,5.86-5.94,5.88S28.11,101.42,28.63,97.07Z"/><path class="cls-6" d="M40.74,85.45c-3.1-.34-4.86-2.28-4.84-5.22,0-2.78,1.55-5.24,4.6-5.41,3.4-.2,5.16,2.09,5.12,5.33C45.59,83.13,43.93,85.06,40.74,85.45Z"/><path class="cls-7" d="M81.85,76.52c2.2-2.39,4.59-2.5,6.72-.12s1.94,4.91.07,7.25c-1.52,1.9-3.72,2.44-5.75,1-2.79-2-3.76-4.55-1.42-7.61.08,1.32.55,2.26,2.09,1.78a1.35,1.35,0,0,0,.75-1.07C84.11,76.28,83.13,76.05,81.85,76.52Z"/><path class="cls-1" d="M40.53,67.7c-1.47.22-3.25.45-5,.78-1,.18-2,.54-2.55-.63-.59-1.39.46-2.2,1.48-2.71a14.22,14.22,0,0,1,11.9-.24c1.23.48,2.48,1.45,1.87,3s-1.87.63-3,.42C43.82,68,42.34,67.92,40.53,67.7Z"/><path class="cls-1" d="M85.47,63.83a14.22,14.22,0,0,1,3.23.4c1.67.52,4.13,1.07,3.58,3.3-.61,2.52-2.72.45-4.17.5-2.63.09-5.26.08-7.89.2-1,0-2.38,1.29-3-.26s.59-2.42,1.77-3.15C80.79,63.71,82.81,63.91,85.47,63.83Z"/><path class="cls-5" d="M51.5,108.12c7.46,2.87,14.82,2.33,22.77-.61C70.05,113.45,56.51,113.65,51.5,108.12Z"/><path class="cls-2" d="M81.85,76.52c1.28-.47,2.26-.24,2.46,1.25a1.35,1.35,0,0,1-.75,1.07c-1.54.48-2-.46-2.09-1.78A2.29,2.29,0,0,0,81.85,76.52Z"/></g></g></svg>