<svg xmlns="http://www.w3.org/2000/svg" viewBox="0 0 111.6 165.19"><defs><style>.cls-1{fill:#4e2e1b;}.cls-2{fill:#421b05;}.cls-3{fill:#362822;}.cls-4{fill:#bf914f;}.cls-5{fill:#f4ac8c;}.cls-6{fill:#53382d;}.cls-7{fill:#f9ca9b;}</style></defs><g id="Layer_2" data-name="Layer 2"><g id="Layer_1-2" data-name="Layer 1"><path class="cls-1" d="M110,57.41a3.77,3.77,0,0,1,.57,3.14,86.31,86.31,0,0,0,0,23.81l-.34,2.09c-4.27.44-2.08,4.24-2.95,6.31-1.63,3.89-3.94,7.84-3.17,12.43a10.18,10.18,0,0,1-1,5.32c-2.45,1.66-.31,5.26-3,6.94-.69.44-.7,1.94-2,1.7s-1.3-1.4-1.56-2.3c-.89-3-2-5.88-.85-9.15.48-1.42.68-3.38-1.31-4.36-1.7-.83-2.51.46-3.19,1.53-1.56,2.48-2.34,0-3.42-.44,0-2.66,0-5.33,0-8,.44-6.73-1.21-13.21-2.3-19.76-.14-.83-.19-2.13-1.64-2-3.48.31-6.81-1.47-10.38-.49-1.16.31-3.13,2.08-3.82,0s1.47-3.09,3.23-3.62c3.7-1.11,7.33-.42,11.65,1.71-1.35-4.8-2.53-8.42-3.37-12.11-.7-3.12-1.89-3.85-5.15-2.81a190.36,190.36,0,0,1-40,8.36c-7.74.72-12.06,4.49-14,12.09a37.67,37.67,0,0,0,1.2,23.52,12.77,12.77,0,0,0,2.67,6.1l.05,1a20.8,20.8,0,0,1-2.87-.56c-1.29-.45-1.91-2.82-3.64-1.73s-.52,3-.79,4.44c-.89,4.76.53,10.19-3,14.14-1.55,1.76-1.64,3.4-1.88,5.29l.06.27-.27.06a3.11,3.11,0,0,1-3.68-1.9c.93-8.33-1.29-15.92-4.19-23.74-7.44-20-7.79-40.38-.06-60.52a44.34,44.34,0,0,1,21-23.81,9.47,9.47,0,0,0,3.9-3A20.3,20.3,0,0,0,37,16.66a76.14,76.14,0,0,1,34-1.07c5.62,1.06,11,3.26,16.53,4.94L88,22c-.5,3.5,1.62,3.61,4.15,3.19l-.07-.07c-1,5.1,3.37,4.75,6.18,6l-.07-.06c-.73,4.56,1.27,7.27,5.66,8.36l.16.36C104.92,46,105.24,52.47,110,57.41Z"/><path class="cls-2" d="M87.46,20.53c-5.5-1.68-10.91-3.88-16.53-4.94a76.14,76.14,0,0,0-34,1.07,20.3,20.3,0,0,1-6.37.76C32.7,9,38.4,4.15,46.33,1.73A43.17,43.17,0,0,1,68,1.07C78.7,3.31,85.33,9.7,87.46,20.53Z"/><path class="cls-3" d="M87.81,104.43c1.08.49,1.86,2.92,3.42.44.68-1.07,1.49-2.36,3.19-1.53,2,1,1.79,2.94,1.31,4.36-1.1,3.27,0,6.17.85,9.15.26.9.31,2.08,1.56,2.3s1.35-1.26,2-1.7c2.66-1.68.52-5.28,3-6.94a69.79,69.79,0,0,0,2.65,24.62c-3.74-2.12-3.86-2.3-9.2-13.07-2.24,4.62-2.52,9.91-6.67,14.07-.2-3.79-.17-6.93-1.12-9.95-.75-2.38-1.77-2.38-3.47-.81-4.12,3.81-3.64,8.48-2.29,13.38-3.68.14-5-2.68-6.92-4.54-1.44.77-.75,2.24-1.44,3.1-2.73.57-4.29-3.24-7.22-1.93-.26-1.65-.53-3.31-.79-5,4.5-2.39,9.67-3.29,13.84-6.49,5.88-4.5,10.26-9.94,11.68-17.6l-4.76,4.92-1-1.22c.21-1.71.42-3.43.64-5.15A2.56,2.56,0,0,0,87.81,104.43Zm14.61,23.24c.15-.27.4-.52.39-.76s-.27-.47-.42-.7c-.14.24-.39.48-.38.72S102.26,127.4,102.42,127.67Z"/><path class="cls-4" d="M67.47,135.38c2.93-1.31,4.49,2.5,7.22,1.93.43.83.85,1.67,1.27,2.51l-3.21,7.7c-2.15.27-1.75,5.18-5.7,2.69-4.37-2.77-5.87-1.9-8.06,3.15-1.2,2.77-1,6.09-3.12,9-2.45-4-2.08-8.45-4.72-11.83-1.35-1.72-2.69-2.83-4.48-1.39-2.47,2-4.82,1.07-7.29.4-.46-3.53-2.17-6.61-3.59-9.79l1.43-2.47c3.22-.67,6.34-1.51,7.94-4.84,3.5,6.23,8.44,11.73,9.35,19.26.12,1.05-.16,2.74,1.88,3.38,2.21-6.82,3-14.26,8.63-19.48L65,135.5l.47,0,.47-.08Z"/><path class="cls-5" d="M39.38,149.51c2.47.67,4.82,1.58,7.29-.4,1.79-1.44,3.13-.33,4.48,1.39,2.64,3.38,2.27,7.88,4.72,11.83,2.14-2.88,1.92-6.2,3.12-9,2.19-5.05,3.69-5.92,8.06-3.15,4,2.49,3.55-2.42,5.7-2.69Q72,155.74,71.26,164c-10.19.8-20.4.47-30.6.14Q40,156.81,39.38,149.51Z"/><path class="cls-3" d="M45.16,132.41c-1.6,3.33-4.72,4.17-7.94,4.84-.5-1.65-.81-3.68-3-1.16-1.3,1.49-2.75,2.89-5.41,2.77,1.35-4.31,2-8.55-1.07-12.3-.83-1-1.65-2.4-3.11-2.19-1.62.24-1.58,1.94-1.79,3.17-.43,2.59-.69,5.21-1.07,8.16-3-2.44-3.25-6.11-5-9.11-1.83.44-1.56,2.7-2.95,3.44.24-1.89.33-3.53,1.88-5.29,3.49-3.95,2.07-9.38,3-14.14.27-1.45-.84-3.41.79-4.44s2.35,1.28,3.64,1.73a21,21,0,0,0,2.86.56,4,4,0,0,0,.75.28l0,0,2.22,3.68.08-.07c-3.18.93-5-2.69-8.13-2.61a4.63,4.63,0,0,0,0,1.57A18.88,18.88,0,0,0,22.25,114a33,33,0,0,0,19.23,14.77C43.4,129.31,45.49,129.63,45.16,132.41Zm-24.6-23.75-.62.33c.1.1.23.3.31.28a2.57,2.57,0,0,0,.61-.28Z"/><path class="cls-6" d="M39.38,149.51q.65,7.31,1.28,14.6l-17,.14-.33-.13-.13-.09q2.23-10.26,4.46-20.54a14.87,14.87,0,0,1,8.12-3.77C37.21,142.9,38.92,146,39.38,149.51Z"/><path class="cls-6" d="M71.26,164q.75-8.24,1.49-16.45l3.21-7.7a10.65,10.65,0,0,1,8.14,3.88l.47.83.19.18q2,9.76,3.92,19.53Z"/><path class="cls-5" d="M88.68,164.24q-2-9.77-3.92-19.53c3.83-1.67,5.72,2.1,8,3.52A27.76,27.76,0,0,1,103,159.33c2,4,.93,5.81-3.57,5.76C95.84,165,92.26,164.54,88.68,164.24Z"/><path class="cls-5" d="M27.67,143.49Q25.44,153.76,23.21,164c-3.42.82-7-.14-10.4,1a3.93,3.93,0,0,1-4.14-1.16c-1.26-1.4-.17-2.7.47-4.07C12.93,151.59,19.86,147.06,27.67,143.49Z"/><path class="cls-3" d="M104.12,105.19c-.77-4.59,1.54-8.54,3.17-12.43.87-2.07-1.32-5.87,2.95-6.31A39.75,39.75,0,0,1,104.12,105.19Z"/><path class="cls-3" d="M110.58,84.36a86.31,86.31,0,0,1,0-23.81A69,69,0,0,1,110.58,84.36Z"/><path class="cls-3" d="M110,57.41C105.24,52.47,104.92,46,104,39.79A40,40,0,0,1,110,57.41Z"/><path class="cls-3" d="M9.91,128.46a3.11,3.11,0,0,0,3.68,1.9c-1.08,2.84-3.44,4.25-6.59,5.88Z"/><path class="cls-3" d="M103.88,39.43c-4.39-1.09-6.39-3.8-5.66-8.36A18.9,18.9,0,0,1,103.88,39.43Z"/><path class="cls-3" d="M98.29,31.13c-2.81-1.22-7.13-.87-6.18-6A15.18,15.18,0,0,1,98.29,31.13Z"/><path class="cls-3" d="M92.18,25.23c-2.53.42-4.65.31-4.15-3.19C89.54,22.94,91.27,23.55,92.18,25.23Z"/><path class="cls-5" d="M23.34,164.12l.33.13C23.32,164.83,23.24,164.7,23.34,164.12Z"/><path class="cls-5" d="M84.57,144.53l-.47-.83C84.25,144,84.41,144.26,84.57,144.53Z"/><path class="cls-7" d="M45.16,132.41c.33-2.78-1.76-3.1-3.68-3.67A33,33,0,0,1,22.25,114a18.88,18.88,0,0,1-1.39-2.63,4.63,4.63,0,0,1,0-1.57c3.13-.08,5,3.54,8.13,2.61l.26.69.48-.29-.82-.33-2.22-3.68a25.88,25.88,0,0,0,4.78-1.17c5.44-2.48,5.94-7.15,1.28-10.82-3.45-2.72-7.6-.72-9.5,4.56A37.67,37.67,0,0,1,22,77.82c2-7.6,6.29-11.37,14-12.09a190.36,190.36,0,0,0,40-8.36c3.26-1,4.45-.31,5.15,2.81.84,3.69,2,7.31,3.37,12.11-4.32-2.13-8-2.82-11.65-1.71-1.76.53-4,1.47-3.23,3.62s2.66.31,3.82,0c3.57-1,6.9.8,10.38.49,1.45-.14,1.5,1.16,1.64,2,1.09,6.55,2.74,13,2.3,19.76a45.77,45.77,0,0,0-5.29-.93c-3.31-.2-4.75,2.25-5.33,4.83-.75,3.28,1.09,5.67,3.95,7.18,3.1,1.63,4-.67,4.94-2.88.3-.68.75-.09,1.05.24-.22,1.72-.43,3.44-.64,5.15-.19.46-.39.92-.59,1.38-.06.13-.2.26-.18.37a4.34,4.34,0,0,0,.24.69l-.68.16.13.4c.15-.21.31-.41.47-.62.75.12,1.08-.34,1.29-.94l.28-.21,4.76-4.93c-1.42,7.66-5.8,13.1-11.68,17.6-4.17,3.2-9.34,4.1-13.84,6.49-4,0-7.89,0-11.84.06-1.17,0-3.08-.68-3.27,1.12s1.59,1.82,2.9,1.79c3.69-.08,7.07,1.27,10.55,2.18-5.6,5.22-6.42,12.66-8.63,19.48-2-.64-1.76-2.33-1.88-3.38C53.6,144.14,48.66,138.64,45.16,132.41Zm28.5-49.76c-1.93,3.09-1.36,5.77,1.64,7.67,2,1.25,3.87.43,5.27-1.28a4.85,4.85,0,0,0-.1-6.78c-1.94-2.23-4.19-2.48-6.35-.11A4.33,4.33,0,0,1,73.66,82.65ZM40.07,85.24c-.47-2.42-1.65-4.68-4.6-4.59S30.84,83,30.87,85.9c0,2.75,1.6,4.86,4.5,4.87C38.57,90.77,39.77,88.42,40.07,85.24ZM35.89,70.07c-2.61.07-4.6.24-6.33,1.42-.83.57-1.92,1.28-1.66,2.3.4,1.56,1.86,1.08,2.92.81a21,21,0,0,1,7.41-.5c1.37.13,3.53,2.36,4.16-.23.48-2-1.81-2.93-3.63-3.41A17.66,17.66,0,0,0,35.89,70.07Zm9.34,42.52c6,5.17,17.56,5.11,21.15-.1A57.82,57.82,0,0,1,45.23,112.59Z"/><path class="cls-5" d="M23.22,101.34c1.9-5.28,6.05-7.28,9.5-4.56,4.66,3.67,4.16,8.34-1.28,10.82a25.88,25.88,0,0,1-4.78,1.17l0,0c.25-1.55.25-1.55-.79-1.29A12.77,12.77,0,0,1,23.22,101.34Z"/><path class="cls-5" d="M87.12,104.88c-.3-.33-.75-.92-1.05-.24-1,2.21-1.84,4.51-4.94,2.88-2.86-1.51-4.7-3.9-3.95-7.18.58-2.58,2-5,5.33-4.83a45.77,45.77,0,0,1,5.29.93c0,2.66,0,5.33,0,8A2.56,2.56,0,0,1,87.12,104.88Z"/><path class="cls-7" d="M25.89,107.44c1-.26,1-.26.79,1.29a4,4,0,0,1-.75-.28C25.92,108.11,25.91,107.77,25.89,107.44Z"/><path class="cls-5" d="M65,135.57c-3.48-.91-6.86-2.26-10.55-2.18-1.31,0-3.08-.1-2.9-1.79s2.1-1.09,3.27-1.12c3.95-.1,7.89,0,11.84-.06.26,1.65.53,3.31.79,5l-1.58.07c-.18-.42-.35-.85-.53-1.27L65,135.5Z"/><path class="cls-1" d="M102.42,127.67c-.16-.27-.41-.5-.41-.74s.24-.48.38-.72c.15.23.41.46.42.7S102.57,127.4,102.42,127.67Z"/><path class="cls-7" d="M65,135.5l.41-1.32c.18.42.35.85.53,1.27l-.47.08Z"/><path class="cls-7" d="M20.56,108.66l.3.33a2.57,2.57,0,0,1-.61.28c-.08,0-.21-.18-.31-.28Z"/><path class="cls-1" d="M40.07,85.24c-.3,3.18-1.5,5.53-4.7,5.53-2.9,0-4.47-2.12-4.5-4.87,0-2.91,1.53-5.17,4.6-5.25S39.6,82.82,40.07,85.24Z"/><path class="cls-1" d="M74.12,82.15c2.16-2.37,4.41-2.12,6.35.11a4.85,4.85,0,0,1,.1,6.78c-1.4,1.71-3.31,2.53-5.27,1.28-3-1.9-3.57-4.58-1.64-7.67.18,1,.5,1.92,1.76,1.75a1.2,1.2,0,0,0,.8-.89C76.15,82.2,75.07,82.24,74.12,82.15Z"/><path class="cls-1" d="M35.89,70.07a17.66,17.66,0,0,1,2.87.39c1.82.48,4.11,1.44,3.63,3.41-.63,2.59-2.79.36-4.16.23a21,21,0,0,0-7.41.5c-1.06.27-2.52.75-2.92-.81-.26-1,.83-1.73,1.66-2.3C31.29,70.31,33.28,70.14,35.89,70.07Z"/><path class="cls-5" d="M45.23,112.59a57.82,57.82,0,0,0,21.15-.1C62.79,117.7,51.23,117.76,45.23,112.59Z"/><path class="cls-3" d="M28.88,112.45l.82.33-.48.29-.26-.69Z"/><path class="cls-1" d="M85.87,112.41l-.47.62-.13-.4.68-.16Z"/><path class="cls-3" d="M85.89,111.41c.2-.46.4-.92.59-1.38l1,1.22-.28.22Z"/><path class="cls-1" d="M85.89,111.41l1.27.06c-.21.6-.54,1.06-1.29.94l.08.06a4.34,4.34,0,0,1-.24-.69C85.69,111.67,85.83,111.54,85.89,111.41Z"/><path class="cls-7" d="M74.12,82.15c.95.09,2,0,2.1,1.36a1.2,1.2,0,0,1-.8.89c-1.26.17-1.58-.75-1.76-1.75A4.33,4.33,0,0,0,74.12,82.15Z"/></g></g></svg>