<svg xmlns="http://www.w3.org/2000/svg" viewBox="0 0 120.42 163.96"><defs><style>.cls-1{fill:#f9ca9b;}.cls-2{fill:#bf914f;}.cls-3{fill:#7b5e61;}.cls-4{fill:#f4ac8c;}.cls-5{fill:#f4a2b0;}.cls-6{fill:#4e2e1b;}</style></defs><g id="Layer_2" data-name="Layer 2"><g id="Layer_1-2" data-name="Layer 1"><path class="cls-1" d="M48.36,126c-1.58-2.27-4.29-2.37-6.54-3.14-12.57-4.28-20-13.41-24.6-25.39-.72-1.89-1.39-3.71-3.08-4.94,2.68-4-.63-7.6-.85-11.41C15.08,78.69,15,75.86,15.22,73c.62-8.94,1.29-17.87,2.08-26.79.32-3.65,1.66-5.34,6.18-4.64a245.32,245.32,0,0,0,73.44,0c4.47-.66,5.75.84,6.28,4.52a213.93,213.93,0,0,1,2,25.78c.07,3.16.18,6.3,1.94,9.09.55,4.07-3.12,7.42-2,11.58-2.77,3.59-2.84,8.23-5.07,12.19C95,113.92,87.72,120.45,78,123.31c-4.75,1.4-5.22,3.4-4.91,7.15a33.92,33.92,0,0,1-.06,3.49c-1.29.06-2.71-.23-3.69.92-4.47,5.23-10.31,3-15.62,2.59-3.19-.23-5.15-2.5-4.65-6.27C49.34,129.5,49.72,127.56,48.36,126ZM42.24,75.26c-.62-2.92-1.93-5.43-5.39-5.37-3.72.06-5.19,2.78-5.11,6s1.95,5.44,5.38,5.26S41.74,78.4,42.24,75.26Zm47.26.4c-.29-3.14-1.51-5.64-5-5.76-3.7-.12-5.42,2.37-5.44,5.7,0,3.17,1.8,5.49,5.16,5.54S89.09,78.79,89.5,75.66Zm-5.67-21c-2.73.09-5.39.12-7.32,2.52-.88,1.09-1.61,2.31-.94,3.64.91,1.81,2.34.65,3.44.19a12.83,12.83,0,0,1,8.28-.27c1.47.36,3.72,2.49,4.68-.27.87-2.48-1.38-4-3.29-4.95C87.27,54.84,85.46,54.93,83.83,54.67Zm-47.21.21a8.69,8.69,0,0,0-6.92,2.19c-1,.94-1.81,2.09-1.28,3.52.71,1.93,2.17.92,3.34.58,3.39-1,6.75-1.67,10.15,0,1,.5,2.24,1.19,3-.35a3,3,0,0,0-.64-3.24C42.23,55.25,39.55,54.63,36.62,54.88Zm11,50.58c4.24,6.1,18.14,5.26,24.15,2.05.75-.4,1.43-1.1.82-2s-1.5-.5-2.26-.15c-4.4,2-9.08,1.32-13.68,1.57C53.54,107.14,50.93,104.57,47.59,105.46Z"/><path class="cls-2" d="M107.19,81c-1.76-2.79-1.87-5.93-1.94-9.09a213.93,213.93,0,0,0-2-25.78c-.53-3.68-1.81-5.18-6.28-4.52a245.32,245.32,0,0,1-73.44,0c-4.52-.7-5.86,1-6.18,4.64C16.51,55.17,15.84,64.1,15.22,73c-.19,2.82-.14,5.65-1.93,8.07-6-2.37-6.23-8.29-8.08-13.21-.07-1-.13-2-.19-3A1.68,1.68,0,0,0,4.57,63c-1.81-19.3,1.63-37.16,17-50.33C35.54.66,52.66-1.45,70.43.78c19,2.39,33.59,11.29,41.24,29.47,4.39,10.43,6.13,21.33,3.74,32.64a21.94,21.94,0,0,0-.11,4C113.69,72.22,113.8,78.56,107.19,81Z"/><path class="cls-3" d="M61.24,163.59a181.36,181.36,0,0,0,18.31-25.51C80.32,136.84,81,135.3,83,136c11.9,4.17,23.56,8.8,32.51,18.21,2.28,2.4,5.42,5.33,4,8.45-1,2.3-5.13.87-7.83.89C95.29,163.65,78.89,163.59,61.24,163.59Z"/><path class="cls-3" d="M59.32,163.56c-19.74,0-38.13,0-56.52,0-2.54,0-2.74-1.14-1.92-3.15,1.89-4.65,5.42-7.91,9.22-10.9,8-6.3,17.39-10,26.89-13.38,1.7-.6,2.73,0,3.68,1.5C46.13,146.34,51.61,155,59.32,163.56Z"/><path class="cls-4" d="M5.21,67.9c1.85,4.92,2.06,10.84,8.08,13.21.22,3.81,3.53,7.39.85,11.41C7.37,92.64,3,89.78.84,83.78A14.31,14.31,0,0,1,5.21,67.9Z"/><path class="cls-4" d="M107.19,81c6.61-2.48,6.5-8.82,8.11-14.17,6,7.2,6.76,14.37,2,20.1l-1.06,1.08c-2.52,4.34-6.75,4.57-11.06,4.58C104.07,88.46,107.74,85.11,107.19,81Z"/><path class="cls-5" d="M48.36,126c1.36,1.57,1,3.51.75,5.2-.5,3.77,1.46,6,4.65,6.27,5.31.4,11.15,2.64,15.62-2.59,1-1.15,2.4-.86,3.69-.92,1.56.31,3.81-.48,4.44,1.36s-1.73,2.59-2.9,3.42c-8.35,5.94-21.86,5.57-28.6-.67-1.48-1.37-4.44-2.75.22-4.48C49.4,132.4,47.9,128.64,48.36,126Z"/><path class="cls-4" d="M4.57,63A1.68,1.68,0,0,1,5,65,1.48,1.48,0,0,1,4.57,63Z"/><path class="cls-1" d="M116.27,88.05,117.33,87Z"/><path class="cls-6" d="M42.24,75.26c-.5,3.14-1.7,5.73-5.12,5.9s-5.3-2.09-5.38-5.26,1.39-6,5.11-6C40.31,69.83,41.62,72.34,42.24,75.26Z"/><path class="cls-6" d="M89.5,75.66c-.41,3.13-1.82,5.53-5.26,5.48s-5.18-2.37-5.16-5.54c0-3.33,1.74-5.82,5.44-5.7C88,70,89.21,72.52,89.5,75.66Z"/><path class="cls-2" d="M83.83,54.67c1.63.26,3.44.17,4.85.86,1.91.94,4.16,2.47,3.29,4.95-1,2.76-3.21.63-4.68.27A12.83,12.83,0,0,0,79,61c-1.1.46-2.53,1.62-3.44-.19-.67-1.33.06-2.55.94-3.64C78.44,54.79,81.1,54.76,83.83,54.67Z"/><path class="cls-2" d="M36.62,54.88c2.93-.25,5.61.37,7.62,2.72a3,3,0,0,1,.64,3.24c-.73,1.54-2,.85-3,.35-3.4-1.69-6.76-1-10.15,0-1.17.34-2.63,1.35-3.34-.58-.53-1.43.27-2.58,1.28-3.52A8.69,8.69,0,0,1,36.62,54.88Z"/><path class="cls-4" d="M47.59,105.46c3.34-.89,5.95,1.68,9,1.51,4.6-.25,9.28.48,13.68-1.57.76-.35,1.7-.65,2.26.15s-.07,1.56-.82,2C65.73,110.72,51.83,111.56,47.59,105.46Z"/></g></g></svg>