<svg xmlns="http://www.w3.org/2000/svg" viewBox="0 0 137.95 161.54"><defs><style>.cls-1{fill:#d96e2a;}.cls-2{fill:#f4a2b0;}.cls-3{fill:#f9ca9b;}.cls-4{fill:#f4ac8c;}.cls-5{fill:#4e2e1b;}.cls-6{fill:#362822;}</style></defs><g id="Layer_2" data-name="Layer 2"><g id="Layer_1-2" data-name="Layer 1"><path class="cls-1" d="M19,156.44c-4.54-1.67-9.07-3.31-13-6.22-4.94-3.64-7.21-9.57-5.4-14.39.56-1.5.79-3.47,3.3-1.55,4.35,3.36,7.6.72,10.07-2.7,4-5.57,4.58-12,3.65-18.64-.91-6.49-3.91-12.37-5.47-18.61C7.92,77.28,9,60,11.61,42.82A58.68,58.68,0,0,1,21,18.31C31.46,2.91,47.18-.38,64.35,0c13.14.32,25,4.68,36.12,11.51a7.69,7.69,0,0,0,4.21,1.32c10.54-.1,16.81,6.05,20.12,15.06,6.81,18.49,8,37.74,4.84,57.06-1,6.27-4.65,12.07-6.63,18.23-2.51,7.79-4.59,15.72-1.38,23.91a15.82,15.82,0,0,0,4.73,6.91c2,1.61,4.56,2.77,6.88.89,3.54-2.87,4.09-.28,4.51,2.26,1,6-1.91,10.19-6.5,13.59-3.68,2.72-8.06,3.89-12.19,5.61-6.84-10.22-16.72-16.15-28.09-20a15.22,15.22,0,0,0-6.63-4.81c-3.11-1.27-3.62-3.32-3.3-6.12l1-.48,1.1-.43c13.28-2.9,21.25-11.62,26.13-23.77.45-1.13.88-2.22,0-3.28-4.89-6.1-3.45-12.84-2-19.57.28-1.29,1.21-2.73.26-3.83-3.41-4-2.76-8.7-2.77-13.34,0-1.28.35-2.91-1.56-3.15-6.37-.8-9.62-5.52-12.74-10.25-1.72-2.61-2.87-2.79-5.23-.57C79.5,52.19,72.64,54,65,51.49c-1.87-.6-3.21-.86-4.63,1.13A11.9,11.9,0,0,1,47,57.35c-4.51-1.21-6.33.29-7.45,4.18a4.16,4.16,0,0,1-1.14,2.19C32.05,68.19,30.8,75.1,29.06,82c-.6,2.37-.68,3.86.56,5.87,1.95,3.16,3.84,7,2.11,10.37s-.61,5.62.8,8.23c4.63,8.6,11.45,14.78,20.88,17.41,3.87,1.08,5.3,2.81,4.72,6.55-4.75,1.06-8.24,4.32-12.08,7-9.53,3.32-18,8.23-24.09,16.55C21.19,155,20.52,156.22,19,156.44Z"/><path class="cls-2" d="M19,156.44c1.49-.22,2.16-1.47,2.93-2.5,6.12-8.32,14.56-13.23,24.09-16.55,3.86-.34,4.63,2.85,5.56,5.32,1.8,4.82,4.67,5.63,8.65,2.83,2.38-1.68,3.57-.81,4.55,1.4a51.57,51.57,0,0,1,3.41,10.34c.18.83.67,1.63,1.61,1.6,1.1,0,1-1,1.18-1.83a30.83,30.83,0,0,1,2.68-9c1.65-3.13,3.41-4.75,6.9-2,2.24,1.76,4.32,2,5.67-1.6,1.08-2.88,3.1-5.41,4.71-8.1,11.37,3.85,21.25,9.78,28.09,20,1.28,3.54.85,5.19-3.72,5.16q-45.37-.28-90.77,0C20.63,161.54,18.55,160.69,19,156.44Z"/><path class="cls-3" d="M58.13,130.43c.58-3.74-.85-5.47-4.72-6.55-9.43-2.63-16.25-8.81-20.88-17.41-1.41-2.61-2.55-4.84-.8-8.23S31.57,91,29.62,87.87c-1.24-2-1.16-3.5-.56-5.87,1.74-6.9,3-13.81,9.37-18.28a4.16,4.16,0,0,0,1.14-2.19c1.12-3.89,2.94-5.39,7.45-4.18a11.9,11.9,0,0,0,13.3-4.73c1.42-2,2.76-1.73,4.63-1.13,7.69,2.46,14.55.7,20.32-4.71,2.36-2.22,3.51-2,5.23.57,3.12,4.73,6.37,9.45,12.74,10.25,1.91.24,1.55,1.87,1.56,3.15,0,4.64-.64,9.36,2.77,13.34,1,1.1,0,2.54-.26,3.83-1.43,6.73-2.87,13.47,2,19.57.86,1.06.43,2.15,0,3.28-4.88,12.15-12.85,20.87-26.13,23.77l-1.1.43-1,.48c-5.22,2.38-11-.14-16.37,2.07,5,1,9.54,3.58,15.12,3.65C72.56,136.4,73,144.9,69.53,152.49,66.28,144.22,66.15,135.18,58.13,130.43Zm-10-34.07c-.62-3.44-2-6.33-5.94-6.78-3.64-.42-7.25,3.1-7.16,6.58.11,3.89,2.73,6.33,6.66,6.3S47.65,100.24,48.17,96.36ZM92.06,98.3c.1,2.37,2.88,3.86,6.47,4.09a6.11,6.11,0,0,0,6.42-6.6c-.39-3.88-3.16-5.8-6.67-6.08C94.51,89.41,92,92.45,92.06,98.3ZM91.2,73.68c-1,1.95-4.08,2.83-4.07,5.78s1.78,5.11,5,5,4.78-2.38,4.74-5.31S95,74.31,91.2,73.68ZM52.7,79.4c-.25-3-1.68-5.38-4.8-5.34-2.81,0-4.69,2.22-4.89,5-.21,3,1.47,5.2,4.63,5.37S52.26,82.35,52.7,79.4ZM48,67c1.44.26,2.9.5,4.35.81,1.1.23,2.42,1,3.08-.43s-.54-2.57-1.68-3.17a12.15,12.15,0,0,0-11.9-.06c-1.1.58-2.06,1.4-1.7,2.7.42,1.54,1.72,1.13,2.89.91C44.63,67.48,46.27,67.28,48,67Zm43.68,0c1.55.28,3.33.59,5.1.93,1,.2,2,.22,2.59-.82s-.23-1.78-1-2.42c-2.82-2.28-10-2.66-12.77-.68A2.73,2.73,0,0,0,84.14,67c.45,1.7,1.74,1,2.84.76C88.43,67.5,89.9,67.32,91.65,67.06ZM81.38,106.91c-7.49,3.35-15,3-22.58.65C64.14,112.62,77.12,112.28,81.38,106.91Z"/><path class="cls-4" d="M58.13,130.43c8,4.75,8.15,13.79,11.4,22.06,3.49-7.59,3-16.09,10.26-21.32-5.58-.07-10.1-2.62-15.12-3.65,5.35-2.21,11.15.31,16.37-2.07-.32,2.8.19,4.85,3.3,6.12A15.22,15.22,0,0,1,91,136.38c-1.61,2.69-3.63,5.22-4.71,8.1-1.35,3.6-3.43,3.36-5.67,1.6-3.49-2.75-5.25-1.13-6.9,2a30.83,30.83,0,0,0-2.68,9c-.15.79-.08,1.81-1.18,1.83-.94,0-1.43-.77-1.61-1.6a51.57,51.57,0,0,0-3.41-10.34c-1-2.21-2.17-3.08-4.55-1.4-4,2.8-6.85,2-8.65-2.83-.93-2.47-1.7-5.66-5.56-5.32C49.89,134.75,53.38,131.49,58.13,130.43Z"/><path class="cls-4" d="M82.08,125l1.1-.43Z"/><path class="cls-4" d="M48.17,96.36c-.52,3.88-2.43,6.07-6.44,6.1s-6.55-2.41-6.66-6.3c-.09-3.48,3.52-7,7.16-6.58C46.13,90,47.55,92.92,48.17,96.36Z"/><path class="cls-4" d="M92.06,98.3c-.07-5.85,2.45-8.89,6.22-8.59,3.51.28,6.28,2.2,6.67,6.08a6.11,6.11,0,0,1-6.42,6.6C94.94,102.16,92.16,100.67,92.06,98.3Z"/><path class="cls-5" d="M91.2,73.68c3.78.63,5.61,2.5,5.65,5.47s-1.56,5.21-4.74,5.31-5-2-5-5S90.21,75.63,91.2,73.68Z"/><path class="cls-6" d="M52.7,79.4c-.44,2.95-1.77,5.22-5.06,5S42.8,82.13,43,79.08c.2-2.8,2.08-5,4.89-5C51,74,52.45,76.39,52.7,79.4Zm-7-1.2A1.1,1.1,0,0,0,46.89,77a1,1,0,0,0-1.2-1.18c-.75,0-1.23.34-1.19,1.18A1.16,1.16,0,0,0,45.73,78.2Z"/><path class="cls-1" d="M48,67c-1.7.25-3.34.45-5,.76-1.17.22-2.47.63-2.89-.91-.36-1.3.6-2.12,1.7-2.7a12.15,12.15,0,0,1,11.9.06c1.14.6,2.39,1.64,1.68,3.17s-2,.66-3.08.43C50.87,67.53,49.41,67.29,48,67Z"/><path class="cls-1" d="M91.65,67.06c-1.75.26-3.22.44-4.67.69-1.1.19-2.39.94-2.84-.76a2.73,2.73,0,0,1,1.4-2.92c2.78-2,9.95-1.6,12.77.68.8.64,1.64,1.28,1,2.42s-1.56,1-2.59.82C95,67.65,93.2,67.34,91.65,67.06Z"/><path class="cls-4" d="M81.38,106.91c-4.26,5.37-17.24,5.71-22.58.65C66.39,109.92,73.89,110.26,81.38,106.91Z"/><path class="cls-3" d="M45.73,78.2A1.16,1.16,0,0,1,44.5,77c0-.84.44-1.16,1.19-1.18A1,1,0,0,1,46.89,77,1.1,1.1,0,0,1,45.73,78.2Z"/></g></g></svg>