<svg xmlns="http://www.w3.org/2000/svg" viewBox="0 0 140.44 162.24"><defs><style>.cls-1{fill:#421b05;}.cls-2{fill:#b5ddf4;}.cls-3{fill:#f9ca9b;}.cls-4{fill:#7b5e61;}.cls-5{fill:#f4a2b0;}.cls-6{fill:#f4ac8c;}.cls-7{fill:#4e2e1b;}.cls-8{fill:#6a4e39;}</style></defs><g id="Layer_2" data-name="Layer 2"><g id="Layer_1-2" data-name="Layer 1"><path class="cls-1" d="M20.72,155.88c-4.33-2.09-8.9-3.71-12.63-6.93a22.37,22.37,0,0,1-6.55-8.67c-2.67-6.73-2.34-7.34,4.78-8.29s10-5.39,8.77-12.75c-4.16-25.19-4.53-50.45.93-75.42,3.81-17.45,12.54-31.85,30-39.2,22.11-9.3,51-4.17,65.31,11.83C120.83,27,125,40,126.73,53.74a217.68,217.68,0,0,1-1.15,65.16c-1.47,8.43,1.75,13,10.38,13.06,5.17.07,4.87,2.36,3.93,5.88-1.69,6.37-5.88,10.72-11.39,13.89-2.72,1.57-5.68,2.75-8.53,4.1-.83-.49-1.93-.79-2.44-1.51-4.35-6.09-10.33-10.18-16.68-13.83-1.07-8.33-5.69-13.67-13.65-16.19,14.61-6.19,22.82-17.13,24.17-33,1.45-16.94-6.1-31.64-19.49-38.58a7.78,7.78,0,0,0-7.44-.31C74,57,63.1,59.71,51.51,58.92c-9.92-.68-16.24,3.1-19.88,12.37-7,17.77-1.47,44.25,22,53-8.09,2.54-12.52,8.16-13.84,16.41a49.93,49.93,0,0,0-15.13,11.77C23.51,153.77,22.91,155.75,20.72,155.88Z"/><path class="cls-2" d="M100.85,140.49c6.35,3.65,12.33,7.74,16.68,13.83.51.72,1.61,1,2.44,1.51.83,5.39-1.71,6.56-6.74,6.4-11.61-.38-23.24-.12-34.86-.12H26.8c-6.61,0-6.61,0-6.08-6.23,2.19-.13,2.79-2.11,3.92-3.43a49.93,49.93,0,0,1,15.13-11.77c1.6,4.42,5.33,6.59,9.17,8.63,6.39,3.4,13.46,5.59,18.86,10.79,1.33,1.28,2.91.79,4.5-.24A140.68,140.68,0,0,1,91,149.6C95.1,147.71,99.4,145.52,100.85,140.49Z"/><path class="cls-3" d="M53.61,124.27c-23.45-8.73-28.94-35.21-22-53,3.64-9.27,10-13.05,19.88-12.37C63.1,59.71,74,57,84.44,52.42a7.78,7.78,0,0,1,7.44.31c13.39,6.94,20.94,21.64,19.49,38.58-1.35,15.86-9.56,26.8-24.18,33-4.21.37-6.63,2.31-6,6.89-1,2.7.52,5.76-1.82,8.43-6.8,7.79-16.89,5.61-20.69-4.67C59.4,125.83,59.4,125.83,53.61,124.27Zm51.2-27.69c0-3.69-2.62-6.59-6.09-6.35s-6.15,1.7-5.91,5.82c.21,3.55,1.21,6.7,5.48,7C102.06,103.3,104.83,100.42,104.81,96.58Zm-56,.11c.06-4-2.44-6.09-6.1-6.29S36.9,92,36.74,96.06s1.84,6.63,5.58,6.76C45.87,103,48.65,101,48.79,96.69ZM97.28,79.31c-.27-3-1.89-5.16-5-5s-4.5,2.55-4.57,5.41c-.08,3.13,1.8,5.23,4.86,5.16S97.19,82.52,97.28,79.31Zm-43.46-.07c-.56-2.48-1.83-4.9-4.93-5C45.5,74.22,44,76.77,44,79.79s1.86,5.13,4.92,5.07S53.42,82.49,53.82,79.24Zm38-12.18c2.06.38,4,.78,5.93,1.07.76.11,1.8.29,2-.83a2.59,2.59,0,0,0-.61-1.74c-2.32-2.94-11.26-3.09-13.73-.28a2.2,2.2,0,0,0-.77,2.21c.51,1.41,1.61.67,2.48.52C88.66,67.73,90.26,67.37,91.79,67.06Zm-35.51-.31A9.69,9.69,0,0,0,55,65c-2.69-2.49-10.57-2.2-13,.42-.57.61-1.22,1.27-.77,2.14s1.4.78,2.18.56a17.08,17.08,0,0,1,10.74,0C55.05,68.44,56.11,68.53,56.28,66.75ZM81.7,107.28a36,36,0,0,1-23.41-.2C64.54,112.64,78,112.56,81.7,107.28Z"/><path class="cls-4" d="M53.61,124.27c5.79,1.56,5.79,1.56,5,10.68-6.65.19-6.7.21-3.82,6.1,1.93,3.93,5.39,6.64,8.32,9.75,2.12,2.24,4.33,5.23,6.5,6.36s4-3.92,6.76-5.61c4.73-2.89,7.81-7.6,10.28-12.53.83-1.64,2-4.08-1.7-4-2.74.08-2.89-2.24-3.83-3.87-.6-4.58,1.82-6.52,6-6.89,8,2.52,12.59,7.86,13.66,16.19-1.45,5-5.75,7.22-9.9,9.11A140.68,140.68,0,0,0,72.3,159.86c-1.59,1-3.17,1.52-4.5.24-5.4-5.2-12.47-7.39-18.86-10.79-3.84-2-7.57-4.21-9.17-8.63C41.09,132.43,45.52,126.81,53.61,124.27Z"/><path class="cls-5" d="M81.16,131.19c.94,1.63,1.09,3.95,3.83,3.87,3.73-.12,2.53,2.32,1.7,4-2.47,4.93-5.55,9.64-10.28,12.53-2.77,1.69-4.55,6.77-6.76,5.61s-4.38-4.12-6.5-6.36c-2.93-3.11-6.39-5.82-8.32-9.75C52,135.16,52,135.14,58.65,135c3.8,10.28,13.89,12.46,20.69,4.67C81.68,137,80.13,133.89,81.16,131.19Z"/><path class="cls-6" d="M104.81,96.58c0,3.84-2.75,6.72-6.52,6.46-4.27-.29-5.27-3.44-5.48-7-.24-4.12,2.44-5.58,5.91-5.82S104.79,92.89,104.81,96.58Z"/><path class="cls-6" d="M48.79,96.69c-.14,4.29-2.92,6.26-6.47,6.13-3.74-.13-5.74-2.62-5.58-6.76s2.41-5.86,5.95-5.66S48.85,92.69,48.79,96.69Z"/><path class="cls-7" d="M97.28,79.31c-.09,3.21-1.59,5.47-4.68,5.54s-4.94-2-4.86-5.16c.07-2.86,1.62-5.27,4.57-5.41S97,76.36,97.28,79.31Z"/><path class="cls-7" d="M53.82,79.24C53.42,82.49,52,84.8,49,84.86S44,82.76,44,79.79s1.47-5.57,4.86-5.51C52,74.34,53.26,76.76,53.82,79.24Z"/><path class="cls-8" d="M91.79,67.06c-1.53.31-3.13.67-4.75,1-.87.15-2,.89-2.48-.52a2.2,2.2,0,0,1,.77-2.21c2.47-2.81,11.41-2.66,13.73.28a2.59,2.59,0,0,1,.61,1.74c-.15,1.12-1.19.94-2,.83C95.78,67.84,93.85,67.44,91.79,67.06Z"/><path class="cls-8" d="M56.28,66.75c-.17,1.78-1.23,1.69-2.19,1.34a17.08,17.08,0,0,0-10.74,0c-.78.22-1.73.32-2.18-.56s.2-1.53.77-2.14c2.47-2.62,10.35-2.91,13-.42A9.69,9.69,0,0,1,56.28,66.75Z"/><path class="cls-6" d="M81.7,107.28c-3.66,5.28-17.16,5.36-23.41-.2A36,36,0,0,0,81.7,107.28Z"/></g></g></svg>