<svg xmlns="http://www.w3.org/2000/svg" viewBox="0 0 114.09 161.85"><defs><style>.cls-1{fill:#6a4e39;}.cls-2{fill:#f4ac8c;}.cls-3{fill:#583e28;}.cls-4{fill:#bf914f;}.cls-5{fill:#f9ca9b;}.cls-6{fill:#4e2e1b;}</style></defs><g id="Layer_2" data-name="Layer 2"><g id="Layer_1-2" data-name="Layer 1"><path class="cls-1" d="M1.17,93.41C-.18,75-1.19,56.56,3.07,38.37c4.76-20.26,17-33,37.87-36.81C53.73-.77,66.47-.63,79,2.9c20.94,5.9,30.25,21.43,33.5,41.62,2.36,14.7,1.58,29.5,1,44.28-1.45.37-1.53,1.48-1.6,2.71-.33,5.46-2.44,10.46-4.15,15.56-4.26,12.77-13.82,21.91-22,32l-8.5,6-.84-.74c.47-2.93,4-4.71,3.07-8.15,5.68-4.66,6.15-12,9.36-18a2.05,2.05,0,0,0-1.09-2.52c1-1.69,2.57-2.94,3.14-5,5.6-20.23,6.33-40.33-1.49-60.21C88.82,49.17,89,47.34,87,47a7.67,7.67,0,0,0,.31,4.43c.78,2.95-.09,3.83-3.2,3.31C68.1,52,52,52.16,35.9,53.8c-2.79.29-6.39,1.94-8.17.77-2.65-1.75.77-5.43-.14-8.37-1.93.69-2,2.56-2.59,4C19,65.3,18,80.92,20.51,96.8c1,6.18,1.71,12.51,5.18,18-2,3.06.95,5.32,1.8,7.51C29.35,127.13,30,133,35.16,136c-1.25,3.63,2.44,5.48,3,8.44l-.73.76c-3.74-1.25-5.72-5.2-9.58-6.3,0-2.3-1.85-3.41-3.2-4.79A89.23,89.23,0,0,1,5.41,104.63C3.9,100.92,4.66,96.32,1.17,93.41Zm84.24-48.7c.39.34.75.66,1.12,1,.09-.3.34-.7.23-.87a4.24,4.24,0,0,0-1-.83Z"/><path class="cls-2" d="M27.88,138.88c3.86,1.1,5.84,5.05,9.59,6.3l1.06.33c-.11-.36-.23-.72-.34-1.09-.59-3-4.28-4.81-3-8.44l3.67-.46c.94,3.39,3.05,6.07,5.1,8.85C48.09,150,53.4,154.88,56,161.6c-15.56.08-31.12.12-46.68.25-2.65,0-3.5-.66-2.74-3.48.49-1.84,1.54-3.24,2.3-4.87C14.26,147.37,21,143,27.88,138.88Z"/><path class="cls-2" d="M77.16,145.06l8.5-6c7.83,3.16,14,8.67,19.93,14.41,3.45,8.36,3.45,8.37-5.69,8.34q-20.61-.07-41.23-.19c.21-2.83,2.18-4.71,3.68-6.84,4.53-6.41,10.31-11.93,13.56-19.24l3.48.65c.9,3.44-2.6,5.22-3.07,8.15-.08.38-.18.77-.27,1.15Z"/><path class="cls-3" d="M105.59,153.45c-6-5.74-12.1-11.25-19.93-14.41,8.21-10.06,17.77-19.2,22-32,1.71-5.1,3.82-10.1,4.15-15.56.07-1.23.15-2.34,1.6-2.71-.15,16.35-2.7,32.45-5.07,48.56C107.57,142.74,106.52,148.09,105.59,153.45Z"/><path class="cls-3" d="M27.88,138.88c-6.9,4.12-13.62,8.49-19,14.62C5.15,133.63,2,113.67,1.17,93.42c3.49,2.9,2.73,7.5,4.24,11.21a89.23,89.23,0,0,0,19.27,29.46C26,135.47,27.87,136.58,27.88,138.88Z"/><path class="cls-4" d="M75.91,135.52c-3.25,7.31-9,12.83-13.56,19.24-1.5,2.13-3.47,4-3.68,6.84H56c-2.63-6.73-7.94-11.59-12.1-17.24-2-2.78-4.16-5.46-5.1-8.85,2-1.41,4.4-1.33,6.56-2.1,3.26,5.38,6.49,10.77,9.79,16.12.78,1.25,2,3.87,3.36,1.05,2.64-5.32,7.19-9.57,8.53-15.57l1-1.11a7.28,7.28,0,0,1,.92-.23A12.91,12.91,0,0,1,75.91,135.52Z"/><path class="cls-5" d="M67.07,135c-1.34,6-5.89,10.25-8.53,15.57-1.4,2.82-2.58.2-3.36-1.05-3.3-5.35-6.53-10.74-9.79-16.12.07-1.81.07-3.62.21-5.43s-.23-3.07-2.37-3.56c-6.73-1.55-12.38-5.17-17.54-9.62-3.47-5.5-4.22-11.83-5.18-18C18,80.92,19,65.3,25,50.21c.57-1.45.66-3.32,2.59-4,.91,2.94-2.51,6.62.14,8.37,1.78,1.17,5.38-.48,8.17-.77C52,52.16,68.1,52,84.12,54.73c3.11.52,4-.36,3.2-3.31A7.67,7.67,0,0,1,87,47c2,.35,1.81,2.18,2.3,3.43,7.82,19.88,7.09,40,1.49,60.21-.57,2.07-2.12,3.32-3.14,5-5.47,5.06-12.34,7.45-19.1,10.09H49.29a13.28,13.28,0,0,0,7.76,3.77c4,.8,8.34,2.94,11.51-1.8.15,2,.29,4,.44,6a7.28,7.28,0,0,0-.92.23ZM36.74,72.9h0c-1.32-1.53-2.57-1.67-3.71.2a.91.91,0,0,1-.65.66,1.7,1.7,0,0,0-1.6,1.62l-.06.25-.25,0c-2.24,1-.17,2.55-.43,3.81,1.34,2.58,2.89,5,6.36,4,2.55-.69,3.55-2.74,3.67-5.23.09-2-1.06-3.37-2.29-4.72Zm49.34,28.88c3.6-.09,7.13-3.71,6.63-7.2s-3.1-5.83-6.49-5.51S79.78,91.46,80,95.49C80.11,99.1,81.87,101.81,86.08,101.78ZM34.89,95.35c.44-3.77-1.86-6-5.62-6.38a5.68,5.68,0,0,0-6.38,6c.25,3.57,1.45,6.72,5.77,6.7C32.42,101.69,35.07,100.11,34.89,95.35Zm42.29-18.2c-2.82-1.72-2.38.4-2.27,1.45.28,2.72,1.6,4.84,4.55,5.05s4.63-1.69,5.15-4.39a5.05,5.05,0,0,0-3.26-6c-2.44-1-2.8-.68-2.53,2.3C79,77.22,78.29,77.67,77.18,77.15Zm3.24-15.32c-3.1-.09-5.07.09-6.82,1.16-1.12.69-2.44,1.57-1.94,3.09.67,2.07,2.22.7,3.29.4a15.21,15.21,0,0,1,7.81-.24c1.47.34,3.68,1.66,4.32-.33s-1.74-2.83-3.4-3.41A17.12,17.12,0,0,0,80.42,61.83Zm-44.79-.18a12.63,12.63,0,0,0-6.31,1.4c-1.12.59-2.63,1.41-2,3,.55,1.41,2,.77,3.08.48a16.87,16.87,0,0,1,8.38-.28c1.29.29,3.13,1.91,3.86-.09.81-2.24-1.43-3.09-3.12-3.72A23.69,23.69,0,0,0,35.63,61.65ZM68,107c-7.47,2.49-14.86,1.66-22.87-.39C50.59,112,63.07,112.12,68,107Z"/><path class="cls-3" d="M25.69,114.81c5.16,4.45,10.81,8.07,17.54,9.62,2.14.49,2.51,1.71,2.37,3.56s-.14,3.62-.21,5.43c-2.16.77-4.6.69-6.56,2.1l-3.67.46c-5.2-3-5.81-8.85-7.67-13.66C26.64,120.13,23.65,117.87,25.69,114.81Z"/><path class="cls-3" d="M69,133.68c-.15-2-.29-4-.44-6v-2c6.76-2.64,13.63-5,19.1-10.09a2.05,2.05,0,0,1,1.09,2.52c-3.21,6-3.68,13.35-9.36,18l-3.48-.65A12.91,12.91,0,0,0,69,133.68Z"/><path class="cls-5" d="M85.41,44.71l.36-.73a4.24,4.24,0,0,1,1,.83c.11.17-.14.57-.23.87C86.16,45.37,85.8,45.05,85.41,44.71Z"/><path class="cls-1" d="M38.19,144.42c.11.37.23.73.34,1.09l-1.06-.33Z"/><path class="cls-1" d="M77.16,145.06l-1.11.41c.09-.38.19-.77.27-1.15Z"/><path class="cls-2" d="M67.07,135l1-1.11Z"/><path class="cls-2" d="M86.08,101.78c-4.21,0-6-2.68-6.13-6.29-.17-4,2.9-6.11,6.27-6.42s6,1.94,6.49,5.51S89.68,101.69,86.08,101.78Z"/><path class="cls-2" d="M34.89,95.35c.18,4.76-2.47,6.34-6.23,6.35-4.32,0-5.52-3.13-5.77-6.7a5.68,5.68,0,0,1,6.38-6C33,89.39,35.33,91.58,34.89,95.35Z"/><path class="cls-6" d="M77.18,77.15c1.11.52,1.79.07,1.64-1.6-.27-3,.09-3.34,2.53-2.3a5.05,5.05,0,0,1,3.26,6c-.52,2.7-2.18,4.61-5.15,4.39s-4.27-2.33-4.55-5.05C74.8,77.55,74.36,75.43,77.18,77.15Z"/><path class="cls-6" d="M32.39,73.77a.91.91,0,0,0,.65-.66l3.71-.2h0l1,.66c1.23,1.35,2.38,2.77,2.29,4.72C40,80.77,39,82.82,36.41,83.51c-3.47.93-5-1.46-6.36-4,.14-1.27.29-2.54.43-3.81l.25,0,.06-.25c1.15.39,1.34,3.42,3.21,1.5S32.68,75,32.39,73.77Z"/><path class="cls-2" d="M68.56,125.73v2c-3.17,4.74-7.55,2.6-11.51,1.8a13.28,13.28,0,0,1-7.76-3.77Z"/><path class="cls-1" d="M80.42,61.83a17.12,17.12,0,0,1,3.26.67c1.66.58,4.1,1.27,3.4,3.41s-2.85.67-4.32.33a15.21,15.21,0,0,0-7.81.24c-1.07.3-2.62,1.67-3.29-.4-.5-1.52.82-2.4,1.94-3.09C75.35,61.92,77.32,61.74,80.42,61.83Z"/><path class="cls-1" d="M35.63,61.65a23.69,23.69,0,0,1,3.87.78c1.69.63,3.93,1.48,3.12,3.72-.73,2-2.57.38-3.86.09a16.87,16.87,0,0,0-8.38.28c-1,.29-2.53.93-3.08-.48-.61-1.58.9-2.4,2-3A12.63,12.63,0,0,1,35.63,61.65Z"/><path class="cls-2" d="M68,107c-4.9,5.13-17.38,5-22.87-.39C53.11,108.65,60.5,109.48,68,107Z"/><path class="cls-2" d="M32.39,73.77c.29,1.2,3.53,1.14,1.61,3.12s-2.06-1.11-3.21-1.5A1.7,1.7,0,0,1,32.39,73.77Z"/><path class="cls-2" d="M30.48,75.66c-.14,1.27-.29,2.54-.43,3.81C30.31,78.21,28.24,76.69,30.48,75.66Z"/><path class="cls-2" d="M36.75,72.91l-3.71.2C34.18,71.24,35.43,71.38,36.75,72.91Z"/><path class="cls-2" d="M37.79,73.56l-1-.66Z"/></g></g></svg>