<svg id="Capa_1" enable-background="new 0 0 512 512" height="512" viewBox="0 0 512 512" width="512" xmlns="http://www.w3.org/2000/svg"><g><path d="m195.85 108.377v-12.176c0-27.458-17.045-50.996-41.103-60.631.217-1.479.332-2.979.332-4.499 0-8.203-3.196-15.916-9.003-21.722-5.806-5.794-13.517-8.986-21.713-8.986h-52.876c-16.933 0-30.708 13.775-30.708 30.708 0 1.519.115 3.019.331 4.497-24.061 9.633-41.11 33.172-41.11 60.633v12.176c0 11.816 3.164 23.29 9.164 33.362-.02.418-.031.838-.031 1.26 0 14.285 11.626 25.907 25.917 25.907h2.538c.252 15.96 6.593 30.907 17.951 42.18 11.479 11.395 26.675 17.652 42.836 17.652.155 0 .312 0 .468-.001 32.731-.245 59.441-26.934 60.313-59.831h2.554c6.929 0 13.438-2.694 18.33-7.586 4.894-4.892 7.588-11.398 7.588-18.32 0-.901-.047-1.792-.137-2.67 5.472-9.726 8.359-20.709 8.359-31.953zm-140.071-77.306c0-8.662 7.047-15.708 15.708-15.708h52.875c4.194 0 8.143 1.634 11.111 4.598 2.969 2.969 4.604 6.915 4.604 11.11 0 .179-.021.354-.027.532-3.102-.454-6.272-.699-9.499-.699h-65.253c-3.224 0-6.391.244-9.492.698-.006-.178-.027-.352-.027-.531zm-31.645 111.928c0-2.922 1.134-5.665 3.192-7.724 2.06-2.06 4.804-3.194 7.725-3.194h2.514v21.824h-2.514c-6.02.001-10.917-4.892-10.917-10.906zm120.063 24.254c0 25.444-20.396 46.297-45.466 46.484-.118.001-.235.001-.353.001-12.176 0-23.625-4.714-32.272-13.298-8.732-8.667-13.542-20.216-13.542-32.518v-47.416c18.634-1.525 35.456-11.506 45.817-26.673 10.361 15.167 27.183 25.148 45.816 26.673zm4.995-61.543c-19.558 0-37.141-12.366-43.753-30.772-1.07-2.978-3.895-4.964-7.059-4.964s-5.988 1.986-7.059 4.964c-6.611 18.406-24.194 30.772-43.752 30.772h-2.505c-4.143 0-7.5 3.358-7.5 7.5v3.872h-2.514c-6.582 0-12.784 2.436-17.584 6.875-1.623-4.992-2.466-10.239-2.466-15.58v-12.176c0-27.734 22.563-50.297 50.298-50.297h65.255c27.733 0 50.297 22.563 50.297 50.297v12.176c0 5.113-.778 10.153-2.276 14.965-4.537-3.897-10.427-6.261-16.863-6.261h-2.513v-3.872c0-4.142-3.357-7.5-7.5-7.5h-2.506zm20.242 45.003c-2.059 2.059-4.802 3.193-7.724 3.193h-2.513v-21.824h2.513c6.021 0 10.918 4.897 10.918 10.917 0 2.915-1.134 5.654-3.194 7.714z"/><path d="m112.92 163.845c-8.016 8.017-21.062 8.017-29.078 0-2.93-2.929-7.678-2.929-10.607 0s-2.929 7.678 0 10.606c6.934 6.933 16.04 10.399 25.146 10.399s18.213-3.466 25.146-10.399c2.929-2.929 2.929-7.678 0-10.606s-7.677-2.928-10.607 0z"/><path d="m84.469 149.615c4.143 0 7.5-3.358 7.5-7.5v-10.771c0-4.142-3.357-7.5-7.5-7.5s-7.5 3.358-7.5 7.5v10.771c0 4.142 3.357 7.5 7.5 7.5z"/><path d="m104.793 142.115c0 4.142 3.357 7.5 7.5 7.5s7.5-3.358 7.5-7.5v-10.771c0-4.142-3.357-7.5-7.5-7.5s-7.5 3.358-7.5 7.5z"/><path d="m499.878 404.206 5.377-37.192c2.617-18.092-2.744-36.396-14.71-50.217-11.966-13.82-29.312-21.747-47.591-21.747h-39.968c-18.283 0-35.633 7.927-47.6 21.75-11.965 13.82-17.326 32.123-14.709 50.214l5.376 37.171c-1.627 1.024-3.154 2.231-4.546 3.624-4.883 4.884-7.572 11.381-7.572 18.296 0 14.258 11.604 25.858 25.869 25.858h2.512c.256 15.916 6.583 30.821 17.908 42.064 11.453 11.368 26.613 17.61 42.737 17.61.155 0 .312 0 .467-.001 32.649-.244 59.292-26.86 60.172-59.673h2.529c6.915 0 13.413-2.689 18.297-7.573 4.883-4.884 7.572-11.377 7.572-18.285.002-9.216-4.845-17.316-12.12-21.899zm-150.941 21.898c0-2.908 1.129-5.64 3.18-7.69 2.05-2.05 4.78-3.179 7.689-3.179h2.487v21.728h-2.487c-5.994 0-10.869-4.871-10.869-10.859zm119.707 24.19c0 25.367-20.333 46.156-45.325 46.342-.118.001-.234.001-.352.001-12.139 0-23.553-4.7-32.174-13.257-8.706-8.641-13.5-20.154-13.5-32.418v-66.564c10.032-.535 18.699-6.298 23.321-14.607 6.531 4.303 14.234 6.646 22.33 6.646h.001c8.097 0 15.801-2.343 22.332-6.647 4.628 8.321 13.315 14.089 23.366 14.61v65.894zm7.455-80.856h-5.968c-7.398 0-13.418-6.019-13.418-13.418 0-3.21-2.043-6.064-5.081-7.099-3.036-1.034-6.398-.022-8.358 2.52-4.897 6.353-12.308 9.996-20.328 9.996-8.021 0-15.43-3.643-20.327-9.996-1.959-2.542-5.321-3.553-8.358-2.52-3.038 1.035-5.081 3.889-5.081 7.099 0 7.399-6.02 13.418-13.418 13.418h-5.968c-4.143 0-7.5 3.358-7.5 7.5v23.297h-1.653l-5.115-35.369c-1.993-13.781 2.09-27.722 11.204-38.249 9.115-10.529 22.331-16.567 36.259-16.567h39.968c13.923 0 27.136 6.038 36.25 16.565 9.114 10.528 13.198 24.47 11.205 38.251l-5.114 35.369h-1.653v-23.297c0-4.142-3.357-7.5-7.5-7.5-.017 0-.031 0-.046 0zm17.721 64.345c-2.05 2.05-4.78 3.179-7.689 3.179h-2.487v-21.728h2.487c5.993 0 10.869 4.876 10.869 10.869 0 2.903-1.129 5.63-3.18 7.68z"/><path d="m437.455 435.988c-3.869 3.87-9.015 6.001-14.487 6.001s-10.617-2.131-14.486-6.001c-2.929-2.929-7.678-2.929-10.606 0-2.93 2.929-2.93 7.677-.001 10.606 6.703 6.703 15.615 10.395 25.094 10.395s18.392-3.691 25.095-10.395c2.929-2.929 2.929-7.678-.001-10.606-2.929-2.93-7.678-2.929-10.608 0z"/><path d="m409.093 421.828c4.143 0 7.5-3.358 7.5-7.5v-10.743c0-4.142-3.357-7.5-7.5-7.5s-7.5 3.358-7.5 7.5v10.743c0 4.142 3.357 7.5 7.5 7.5z"/><path d="m436.844 421.828c4.143 0 7.5-3.358 7.5-7.5v-10.743c0-4.142-3.357-7.5-7.5-7.5s-7.5 3.358-7.5 7.5v10.743c0 4.142 3.357 7.5 7.5 7.5z"/><path d="m329.919 118.529-28.271-22.932c-5.065-4.109-11.868-4.918-17.756-2.114-5.743 2.736-9.364 8.316-9.538 14.642h-45.138c-12.909 0-23.411 10.502-23.411 23.412s10.502 23.412 23.411 23.412h45.138c.174 6.326 3.795 11.906 9.539 14.643 2.324 1.107 4.791 1.651 7.237 1.651 3.75 0 7.452-1.279 10.518-3.765h-.001l28.272-22.934c3.938-3.195 6.196-7.936 6.196-13.007s-2.258-9.813-6.196-13.008zm-9.449 14.366-28.271 22.933h-.001c-.567.46-1.191.536-1.853.22-.662-.315-.997-.846-.997-1.579v-7.021c0-4.142-3.357-7.5-7.5-7.5h-52.631c-4.638 0-8.411-3.773-8.411-8.412s3.773-8.412 8.411-8.412h52.631c4.143 0 7.5-3.358 7.5-7.5v-7.021c0-.732.335-1.264.997-1.579.661-.315 1.285-.24 1.854.221l28.271 22.932c.535.434.647.979.647 1.359s-.113.925-.647 1.359z"/><path d="m301.705 379.933h-45.137c-.174-6.325-3.795-11.906-9.538-14.642-5.889-2.805-12.692-1.995-17.756 2.113l-28.271 22.933c-3.938 3.195-6.198 7.936-6.198 13.008s2.26 9.813 6.198 13.008l28.271 22.933c3.065 2.486 6.767 3.764 10.518 3.764 2.446 0 4.914-.544 7.239-1.652 5.742-2.736 9.363-8.316 9.537-14.642h45.137c12.909 0 23.411-10.502 23.411-23.412s-10.502-23.411-23.411-23.411zm0 31.823h-52.63c-4.143 0-7.5 3.358-7.5 7.5v7.021c0 .732-.335 1.264-.997 1.579-.66.314-1.284.241-1.854-.221l-28.271-22.933c-.535-.434-.647-.978-.647-1.358s.112-.924.647-1.358l28.271-22.933c.569-.461 1.194-.536 1.854-.221.662.315.997.846.997 1.579v7.021c0 4.142 3.357 7.5 7.5 7.5h52.63c4.638 0 8.411 3.773 8.411 8.412s-3.773 8.412-8.411 8.412z"/><path d="m378.74 204.102h88.46c18.984 0 34.43-15.441 34.43-34.42v-88.47c0-18.979-15.445-34.42-34.43-34.42h-29.23c-4.143 0-7.5 3.358-7.5 7.5s3.357 7.5 7.5 7.5h29.23c10.714 0 19.43 8.712 19.43 19.42v88.47c0 10.708-8.716 19.42-19.43 19.42h-88.46c-10.714 0-19.431-8.712-19.431-19.42v-88.47c0-10.708 8.717-19.42 19.431-19.42h29.229c4.143 0 7.5-3.358 7.5-7.5s-3.357-7.5-7.5-7.5h-29.229c-18.985 0-34.431 15.441-34.431 34.42v88.47c.001 18.979 15.446 34.42 34.431 34.42z"/><path d="m414.461 84.97-29.217 76.711c-1.475 3.871.469 8.204 4.34 9.678 3.866 1.473 8.203-.468 9.678-4.339l5.437-14.274h36.59l5.379 14.253c1.133 3.003 3.987 4.854 7.018 4.854.88 0 1.775-.156 2.647-.485 3.875-1.463 5.831-5.79 4.368-9.665l-28.951-76.714c-.025-.068-.052-.136-.08-.204-1.434-3.489-4.796-5.741-8.567-5.741-.003 0-.006 0-.009 0-3.775.004-7.137 2.264-8.565 5.757-.024.056-.047.112-.068.169zm8.616 19.521 12.55 33.254h-25.216z"/><path d="m142.16 324.682h-88.47c-18.979 0-34.421 15.445-34.421 34.43v47.15c0 4.142 3.357 7.5 7.5 7.5s7.5-3.358 7.5-7.5v-47.15c0-10.713 8.712-19.43 19.421-19.43h88.47c10.708 0 19.42 8.716 19.42 19.43v88.46c0 10.714-8.712 19.43-19.42 19.43h-88.47c-10.709 0-19.421-8.716-19.421-19.43v-11.31c0-4.142-3.357-7.5-7.5-7.5s-7.5 3.358-7.5 7.5v11.31c0 18.985 15.441 34.43 34.421 34.43h88.47c18.979 0 34.42-15.445 34.42-34.43v-88.46c0-18.984-15.44-34.43-34.42-34.43z"/><path d="m101.781 356.94h-22.601c-4.143 0-7.5 3.358-7.5 7.5v77.807c0 1.995.795 3.908 2.208 5.315 1.406 1.4 3.309 2.185 5.292 2.185h.033s20.785-.092 26.515-.092c15.684 0 28.443-12.76 28.443-28.443 0-9.68-4.865-18.241-12.273-23.381 3.311-4.291 5.287-9.661 5.287-15.487 0-14.008-11.396-25.404-25.404-25.404zm0 15c5.736 0 10.403 4.667 10.403 10.403 0 5.737-4.667 10.404-10.403 10.404-1.656 0-15.102.021-15.102.021v-20.828zm3.947 62.715c-3.476 0-12.479.034-19.048.061v-26.921c2.2-.009 19.048-.026 19.048-.026 7.413 0 13.443 6.031 13.443 13.443s-6.03 13.443-13.443 13.443z"/></g></svg>