<svg id="Capa_1" enable-background="new 0 0 609.687 609.687" height="512" viewBox="0 0 609.687 609.687" width="512" xmlns="http://www.w3.org/2000/svg"><g><g id="Page-1_48_"><g id="_x30_49---Home-Tutor" transform="translate(-1)"><path id="Shape_149_" d="m112.841 50.827v65.209l-97.54 61.399c-9.923 6.172-15.414 17.5-14.112 29.113s9.165 21.444 20.208 25.265v337.192c0 22.446 18.196 40.642 40.642 40.642h487.698c22.446 0 40.642-18.196 40.642-40.642v-337.252c10.999-3.85 18.819-13.662 20.119-25.243s-4.151-22.882-14.023-29.075l-274.33-172.726c-9.944-6.226-22.57-6.226-32.513 0l-85.347 53.748v-7.63c0-11.223-9.098-20.321-20.321-20.321h-50.802c-11.223 0-20.321 9.098-20.321 20.321zm457.217 518.179c0 11.223-9.098 20.321-20.321 20.321h-487.698c-11.223 0-20.321-9.098-20.321-20.321v-337.101c2.132-.73 4.177-1.695 6.096-2.875l258.074-162.505 258.074 162.505c1.921 1.176 3.965 2.137 6.096 2.865zm-269.575-547.106c3.305-2.076 7.506-2.076 10.811 0l274.33 172.726c4.747 2.991 6.17 9.264 3.18 14.011-3.061 4.64-9.236 6.043-14.001 3.18l-263.499-165.897c-3.309-2.085-7.522-2.085-10.831 0l-263.51 165.908c-2.281 1.429-5.034 1.9-7.661 1.311-4.003-.915-7.062-4.151-7.751-8.2s1.127-8.114 4.602-10.302zm-167.321 28.927h50.802v20.422l-50.802 31.985z"/><path id="Shape_148_" d="m535.686 303.373-220.297-98.109c-6.058-2.673-12.962-2.673-19.02 0l-220.298 98.12c-8.537 3.885-14.017 12.399-14.017 21.779 0 9.379 5.48 17.894 14.017 21.779l26.61 11.847v59.682c-12.173 4.241-20.33 15.721-20.33 28.612s8.157 24.371 20.33 28.612v22.19c0 5.611 4.549 10.16 10.16 10.16s10.16-4.549 10.16-10.16v-22.19c12.173-4.241 20.33-15.721 20.33-28.612s-8.157-24.371-20.33-28.612v-50.639l50.802 22.637v68.207c-.038 6.458 3.046 12.536 8.281 16.318 5.369 3.865 12.253 4.955 18.553 2.936 34.49-7.99 69.862-11.527 105.251-10.526 35.393-.997 70.768 2.544 105.262 10.536 6.295 2.035 13.184.944 18.543-2.936 5.234-3.782 8.319-9.86 8.281-16.318v-68.207l97.733-43.547c8.537-3.885 14.017-12.399 14.017-21.779 0-9.379-5.48-17.894-14.017-21.779h-.021zm-422.845 153.869c-5.611 0-10.16-4.549-10.16-10.16s4.549-10.16 10.16-10.16 10.16 4.549 10.16 10.16-4.548 10.16-10.16 10.16zm304.537 1.351c-36.496-8.717-73.982-12.588-111.49-11.512-37.604-1.081-75.185 2.821-111.764 11.603v-100.13c8.738-5.029 46.738-13.076 111.764-13.076s102.996 8.047 111.764 13.066zm110.007-130.215-89.411 39.859v-12.599c0-26.519-82.756-30.481-132.085-30.481s-132.085 3.963-132.085 30.481v12.599l-89.411-39.849c-1.215-.616-1.981-1.863-1.981-3.226s.766-2.61 1.981-3.226l220.247-98.139c.803-.367 1.726-.367 2.53 0l220.216 98.129c1.215.616 1.981 1.863 1.981 3.226-.001 1.363-.767 2.61-1.982 3.226z"/></g></g></g></svg>