<?xml version="1.0" encoding="UTF-8"?>
<svg xmlns="http://www.w3.org/2000/svg" id="Layer_1" data-name="Layer 1" viewBox="0 0 512 512" width="512" height="512"><path d="M299.814,408.968l-25.4-13.78-11.238-22.733a8,8,0,0,0-6.849-4.447,7.915,7.915,0,0,0-7.185,3.88l-13.962,23.29-23.29,13.962a8,8,0,0,0,.567,14.033l22.733,11.238,13.78,25.4A8,8,0,0,0,256,464c.1,0,.2,0,.307-.006a8,8,0,0,0,7-4.727l11.116-24.849L299.268,423.3a8,8,0,0,0,.547-14.335ZM265.1,421.062a8.007,8.007,0,0,0-4.035,4.035l-5.751,12.854-7.27-13.4a8.006,8.006,0,0,0-3.486-3.357l-11.869-5.867,12.437-7.455a7.993,7.993,0,0,0,2.748-2.748l7.455-12.437,5.867,11.869a8.006,8.006,0,0,0,3.357,3.486l13.4,7.27Z"/><rect x="208" y="216" width="16" height="16"/><rect x="304" y="456" width="16" height="16"/><path d="M504,0H8A8,8,0,0,0,0,8V264a8,8,0,0,0,8,8H48v54a2,2,0,0,1-2,2H42a2,2,0,0,1-2-2V298a18.021,18.021,0,0,0-18-18H18A18.021,18.021,0,0,0,0,298v66.848A17.907,17.907,0,0,0,3.254,375.17L48.635,440H40a8,8,0,0,0-8,8v56a8,8,0,0,0,8,8H160a8,8,0,0,0,8-8V448a8,8,0,0,0-6.7-7.886l78.752-91.877a18.085,18.085,0,0,0-.938-24.442l-9.709-9.709a18,18,0,0,0-26.556,1.205l-15.308,18.368A2,2,0,0,1,184,332.38V272H328v60.38a2,2,0,0,1-3.537,1.28l-15.307-18.369a18,18,0,0,0-26.557-1.205l-9.709,9.709a18.085,18.085,0,0,0-.938,24.442L350.7,440.114A8,8,0,0,0,344,448v56a8,8,0,0,0,8,8H472a8,8,0,0,0,8-8V448a8,8,0,0,0-8-8h-8.635l45.381-64.829A17.912,17.912,0,0,0,512,364.848V298a18.021,18.021,0,0,0-18-18h-4a18.021,18.021,0,0,0-18,18v28a2,2,0,0,1-2,2h-4a2,2,0,0,1-2-2V272h40a8,8,0,0,0,8-8V8A8,8,0,0,0,504,0Zm-8,16V64H16V16ZM416,272h8v38a2,2,0,0,1-2,2h-4a2,2,0,0,1-2-2Zm8-16h-8V242a18.021,18.021,0,0,0-18-18h-4a18.021,18.021,0,0,0-18,18v14h-8.118A18.026,18.026,0,0,0,352,240.118V168h16a8,8,0,0,0,8-8V80h24v80a8,8,0,0,0,8,8h16Zm-56,16h8v38a2,2,0,0,1-2,2h-4a2,2,0,0,1-2-2Zm-39.882-16H264V168h16a8,8,0,0,0,8-8V80h24v80a8,8,0,0,0,8,8h16v75.044A18.013,18.013,0,0,0,328.118,256ZM136,272h8v38a2,2,0,0,1-2,2h-4a2,2,0,0,1-2-2Zm8.118-16H136V242a18.021,18.021,0,0,0-18-18h-4a18.021,18.021,0,0,0-18,18v14H88V168h16a8,8,0,0,0,8-8V80h24v80a8,8,0,0,0,8,8h16v72.118A18.026,18.026,0,0,0,144.118,256ZM64,80H96v72H64ZM88,272h8v38a2,2,0,0,1-2,2H90a2,2,0,0,1-2-2Zm64-120V80h32v72Zm24,91.044V168h16a8,8,0,0,0,8-8V80h24v80a8,8,0,0,0,8,8h16v88H183.882A18.013,18.013,0,0,0,176,243.044ZM240,152V80h32v72Zm88,0V80h32v72Zm88,0V80h32v72ZM16,80H48v80a8,8,0,0,0,8,8H72v72.118A18.092,18.092,0,0,0,70,240H66a18.022,18.022,0,0,0-17.882,16H16ZM152,496H48V456H152Zm47.828-152.1,15.309-18.369a1.949,1.949,0,0,1,1.444-.717,1.916,1.916,0,0,1,1.5.584l9.709,9.709a2.009,2.009,0,0,1,.1,2.716L140.918,439.3a2,2,0,0,1-1.518.7H69.207a2,2,0,0,1-1.639-.854L16.361,365.993A1.986,1.986,0,0,1,16,364.848V298a2,2,0,0,1,2-2h4a2,2,0,0,1,2,2v28a18.021,18.021,0,0,0,18,18h4a18.021,18.021,0,0,0,18-18V258a2,2,0,0,1,2-2h4a2,2,0,0,1,2,2v52a18.021,18.021,0,0,0,18,18h4a18.021,18.021,0,0,0,18-18V242a2,2,0,0,1,2-2h4a2,2,0,0,1,2,2v68a18.021,18.021,0,0,0,18,18h4a18.021,18.021,0,0,0,18-18V258a2,2,0,0,1,2-2h4a2,2,0,0,1,2,2v74.38A18,18,0,0,0,199.828,343.9ZM464,496H360V456H464Zm2-152h4a18.021,18.021,0,0,0,18-18V298a2,2,0,0,1,2-2h4a2,2,0,0,1,2,2v66.848a1.991,1.991,0,0,1-.361,1.146l-51.208,73.153a2,2,0,0,1-1.638.853H372.6a2,2,0,0,1-1.519-.7L284.1,337.825a2.009,2.009,0,0,1,.1-2.716l9.709-9.709a1.948,1.948,0,0,1,1.408-.587q.05,0,.1,0a1.953,1.953,0,0,1,1.445.717l15.308,18.37A18,18,0,0,0,344,332.38V258a2,2,0,0,1,2-2h4a2,2,0,0,1,2,2v52a18.021,18.021,0,0,0,18,18h4a18.021,18.021,0,0,0,18-18V242a2,2,0,0,1,2-2h4a2,2,0,0,1,2,2v68a18.021,18.021,0,0,0,18,18h4a18.021,18.021,0,0,0,18-18V258a2,2,0,0,1,2-2h4a2,2,0,0,1,2,2v68A18.021,18.021,0,0,0,466,344Zm30-88H463.882A18.022,18.022,0,0,0,446,240h-4a18.092,18.092,0,0,0-2,.118V168h16a8,8,0,0,0,8-8V80h32Z"/><rect x="56" y="32" width="72" height="16"/><rect x="168" y="32" width="32" height="16"/><rect x="344" y="32" width="32" height="16"/><rect x="416" y="32" width="32" height="16"/></svg>
