<svg width="82" height="33" xmlns="http://www.w3.org/2000/svg"><g fill="#2F3446" fill-rule="nonzero"><path d="M32.435 6.114C32.12 3.44 29.559.88 26.886.565a95.751 95.751 0 0 0-20.772 0C3.44.879.88 3.441.565 6.114a95.751 95.751 0 0 0 0 20.772c.315 2.673 2.876 5.234 5.549 5.549a95.753 95.753 0 0 0 20.772 0c2.673-.315 5.234-2.876 5.549-5.549a95.753 95.753 0 0 0 0-20.772zM6.779 16.56a1.092 1.092 0 0 1-.9-1.71l5.96-8.689a1.092 1.092 0 0 1 1.8 1.235l-5.96 8.69a1.09 1.09 0 0 1-.9.474zm1.55 2.321L17.05 6.165A1.092 1.092 0 0 1 18.851 7.4L10.13 20.117a1.09 1.09 0 1 1-1.8-1.235zm1.5 8.421a1.092 1.092 0 0 1-.9-1.71L22.257 6.165a1.092 1.092 0 0 1 1.8 1.235L10.732 26.83a1.091 1.091 0 0 1-.901.474zm6.12-.468a1.091 1.091 0 1 1-1.8-1.234l8.722-12.718a1.092 1.092 0 0 1 1.8 1.235L15.95 26.835zm11.172-8.687-5.96 8.69a1.091 1.091 0 1 1-1.8-1.235l5.96-8.69a1.092 1.092 0 0 1 1.8 1.235zM46.694 13.418v2.369h5.764V19.3h-5.764v4.422h-4.659V9.904h11.232v3.514zM54.61 9.075h4.46v14.647h-4.46zM70.224 14c1 .85 1.5 2.155 1.5 3.919v5.803H67.58v-1.42c-.513 1.079-1.534 1.618-3.06 1.618-.855 0-1.583-.148-2.181-.444-.6-.296-1.053-.697-1.362-1.204a3.21 3.21 0 0 1-.464-1.708c0-1.066.407-1.875 1.224-2.428.816-.553 2.053-.83 3.71-.83h1.797c-.144-.841-.822-1.263-2.033-1.263-.487 0-.98.076-1.48.227-.5.152-.928.36-1.283.622l-1.421-2.941c.618-.382 1.365-.681 2.24-.898a10.833 10.833 0 0 1 2.616-.326c1.894 0 3.342.424 4.342 1.273zM66.71 20.98c.25-.171.434-.428.553-.77v-.75h-1.105c-.908 0-1.362.303-1.362.908 0 .25.095.457.286.622.19.164.45.246.78.246.315 0 .598-.085.848-.256zM81.614 23.347c-.671.382-1.586.573-2.744.573-1.513 0-2.678-.365-3.494-1.096-.816-.73-1.224-1.826-1.224-3.286v-2.764h-1.48v-3.257h1.48v-3.02h4.461v3.02h2.211v3.257h-2.211v2.724c0 .329.085.586.257.77a.873.873 0 0 0 .67.276c.383 0 .718-.098 1.008-.296l1.066 3.1z"/></g></svg>