<svg fill="none" height="512" viewBox="0 0 24 24" width="512" xmlns="http://www.w3.org/2000/svg"><g fill="rgb(0,0,0)"><path clip-rule="evenodd" d="m5 4.5c-.27614 0-.5.22386-.5.5v4c0 .27614.22386.5.5.5h6c.2761 0 .5-.22386.5-.5v-4c0-.27614-.2239-.5-.5-.5zm.5 4v-3h5v3z" fill-rule="evenodd"/><path d="m13 7c0-.27614.2239-.5.5-.5h4.5v-.5c0-.27614.2239-.5.5-.5s.5.22386.5.5v.5h.5c.2761 0 .5.22386.5.5s-.2239.5-.5.5h-.5v.5c0 .27614-.2239.5-.5.5s-.5-.22386-.5-.5v-.5h-4.5c-.2761 0-.5-.22386-.5-.5z"/><path clip-rule="evenodd" d="m1.5 4c0-1.38071 1.11929-2.5 2.5-2.5h16c1.3807 0 2.5 1.11929 2.5 2.5v16c0 1.3807-1.1193 2.5-2.5 2.5h-16c-1.38071 0-2.5-1.1193-2.5-2.5zm18.5 17.5h-1.5v-5h.5c.2761 0 .5-.2239.5-.5v-3.5h1.5c.1753 0 .3436-.0301.5-.0854v7.5854c0 .8284-.6716 1.5-1.5 1.5zm-2.5 0v-5h-.5c-.2761 0-.5-.2239-.5-.5v-3.5h-3v3.5c0 .2761-.2239.5-.5.5h-.5v5zm1-6h-1v-3h1zm-7 1v5h-5v-5h.5c.27614 0 .5-.2239.5-.5v-3.5h3v3.5c0 .2761.2239.5.5.5zm1-1v-3h-1v3zm-7 6v-5h-.5c-.27614 0-.5-.2239-.5-.5v-3.5h-1.5c-.17532 0-.34361-.0301-.5-.0854v7.5854c0 .8284.67157 1.5 1.5 1.5zm1-6h-1v-3h1zm15-11.5v7c0 .2761-.2239.5-.5.5h-18c-.27614 0-.5-.2239-.5-.5v-7c0-.05178.00262-.10294.00774-.15337.07682-.75638.71561-1.34663 1.49226-1.34663h16c.8284 0 1.5.67157 1.5 1.5z" fill-rule="evenodd"/></g></svg>