<svg height="395pt" viewBox="-47 0 395 395.94667" width="395pt" xmlns="http://www.w3.org/2000/svg"><path d="m276.378906 0h-200.8125c-.148437 0-.285156.078125-.433594.0859375-.601562.0390625-1.179687.1562505-1.75.3476565-.21875.078125-.433593.132812-.644531.230468-.726562.332032-1.414062.75-2 1.335938l-68.265625 68.265625c-.585937.589844-1.003906 1.277344-1.335937 2.003906-.097657.207031-.152344.417969-.226563.636719-.199218.574219-.316406 1.160156-.351562 1.765625-.011719.144531-.085938.277344-.085938.421875v296.390625c0 13.488281 10.972656 24.460937 24.46875 24.460937h251.4375c13.492188 0 24.46875-10.972656 24.46875-24.460937v-347.019531c0-13.492188-10.976562-24.464844-24.46875-24.464844zm-207.640625 23.304688v34.152343c0 5.960938-4.851562 10.808594-10.8125 10.808594h-34.144531zm218.453125 348.179687c0 5.957031-4.851562 10.808594-10.8125 10.808594h-251.4375c-5.960937 0-10.816406-4.851563-10.816406-10.808594v-289.5625h43.800781c13.492188 0 24.46875-10.976563 24.46875-24.464844v-43.804687h193.984375c5.960938 0 10.8125 4.851562 10.8125 10.8125zm0 0"/><path d="m223.992188 129.9375-102.398438 27.304688c-2.988281.796874-5.066406 3.503906-5.066406 6.597656v82.777344c-7.199219-4.785157-16.707032-7.683594-27.308594-7.683594-22.964844 0-40.957031 13.492187-40.957031 30.71875 0 17.226562 17.992187 30.722656 40.957031 30.722656 22.96875 0 40.960938-13.496094 40.960938-30.722656 0-.871094-.078126-1.726563-.167969-2.578125.035156-.285157.167969-.539063.167969-.835938v-63.019531l88.746093-23.667969v53.414063c-7.199219-4.789063-16.707031-7.6875-27.304687-7.6875-22.96875 0-40.960938 13.492187-40.960938 30.722656 0 17.226562 17.992188 30.71875 40.960938 30.71875 22.964844 0 40.957031-13.492188 40.957031-30.71875 0-.875-.078125-1.730469-.167969-2.582031.035156-.285157.167969-.535157.167969-.832031v-116.054688c0-2.121094-.984375-4.121094-2.664063-5.414062-1.679687-1.289063-3.867187-1.722657-5.921874-1.179688zm-134.773438 156.78125c-14.800781 0-27.304688-7.816406-27.304688-17.066406s12.503907-17.066406 27.304688-17.066406 27.308594 7.816406 27.308594 17.066406-12.507813 17.066406-27.308594 17.066406zm40.960938-97.632812v-20.003907l88.746093-23.660156v20zm61.441406 83.980468c-14.800782 0-27.308594-7.816406-27.308594-17.066406s12.507812-17.066406 27.308594-17.066406c14.800781 0 27.304687 7.816406 27.304687 17.066406s-12.503906 17.066406-27.304687 17.066406zm0 0"/></svg>