<svg height="384pt" viewBox="0 0 384 384" width="384pt" xmlns="http://www.w3.org/2000/svg"><path d="m176 288c0 8.832031 7.167969 16 16 16s16-7.167969 16-16v-192c0-8.832031-7.167969-16-16-16s-16 7.167969-16 16zm0 0"/><path d="m16 96c-8.832031 0-16 7.167969-16 16v160c0 8.832031 7.167969 16 16 16s16-7.167969 16-16v-160c0-8.832031-7.167969-16-16-16zm0 0"/><path d="m152 256v-128c0-8.832031-7.167969-16-16-16s-16 7.167969-16 16v128c0 8.832031 7.167969 16 16 16s16-7.167969 16-16zm0 0"/><path d="m80 240c8.832031 0 16-7.167969 16-16v-64c0-8.832031-7.167969-16-16-16s-16 7.167969-16 16v64c0 8.832031 7.167969 16 16 16zm0 0"/><path d="m264 256v-128c0-8.832031-7.167969-16-16-16s-16 7.167969-16 16v128c0 8.832031 7.167969 16 16 16s16-7.167969 16-16zm0 0"/><path d="m368 96c-8.832031 0-16 7.167969-16 16v160c0 8.832031 7.167969 16 16 16s16-7.167969 16-16v-160c0-8.832031-7.167969-16-16-16zm0 0"/><path d="m304 144c-8.832031 0-16 7.167969-16 16v64c0 8.832031 7.167969 16 16 16s16-7.167969 16-16v-64c0-8.832031-7.167969-16-16-16zm0 0"/><path d="m176 368c0 8.832031 7.167969 16 16 16s16-7.167969 16-16v-16c0-8.832031-7.167969-16-16-16s-16 7.167969-16 16zm0 0"/><path d="m192 48c8.832031 0 16-7.167969 16-16v-16c0-8.832031-7.167969-16-16-16s-16 7.167969-16 16v16c0 8.832031 7.167969 16 16 16zm0 0"/></svg>