<svg xmlns="http://www.w3.org/2000/svg" width="29" height="29" fill="none" viewBox="0 0 29 29">
  <path fill="#95A0B0" fill-rule="evenodd" d="M6.675.04c-.255.078-.615.453-.688.716-.033.119-.06.5-.06.848l-.001.631-1.092.026c-.977.023-1.145.042-1.602.179A4.642 4.642 0 00.158 5.507L0 6.017v19.22l.158.51a4.665 4.665 0 003.074 3.073l.51.158h9.82l.23-.152c.353-.234.498-.512.498-.954 0-.442-.145-.719-.498-.953l-.23-.152-4.768-.029-4.768-.028-.326-.132a2.311 2.311 0 01-1.33-1.39c-.096-.276-.102-.787-.102-9.561s.006-9.285.102-9.561A2.291 2.291 0 013.7 4.679c.28-.11.46-.131 1.27-.151l.945-.024.02.757c.017.678.033.779.154.973.074.119.238.285.364.368.192.127.293.152.607.152s.415-.025.607-.152c.126-.083.29-.25.364-.368.12-.194.137-.295.155-.968l.02-.75H13.286l.02.755c.018.708.029.77.172.985.235.355.51.498.957.498.31 0 .412-.025.603-.152.126-.083.29-.25.364-.368.121-.194.137-.295.155-.968l.02-.75h5.138l.02.755c.018.708.029.77.171.985.235.355.512.498.958.498.31 0 .412-.025.603-.152.126-.083.29-.25.364-.368.12-.194.137-.295.155-.973l.02-.757.972.023c.826.02 1.018.042 1.278.145a2.28 2.28 0 011.32 1.303l.133.326.028 3.657.028 3.656.135.217c.074.119.238.285.364.368.191.126.293.152.603.152.447 0 .723-.144.958-.499l.152-.23V6.018l-.158-.51a4.642 4.642 0 00-3.074-3.068c-.46-.137-.621-.155-1.625-.178l-1.115-.025-.02-.75c-.018-.701-.029-.764-.171-.98-.235-.353-.512-.498-.954-.498-.442 0-.72.145-.954.499-.142.215-.153.277-.172.985l-.02.755h-5.138l-.02-.75c-.017-.673-.033-.775-.154-.968A1.452 1.452 0 0015.04.16c-.19-.126-.293-.152-.603-.152-.446 0-.722.144-.957.499-.143.215-.154.277-.172.985l-.02.755H8.205l-.02-.755c-.018-.708-.029-.77-.171-.985A1.398 1.398 0 007.66.153C7.43.01 6.953-.045 6.675.04zm0 10.772c-.27.083-.617.454-.695.744a1.169 1.169 0 00.495 1.3c.322.2.876.192 1.192-.018.354-.234.499-.51.499-.953 0-.436-.145-.719-.483-.942-.243-.162-.71-.222-1.008-.131zm4.934 0c-.27.083-.617.454-.695.744a1.169 1.169 0 00.495 1.3c.321.2.875.192 1.192-.018.354-.234.499-.51.499-.953 0-.436-.145-.719-.483-.942-.244-.162-.71-.222-1.008-.131zm4.933 0c-.27.083-.617.454-.695.744a1.169 1.169 0 00.495 1.3c.322.2.876.192 1.192-.018.354-.234.5-.51.5-.953 0-.436-.145-.719-.484-.942-.243-.162-.71-.222-1.008-.131zm4.934 0c-.27.083-.617.454-.695.744a1.169 1.169 0 00.495 1.3c.322.2.875.192 1.192-.018.354-.234.499-.51.499-.953 0-.436-.145-.719-.483-.942-.243-.162-.71-.222-1.008-.131zm-.324 4.557a6.948 6.948 0 00-3.898 1.993 6.512 6.512 0 00-1.266 1.808 6.684 6.684 0 000 5.953 6.73 6.73 0 003.177 3.177c1.918.933 4.04.933 5.96 0a6.73 6.73 0 003.176-3.177 6.684 6.684 0 000-5.953 6.73 6.73 0 00-3.176-3.177c-1.257-.612-2.655-.831-3.973-.624zm-14.477.375c-.27.083-.617.454-.695.744a1.169 1.169 0 00.495 1.3c.322.2.876.192 1.192-.017.354-.234.499-.512.499-.954 0-.436-.145-.719-.483-.942-.243-.161-.71-.222-1.008-.13zm4.934 0c-.27.083-.617.454-.695.744a1.169 1.169 0 00.495 1.3c.321.2.875.192 1.192-.017.354-.234.499-.512.499-.954 0-.436-.145-.719-.483-.942-.244-.161-.71-.222-1.008-.13zm11.339 1.892c1.941.38 3.329 1.767 3.709 3.708.535 2.737-1.688 5.394-4.512 5.394-1.327 0-2.706-.653-3.533-1.673-1.406-1.735-1.406-4.102 0-5.837 1.019-1.256 2.768-1.899 4.336-1.592zm-1.188 1.113c-.266.081-.618.454-.693.735-.041.152-.057.728-.046 1.637l.018 1.402.152.23c.084.127.25.29.369.364.21.13.252.135 1.407.135s1.197-.004 1.407-.135a1.45 1.45 0 00.369-.364c.21-.316.217-.87.017-1.192-.222-.358-.507-.507-1.025-.537L23.289 21l-.02-.773c-.017-.695-.032-.794-.153-.989-.268-.43-.855-.641-1.356-.488zM6.675 20.677c-.27.082-.617.453-.695.743a1.169 1.169 0 00.495 1.3c.322.2.876.192 1.192-.017.354-.234.499-.511.499-.953 0-.437-.145-.72-.483-.943-.243-.161-.71-.221-1.008-.13zm4.934 0c-.27.082-.617.453-.695.743a1.169 1.169 0 00.495 1.3c.321.2.875.192 1.192-.017.354-.234.499-.511.499-.953 0-.437-.145-.72-.483-.943-.244-.161-.71-.221-1.008-.13z" clip-rule="evenodd"/>
</svg>
