<svg xmlns="http://www.w3.org/2000/svg" width="43" height="43" fill="none" viewBox="0 0 43 43">
  <path fill="#95A0B0" stroke="#95A0B0" stroke-width="1.5" d="M22.355 23.213l.574-.138c2.896-.701 4.897-3.326 4.783-6.29h0c-.124-3.221-2.773-5.855-6.039-5.978h0a6.276 6.276 0 00-4.637 1.758 6.11 6.11 0 00-1.893 4.441.925.925 0 001.85 0c0-1.18.474-2.287 1.326-3.108h0a4.457 4.457 0 013.285-1.241h0c2.293.086 4.17 1.918 4.259 4.2h0c.08 2.12-1.383 3.984-3.464 4.44l-.044 1.916zm0 0v.59m0-.59v.59m0 0v2.25m0-2.25v2.25m0 0a.925.925 0 01-1.85 0V23.64c0-1.134.773-2.095 1.894-2.341l-.044 4.756zm9.867 13.107h0a20.661 20.661 0 01-10.708 2.982A20.556 20.556 0 016.879 36.08l-.53.53.53-.53A20.556 20.556 0 01.818 21.446c0-5.53 2.151-10.724 6.061-14.634h0A20.556 20.556 0 0121.514.75c5.529 0 10.724 2.152 14.634 6.062a20.556 20.556 0 016.061 14.634 20.61 20.61 0 01-3.507 11.489h0a.925.925 0 11-1.538-1.029h0a18.773 18.773 0 003.195-10.46c0-10.392-8.454-18.845-18.845-18.845-10.392 0-18.845 8.453-18.845 18.845S11.122 40.29 21.514 40.29c3.445 0 6.817-.938 9.749-2.714h0a.925.925 0 01.959 1.583zM21.43 32.843a.925.925 0 110-1.85.925.925 0 010 1.85z"/>
</svg>
