<svg xmlns="http://www.w3.org/2000/svg" width="34" height="33" fill="none" viewBox="0 0 34 33">
  <path fill="#95A0B0" stroke="#95A0B0" stroke-width=".5" d="M17.764 1.734h0a1.098 1.098 0 00-1.298 0s0 0 0 0L.996 13.06h0a1.098 1.098 0 00-.237 1.535h0c.359.49 1.046.595 1.535.237l-.148-.202.148.202 14.82-10.851 14.822 10.851a1.097 1.097 0 101.297-1.772l-.148.202.148-.202-15.47-11.326z"/>
  <path fill="#95A0B0" stroke="#95A0B0" stroke-width=".5" d="M14.816 30.104a.897.897 0 00.005-.089V21.8a2.297 2.297 0 012.294-2.294 2.297 2.297 0 012.294 2.294v8.215a1.097 1.097 0 001.098 1.098h8.48c.606 0 1.097-.491 1.097-1.098V15.67v0a1.098 1.098 0 00-2.196 0v13.247h-6.283V21.8a4.495 4.495 0 00-4.49-4.49 4.495 4.495 0 00-4.49 4.49v7.117H6.34V15.67a1.098 1.098 0 00-2.195 0v14.345c0 .607.491 1.098 1.097 1.098h8.48c.577 0 1.048-.445 1.093-1.01zm0 0v.003l-.249-.026.25.02v.003zm-8.725-.937v-.25l.25.25h-.25zm6.784 0h-.25l.25-.25v.25zm8.48 0v-.25l.25.25h-.25zm6.783 0h-.25l.25-.25v.25z"/>
</svg>
