<svg xmlns="http://www.w3.org/2000/svg" width="43" height="43" fill="none" viewBox="0 0 43 43">
  <g clip-path="url(#clip0)">
    <path fill="#95A0B0" stroke="#95A0B0" stroke-width=".4" d="M19.526 32.169a1.988 1.988 0 003.975 0V10.723a1.988 1.988 0 00-3.975 0v21.446zM1.855 10.523c-1.097 0-1.987.89-1.987 1.987v17.872a1.988 1.988 0 003.974 0V12.51c0-1.097-.89-1.987-1.987-1.987zM17.246 28.595V14.297a1.988 1.988 0 00-3.975 0v14.298a1.988 1.988 0 003.975 0zM9.003 27.007c1.097 0 1.988-.89 1.988-1.987v-7.148a1.988 1.988 0 00-3.975 0v7.148c0 1.097.89 1.987 1.987 1.987zM29.756 28.595V14.297a1.988 1.988 0 00-3.975 0v14.298a1.988 1.988 0 003.975 0zM41.172 10.523c-1.096 0-1.987.89-1.987 1.987v17.872a1.988 1.988 0 003.975 0V12.51c0-1.097-.89-1.987-1.988-1.987zM34.024 15.884c-1.097 0-1.987.89-1.987 1.988v7.148a1.988 1.988 0 003.974 0v-7.148c0-1.097-.89-1.988-1.987-1.988zM19.526 41.105a1.988 1.988 0 003.975 0v-1.787a1.988 1.988 0 00-3.975 0v1.787zM21.514 5.561c1.097 0 1.987-.89 1.987-1.987V1.787a1.988 1.988 0 00-3.975 0v1.787c0 1.097.89 1.987 1.988 1.987z"/>
  </g>
  <defs>
    <clipPath id="clip0">
      <path fill="#fff" d="M0 0h43v43H0z"/>
    </clipPath>
  </defs>
</svg>
