<svg xmlns="http://www.w3.org/2000/svg" width="43" height="43" fill="none" viewBox="0 0 43 43">
  <g clip-path="url(#clip0)">
    <path fill="#95A0B0" stroke="#95A0B0" stroke-width=".7" d="M23.515 42.892h-4.003a2.677 2.677 0 01-2.656-2.36l-.427-3.352a16.88 16.88 0 01-2.455-1.017l-2.67 2.075c-1.084.838-2.608.742-3.548-.225l-2.815-2.815c-.96-.931-1.056-2.455-.218-3.537l2.075-2.671a16.5 16.5 0 01-1.017-2.456l-3.36-.427a2.683 2.683 0 01-2.353-2.66v-4.003a2.677 2.677 0 012.359-2.655l3.352-.428a16.89 16.89 0 011.017-2.455l-2.073-2.67c-.84-1.083-.741-2.61.227-3.55l2.815-2.814c.931-.96 2.457-1.055 3.537-.218l2.67 2.076c.78-.398 1.603-.74 2.457-1.016l.427-3.36A2.677 2.677 0 0119.512 0h4.003a2.677 2.677 0 012.656 2.359l.427 3.353c.854.277 1.676.618 2.457 1.017l2.67-2.075c1.085-.838 2.608-.742 3.548.227l2.815 2.815c.96.93 1.056 2.455.218 3.536l-2.075 2.672a16.5 16.5 0 011.017 2.456l3.36.427a2.68 2.68 0 012.352 2.657v4.004a2.677 2.677 0 01-2.36 2.655l-3.352.427a16.891 16.891 0 01-1.017 2.456l2.075 2.67c.84 1.083.741 2.608-.227 3.547l-2.815 2.815c-.931.96-2.457 1.058-3.537.218l-2.672-2.075c-.78.4-1.603.742-2.455 1.017l-.427 3.36a2.68 2.68 0 01-2.658 2.354zm-9.633-8.686c.149 0 .3.038.437.113.984.55 2.051.993 3.17 1.315a.892.892 0 01.64.745l.5 3.932a.903.903 0 00.883.794h4.003a.9.9 0 00.881-.785l.502-3.939a.892.892 0 01.64-.745 15.004 15.004 0 003.17-1.315.892.892 0 01.984.075l3.127 2.43c.36.28.863.256 1.17-.06l2.833-2.833a.884.884 0 00.07-1.18l-2.43-3.127a.892.892 0 01-.076-.983c.55-.985.994-2.052 1.316-3.17a.892.892 0 01.745-.64l3.932-.5a.907.907 0 00.793-.885v-4.004a.9.9 0 00-.784-.88l-3.94-.503a.892.892 0 01-.744-.64 15 15 0 00-1.316-3.17.889.889 0 01.075-.983l2.43-3.128c.282-.36.257-.865-.058-1.168l-2.833-2.833a.88.88 0 00-1.18-.07L29.696 8.5a.895.895 0 01-.985.076 14.94 14.94 0 00-3.17-1.316.892.892 0 01-.64-.745l-.5-3.932a.907.907 0 00-.885-.795h-4.003a.9.9 0 00-.881.785l-.502 3.939a.897.897 0 01-.64.747 14.93 14.93 0 00-3.17 1.313.895.895 0 01-.985-.073l-3.128-2.43c-.36-.281-.863-.256-1.169.058L6.205 8.961a.884.884 0 00-.07 1.18l2.43 3.127c.22.282.25.67.076.983a14.909 14.909 0 00-1.316 3.17.892.892 0 01-.745.64l-3.932.5a.903.903 0 00-.793.883v4.004a.9.9 0 00.784.88l3.94.503a.892.892 0 01.745.64 15.001 15.001 0 001.315 3.17c.175.313.146.7-.075.983l-2.43 3.128c-.281.36-.256.864.058 1.168l2.833 2.833a.883.883 0 001.18.07l3.127-2.43a.92.92 0 01.55-.187z"/>
    <path fill="#95A0B0" stroke="#95A0B0" stroke-width=".7" d="M21.514 30.382c-4.928 0-8.936-4.009-8.936-8.936s4.008-8.936 8.936-8.936c4.927 0 8.935 4.009 8.935 8.936s-4.008 8.936-8.935 8.936zm0-16.085a7.156 7.156 0 00-7.15 7.149 7.156 7.156 0 007.15 7.149 7.156 7.156 0 007.148-7.15 7.156 7.156 0 00-7.148-7.148z"/>
  </g>
  <defs>
    <clipPath id="clip0">
      <path fill="#fff" d="M0 0h43v43H0z"/>
    </clipPath>
  </defs>
</svg>
