<svg xmlns="http://www.w3.org/2000/svg" width="34" height="45" fill="none" viewBox="0 0 34 45">
  <path fill="#95A0B0" stroke="#95A0B0" stroke-width=".5" d="M30.888 1H9.135c-.016 0-.031.008-.047.01a.742.742 0 00-.19.037c-.024.008-.047.014-.07.025a.728.728 0 00-.216.145L1.217 8.612a.735.735 0 00-.145.217c-.01.022-.017.045-.025.069a.704.704 0 00-.038.191c-.001.016-.009.03-.009.046v32.107a2.653 2.653 0 002.65 2.65h27.238a2.653 2.653 0 002.65-2.65V3.65c0-1.461-1.188-2.65-2.65-2.65zM8.395 3.525v3.7c0 .645-.525 1.17-1.171 1.17H3.525l4.87-4.87zM32.06 41.242c0 .645-.526 1.17-1.172 1.17H3.651a1.173 1.173 0 01-1.172-1.17V9.874h4.745c1.461 0 2.65-1.189 2.65-2.65V2.48h21.014c.646 0 1.171.525 1.171 1.171v37.592z"/>
  <path fill="#95A0B0" stroke="#95A0B0" stroke-width=".5" d="M25.213 15.076l-11.092 2.958a.74.74 0 00-.55.714v8.967c-.78-.518-1.809-.832-2.957-.832-2.488 0-4.437 1.462-4.437 3.328 0 1.866 1.949 3.328 4.437 3.328 2.488 0 4.437-1.462 4.437-3.328 0-.095-.009-.187-.018-.28.003-.03.018-.058.018-.09v-6.827l9.613-2.564v5.787c-.78-.52-1.81-.833-2.958-.833-2.488 0-4.437 1.461-4.437 3.328 0 1.866 1.95 3.328 4.438 3.328 2.487 0 4.436-1.462 4.436-3.328 0-.095-.008-.188-.018-.28.004-.03.018-.058.018-.09V15.79a.74.74 0 00-.93-.714zm-14.6 16.983c-1.603 0-2.957-.846-2.957-1.848 0-1.002 1.354-1.849 2.958-1.849 1.603 0 2.958.847 2.958 1.849s-1.355 1.849-2.958 1.849zm4.438-10.576v-2.167l9.613-2.563v2.167l-9.613 2.563zm6.655 9.098c-1.603 0-2.958-.847-2.958-1.85 0-1.001 1.355-1.848 2.958-1.848 1.604 0 2.958.847 2.958 1.849s-1.354 1.849-2.958 1.849z"/>
</svg>
